<svg width="68" height="32" viewBox="0 0 68 32" fill="none" xmlns="http://www.w3.org/2000/svg">
<g id="Dor Logo_Red 1" clip-path="url(#clip0_522_171)">
<g id="Layer 1">
<g id="Group">
<path id="Vector" d="M47.2517 20.6444C47.2517 20.5803 47.2517 20.5234 47.2446 20.4594C47.2446 20.4558 47.2446 20.4487 47.2446 20.4451C47.2375 20.2637 47.2268 20.0894 47.209 19.908C47.1877 19.6732 47.1628 19.4419 47.1272 19.2107C47.113 19.1182 47.0952 19.0221 47.0809 18.9332C47.0418 18.7269 47.0027 18.5205 46.9529 18.3177C46.9529 18.3106 46.9529 18.3035 46.9493 18.2964C46.9173 18.1612 46.8817 18.026 46.8426 17.8944C46.8141 17.7912 46.7857 17.6916 46.7536 17.592C46.7181 17.4782 46.6789 17.3608 46.6398 17.2469C46.5544 17.0015 46.4619 16.7595 46.3588 16.5212C46.3196 16.4287 46.2769 16.3362 46.2342 16.2437C46.1844 16.137 46.1346 16.0302 46.0813 15.9235C46.0279 15.8132 45.9745 15.7065 45.9141 15.6033C45.8678 15.518 45.8216 15.4326 45.7718 15.3472C45.7611 15.3294 45.7504 15.3081 45.7397 15.2903C45.6793 15.1871 45.6188 15.0875 45.5548 14.9879C45.4943 14.8918 45.4338 14.7993 45.3733 14.7068C45.2595 14.5361 45.1385 14.3689 45.014 14.2052C44.9678 14.1412 44.918 14.0772 44.8646 14.0131C44.829 13.9669 44.7934 13.9171 44.7508 13.8708C44.6725 13.7748 44.5907 13.6787 44.5088 13.5827C44.4128 13.4759 44.3167 13.3657 44.2171 13.2625C44.1389 13.1771 44.0535 13.0953 43.9717 13.0099C43.9254 12.9601 43.8756 12.9138 43.8258 12.8676C43.7724 12.8142 43.7191 12.7644 43.6621 12.7146C43.623 12.6791 43.5874 12.647 43.5483 12.6115C43.4878 12.5581 43.4309 12.5047 43.3669 12.4549C43.3206 12.4122 43.2708 12.3731 43.2246 12.3375C43.1285 12.2557 43.0289 12.1774 42.9293 12.0992C42.8226 12.0138 42.7123 11.932 42.5984 11.8537C42.5735 11.8359 42.5486 11.8181 42.5202 11.8003C42.4419 11.7434 42.3637 11.6901 42.2818 11.6367C42.2391 11.6082 42.1964 11.5798 42.1538 11.5513C42.0719 11.498 41.9866 11.4446 41.9012 11.3948C41.8763 11.377 41.8478 11.3628 41.8229 11.345C41.7304 11.2916 41.6379 11.2383 41.5454 11.1884C41.5134 11.1671 41.4778 11.1493 41.4423 11.1315C41.3249 11.0675 41.2039 11.0035 41.0865 10.9465C40.9833 10.8932 40.8802 10.8469 40.7734 10.8007C40.7023 10.7687 40.6347 10.7366 40.56 10.7082C40.4959 10.6797 40.4319 10.6513 40.3679 10.6264C40.3252 10.605 40.2789 10.5872 40.2327 10.573C40.126 10.5267 40.0157 10.4841 39.9018 10.4485C39.8912 10.4414 39.8734 10.4378 39.8591 10.4307C39.724 10.3844 39.5888 10.3382 39.45 10.2955C38.4148 9.97533 37.3155 9.80457 36.1735 9.80457C36.0882 9.80457 36.0028 9.80457 35.9174 9.80812H35.9103C35.0565 9.82591 34.2311 9.94331 33.4342 10.1461C33.3133 10.1781 33.1923 10.2101 33.0714 10.2421C32.9326 10.2813 32.7939 10.3275 32.6551 10.3738C28.2545 11.843 25.0847 15.9982 25.0847 20.8898C25.0847 20.9859 25.0847 21.0819 25.0883 21.178C25.1061 21.8433 25.1808 22.4907 25.3088 23.1204C25.3373 23.2627 25.3693 23.3979 25.4013 23.5331C25.4334 23.6718 25.4725 23.8035 25.5081 23.9386C25.5472 24.0738 25.5863 24.2055 25.629 24.3406C25.6717 24.4723 25.718 24.6039 25.7678 24.732C25.8069 24.8351 25.8425 24.9348 25.8852 25.0308C25.9029 25.0771 25.9243 25.1269 25.9421 25.1731C25.9705 25.2443 26.0026 25.319 26.0346 25.3901C26.063 25.4542 26.0879 25.5111 26.1164 25.5715C26.1662 25.6818 26.2196 25.7886 26.2729 25.8988C26.3192 25.9878 26.3654 26.0767 26.4117 26.1657C26.433 26.2048 26.4544 26.2439 26.4757 26.2831C26.5326 26.3827 26.5896 26.4823 26.6465 26.5783C26.7781 26.7989 26.9168 27.0159 27.0627 27.2222C27.0947 27.2685 27.1303 27.3183 27.1623 27.3645C27.2762 27.5211 27.3936 27.6776 27.5145 27.827C27.5501 27.8733 27.5857 27.9195 27.6284 27.9658C27.6853 28.0369 27.7422 28.1045 27.7991 28.1721L27.9058 28.2895C27.9663 28.3571 28.0268 28.4247 28.0873 28.4887C28.1371 28.5421 28.1869 28.5919 28.2402 28.6453C28.3185 28.7306 28.4039 28.8125 28.4893 28.8943C28.5569 28.9583 28.6209 29.0224 28.6921 29.0828C28.7739 29.1611 28.8557 29.2323 28.9375 29.2998C28.9873 29.3461 29.0407 29.3888 29.0905 29.4279C29.1581 29.4848 29.2221 29.5382 29.2897 29.5916C29.3324 29.6236 29.3751 29.6592 29.4178 29.6912C29.4961 29.7552 29.5779 29.8121 29.6597 29.8726C29.77 29.9509 29.8803 30.0291 29.9941 30.1038C30.0759 30.1572 30.1578 30.2106 30.2396 30.2639C30.4032 30.3707 30.5704 30.4703 30.7412 30.5663C30.8444 30.6232 30.944 30.6802 31.0471 30.7335C31.1681 30.7976 31.2891 30.858 31.4136 30.915C31.5523 30.9826 31.6911 31.043 31.8334 31.1035C31.9294 31.1462 32.0255 31.1853 32.1215 31.2209C32.2674 31.2778 32.4168 31.3348 32.5662 31.3846C32.6836 31.4237 32.801 31.4628 32.9184 31.4984C32.9504 31.5126 32.986 31.5197 33.0216 31.5304C33.1247 31.5624 33.2244 31.5909 33.324 31.6158C33.356 31.6265 33.388 31.6336 33.4165 31.6407C33.5339 31.6727 33.6513 31.6976 33.7687 31.7261C33.7722 31.7261 33.7758 31.7261 33.7829 31.7261C33.9181 31.7545 34.0533 31.783 34.1884 31.8079C34.8288 31.9217 35.4869 31.9822 36.1629 31.9822C36.7677 31.9822 37.3582 31.9324 37.931 31.8399C38.6709 31.7225 39.3896 31.534 40.0726 31.2672C40.2683 31.196 40.4639 31.1142 40.656 31.0324C44.4555 29.3461 47.1307 25.5858 47.241 21.1887C47.241 21.1246 47.2446 21.0642 47.2446 21.0001C47.2446 20.9645 47.2446 20.929 47.2446 20.8934C47.2446 20.8045 47.2446 20.7155 47.241 20.6266L47.2517 20.6444ZM34.8608 26.2902C32.4346 25.7032 30.6309 23.5189 30.6309 20.9112C30.6309 20.5412 30.6665 20.1819 30.7376 19.8332C30.7448 19.7834 30.7554 19.7336 30.7697 19.6838C30.7803 19.6305 30.791 19.5807 30.8088 19.5309C30.8372 19.4206 30.8657 19.3138 30.9013 19.2071C30.9226 19.1395 30.944 19.0755 30.9689 19.0115C30.9973 18.9403 31.0222 18.8692 31.0507 18.798C31.0685 18.7553 31.0863 18.7162 31.1041 18.6735C31.1254 18.6237 31.1468 18.5739 31.1717 18.5241C31.1752 18.5134 31.1823 18.5027 31.1859 18.4921C31.2215 18.4174 31.257 18.3462 31.2997 18.2715C31.3389 18.1932 31.3815 18.1185 31.4278 18.0438C31.4314 18.0367 31.4349 18.0296 31.442 18.026C31.4812 17.962 31.5203 17.898 31.563 17.8375C31.5772 17.8161 31.5914 17.7948 31.6057 17.777C31.6412 17.7236 31.6768 17.6703 31.7195 17.6205C31.7302 17.6027 31.7409 17.5884 31.7551 17.5742C31.7907 17.5244 31.8262 17.4746 31.8725 17.4284C31.8903 17.3999 31.9152 17.3714 31.9401 17.3465C31.9792 17.3003 32.0183 17.254 32.061 17.2078C32.0682 17.1971 32.0753 17.19 32.0824 17.1793C32.1322 17.1224 32.1856 17.069 32.2354 17.0157C32.2496 17.0015 32.2567 16.9943 32.2709 16.9837C32.3279 16.9267 32.3883 16.8663 32.4488 16.8129C32.4951 16.7667 32.5449 16.724 32.5947 16.6848C32.6267 16.6564 32.6587 16.6279 32.6907 16.603C32.7156 16.5817 32.7441 16.5603 32.769 16.539C32.8117 16.5034 32.8579 16.4714 32.9006 16.4394C32.922 16.4216 32.9469 16.4038 32.9718 16.3896C33.0145 16.3575 33.0571 16.3255 33.1034 16.2971C33.1425 16.2722 33.1817 16.2437 33.2208 16.2224C33.3987 16.1085 33.5801 16.0089 33.7722 15.9164C33.8256 15.8879 33.8789 15.863 33.9359 15.8417C34.2062 15.7207 34.4908 15.6211 34.7861 15.5464C34.8573 15.5286 34.9284 15.5108 34.9996 15.4966C35.1063 15.4717 35.2166 15.4539 35.3269 15.4361C35.4976 15.4077 35.6719 15.3899 35.8534 15.3792C35.8712 15.3792 35.8925 15.3792 35.9103 15.3792C35.9992 15.3757 36.0846 15.3721 36.1735 15.3721C36.9384 15.3721 37.6677 15.5286 38.333 15.8097C40.3181 16.6528 41.7091 18.6201 41.7091 20.9112C41.7091 21.3167 41.6664 21.7116 41.581 22.0923C41.5276 22.3342 41.46 22.569 41.3782 22.7967C41.364 22.8394 41.3462 22.8856 41.332 22.9247C41.3142 22.971 41.2964 23.0137 41.2786 23.0564C41.2573 23.1133 41.2288 23.1738 41.2003 23.2271C41.1719 23.2912 41.1434 23.3552 41.1078 23.4157C41.0758 23.4833 41.0402 23.5473 41.0047 23.6113C41.0011 23.622 40.994 23.6327 40.9869 23.6434C40.9549 23.7038 40.9193 23.7608 40.8837 23.8212C40.8019 23.9529 40.7165 24.0809 40.624 24.2019C40.5778 24.2659 40.5315 24.3229 40.4817 24.3833C40.4355 24.4403 40.3892 24.4972 40.3359 24.5541C40.3359 24.5577 40.3359 24.5612 40.3287 24.5612C40.2825 24.6181 40.2291 24.6751 40.1758 24.7284C40.1331 24.7747 40.0904 24.8174 40.0441 24.86C39.9943 24.9098 39.941 24.9561 39.8912 25.0059C39.8591 25.0379 39.8236 25.0699 39.788 25.0984C39.6421 25.2265 39.4927 25.3439 39.3326 25.4542C39.3291 25.4577 39.322 25.4613 39.3148 25.4648C39.2686 25.4968 39.2188 25.5324 39.169 25.5609C39.1192 25.5929 39.0658 25.6249 39.016 25.6569C38.9627 25.6889 38.9128 25.721 38.8595 25.7494C38.6282 25.8775 38.3863 25.9913 38.1337 26.0838C38.0946 26.1016 38.0555 26.1123 38.0163 26.1265C37.8278 26.1941 37.6357 26.2475 37.44 26.2937C37.4009 26.3044 37.3618 26.3115 37.3262 26.3222C37.2657 26.3364 37.2052 26.3471 37.1448 26.3578C37.1021 26.3649 37.0558 26.372 37.0131 26.3791C36.9206 26.3933 36.8281 26.404 36.7356 26.4147C36.7143 26.4147 36.6929 26.4182 36.6716 26.4182C36.6289 26.4218 36.5827 26.4254 36.54 26.4289C36.5257 26.4289 36.5186 26.4325 36.5044 26.4325C36.451 26.436 36.3977 26.436 36.3443 26.4396C36.2874 26.4396 36.2269 26.4431 36.17 26.4431C35.7182 26.4431 35.2806 26.3898 34.8608 26.2866V26.2902Z" fill="#DA0C15"/>
<path id="Vector_2" d="M16.8704 0V11.3023C15.2411 10.3595 13.352 9.82235 11.3349 9.82235C5.21241 9.82235 0.246094 14.7887 0.246094 20.9112C0.246094 27.0337 5.21241 32 11.3349 32C11.431 32 11.527 32 11.6231 31.9964C11.7583 31.9964 11.8935 31.9893 12.0286 31.9787C12.0856 31.9787 12.1425 31.9715 12.1958 31.9644C12.3346 31.9573 12.4733 31.9431 12.6121 31.9253C12.7152 31.9111 12.8184 31.9004 12.918 31.8862C12.9821 31.8755 13.0425 31.8684 13.1066 31.8577C13.996 31.719 14.8462 31.4699 15.6538 31.132C15.7356 31.0964 15.821 31.0608 15.8992 31.0252C19.7485 29.2856 22.4237 25.415 22.4237 20.9147V0H16.874H16.8704ZM11.6693 26.436C11.6444 26.436 11.616 26.4396 11.5911 26.4396C11.5057 26.4431 11.4203 26.4467 11.3349 26.4467C8.279 26.4467 5.7994 23.9707 5.7994 20.9112C5.7994 17.8517 8.279 15.3757 11.3349 15.3757C14.3908 15.3757 16.8704 17.8553 16.8704 20.9112C16.8704 22.7931 15.9313 24.458 14.494 25.4577C14.494 25.4577 14.4869 25.4613 14.4833 25.4648C13.6758 26.0269 12.7117 26.3755 11.6693 26.436Z" fill="#DA0C15"/>
<path id="Vector_3" d="M67.7539 12.117L64.8972 16.9801C63.8975 15.984 62.5243 15.3757 61.0017 15.3757C60.9127 15.3757 60.8273 15.3757 60.7384 15.3828C60.7206 15.3828 60.7064 15.3828 60.6886 15.3828C57.7785 15.5465 55.4626 17.9585 55.4626 20.9112V32H49.9128V20.9112C49.9128 15.8417 53.3174 11.562 57.9671 10.2457C57.9849 10.2386 58.0062 10.2351 58.024 10.2279C58.8921 9.98603 59.8028 9.84729 60.742 9.82595C60.8309 9.82239 60.9127 9.82239 61.0017 9.82239C63.5453 9.82239 65.8826 10.6798 67.7539 12.117Z" fill="#DA0C15"/>
<path id="Vector_4" d="M34.8608 26.2901L34.1956 31.8256C29.1047 30.9113 25.2199 26.5214 25.0847 21.1993L30.3356 14.7815L36.1664 15.3792C33.1105 15.3792 30.6309 17.8588 30.6309 20.9147C30.6309 23.5224 32.4346 25.7067 34.8608 26.2937V26.2901Z" fill="url(#paint0_linear_522_171)"/>
<path id="Vector_5" d="M36.1701 15.3757V9.82593C25.0813 9.82593 18.4714 26.4503 11.335 26.4503V32C22.4238 32 27.9059 15.3757 36.1701 15.3757Z" fill="#DA0C15"/>
<path id="Vector_6" d="M47.2554 20.9111C47.2554 20.9467 47.2554 20.9823 47.2554 21.0178C47.2554 21.0819 47.2554 21.1424 47.2519 21.2064L39.2723 29.5595L36.1702 26.4502C38.8241 26.4502 41.0404 24.5861 41.5812 22.0922C41.663 21.7116 41.7092 21.3167 41.7092 20.9111C41.7092 18.6201 40.3182 16.6528 38.3331 15.8096L39.4467 10.3132C43.9718 11.7113 47.259 15.927 47.259 20.9076L47.2554 20.9111Z" fill="url(#paint1_linear_522_171)"/>
<path id="Vector_7" d="M61.0016 15.3757V9.82593C49.9128 9.82593 43.3029 26.4503 36.1665 26.4503V32C47.2553 32 52.7375 15.3757 61.0016 15.3757Z" fill="#DA0C15"/>
</g>
</g>
</g>
<defs>
<linearGradient id="paint0_linear_522_171" x1="29.2399" y1="18.7659" x2="34.8324" y2="24.9133" gradientUnits="userSpaceOnUse">
<stop offset="0.08" stop-color="#8A1812"/>
<stop offset="0.24" stop-color="#921612"/>
<stop offset="0.5" stop-color="#AA1313"/>
<stop offset="0.82" stop-color="#D10D14"/>
<stop offset="0.89" stop-color="#DA0C15"/>
</linearGradient>
<linearGradient id="paint1_linear_522_171" x1="42.9935" y1="22.448" x2="37.3299" y2="17.6168" gradientUnits="userSpaceOnUse">
<stop offset="0.08" stop-color="#8A1812"/>
<stop offset="0.24" stop-color="#921612"/>
<stop offset="0.5" stop-color="#AA1313"/>
<stop offset="0.82" stop-color="#D10D14"/>
<stop offset="0.89" stop-color="#DA0C15"/>
</linearGradient>
<clipPath id="clip0_522_171">
<rect width="67.5077" height="32" fill="white" transform="translate(0.246094)"/>
</clipPath>
</defs>
</svg>
