<svg width="20" height="20" viewBox="0 0 20 20" fill="none" xmlns="http://www.w3.org/2000/svg">
<g id="border_color">
<mask id="mask0_522_321" style="mask-type:alpha" maskUnits="userSpaceOnUse" x="0" y="0" width="20" height="20">
<rect id="Bounding box" width="20" height="20" fill="#D9D9D9"/>
</mask>
<g mask="url(#mask0_522_321)">
<path id="border_color_2" d="M1.66992 19.9998V16.6664H18.3366V19.9998H1.66992ZM5.00326 13.3331H6.16992L12.6699 6.85394L11.4824 5.66644L5.00326 12.1664V13.3331ZM3.33659 14.9998V11.4581L12.6699 2.14561C12.8227 1.99283 12.9998 1.87478 13.2012 1.79144C13.4026 1.70811 13.6144 1.66644 13.8366 1.66644C14.0588 1.66644 14.2741 1.70811 14.4824 1.79144C14.6908 1.87478 14.8783 1.99978 15.0449 2.16644L16.1908 3.33311C16.3574 3.48589 16.479 3.66644 16.5553 3.87478C16.6317 4.08311 16.6699 4.29839 16.6699 4.52061C16.6699 4.72894 16.6317 4.9338 16.5553 5.13519C16.479 5.33658 16.3574 5.52061 16.1908 5.68728L6.87825 14.9998H3.33659Z" fill="#299CEC"/>
</g>
</g>
</svg>
