<svg width="16" height="12" viewBox="0 0 16 12" fill="none" xmlns="http://www.w3.org/2000/svg">
<path d="M11.5 6H12.5V4.86667L13.4833 5.43333L13.9833 4.56667L13 4L13.9833 3.43333L13.4833 2.56667L12.5 3.13333V2H11.5V3.13333L10.5167 2.56667L10.0167 3.43333L11 4L10.0167 4.56667L10.5167 5.43333L11.5 4.86667V6ZM1.33333 12C0.966667 12 0.652778 11.8694 0.391667 11.6083C0.130556 11.3472 0 11.0333 0 10.6667V1.33333C0 0.966667 0.130556 0.652778 0.391667 0.391667C0.652778 0.130556 0.966667 0 1.33333 0H14.6667C15.0333 0 15.3472 0.130556 15.6083 0.391667C15.8694 0.652778 16 0.966667 16 1.33333V10.6667C16 11.0333 15.8694 11.3472 15.6083 11.6083C15.3472 11.8694 15.0333 12 14.6667 12H1.33333ZM10.6 10.6667H14.6667V1.33333H1.33333V10.6667H1.4C1.86667 9.83333 2.51111 9.18056 3.33333 8.70833C4.15556 8.23611 5.04444 8 6 8C6.95556 8 7.84444 8.23611 8.66667 8.70833C9.48889 9.18056 10.1333 9.83333 10.6 10.6667ZM6 7.33333C6.55556 7.33333 7.02778 7.13889 7.41667 6.75C7.80556 6.36111 8 5.88889 8 5.33333C8 4.77778 7.80556 4.30556 7.41667 3.91667C7.02778 3.52778 6.55556 3.33333 6 3.33333C5.44444 3.33333 4.97222 3.52778 4.58333 3.91667C4.19444 4.30556 4 4.77778 4 5.33333C4 5.88889 4.19444 6.36111 4.58333 6.75C4.97222 7.13889 5.44444 7.33333 6 7.33333ZM3.03333 10.6667H8.96667C8.58889 10.2444 8.14167 9.91667 7.625 9.68333C7.10833 9.45 6.56667 9.33333 6 9.33333C5.43333 9.33333 4.89444 9.45 4.38333 9.68333C3.87222 9.91667 3.42222 10.2444 3.03333 10.6667ZM6 6C5.81111 6 5.65278 5.93611 5.525 5.80833C5.39722 5.68056 5.33333 5.52222 5.33333 5.33333C5.33333 5.14444 5.39722 4.98611 5.525 4.85833C5.65278 4.73056 5.81111 4.66667 6 4.66667C6.18889 4.66667 6.34722 4.73056 6.475 4.85833C6.60278 4.98611 6.66667 5.14444 6.66667 5.33333C6.66667 5.52222 6.60278 5.68056 6.475 5.80833C6.34722 5.93611 6.18889 6 6 6Z" fill="#F7F7F7"/>
</svg>
