<svg width="14" height="11" viewBox="0 0 14 11" fill="none" xmlns="http://www.w3.org/2000/svg">
<path d="M9.99998 3.99996C9.7222 3.99996 9.48609 3.90274 9.29164 3.70829C9.0972 3.51385 8.99998 3.27774 8.99998 2.99996C8.99998 2.72218 9.0972 2.48607 9.29164 2.29163C9.48609 2.09718 9.7222 1.99996 9.99998 1.99996C10.2778 1.99996 10.5139 2.09718 10.7083 2.29163C10.9028 2.48607 11 2.72218 11 2.99996C11 3.27774 10.9028 3.51385 10.7083 3.70829C10.5139 3.90274 10.2778 3.99996 9.99998 3.99996ZM3.99998 3.99996C3.7222 3.99996 3.48609 3.90274 3.29164 3.70829C3.0972 3.51385 2.99998 3.27774 2.99998 2.99996C2.99998 2.72218 3.0972 2.48607 3.29164 2.29163C3.48609 2.09718 3.7222 1.99996 3.99998 1.99996C4.27775 1.99996 4.51386 2.09718 4.70831 2.29163C4.90275 2.48607 4.99998 2.72218 4.99998 2.99996C4.99998 3.27774 4.90275 3.51385 4.70831 3.70829C4.51386 3.90274 4.27775 3.99996 3.99998 3.99996ZM6.99998 5.83329C6.7222 5.83329 6.48609 5.73607 6.29164 5.54163C6.0972 5.34718 5.99998 5.11107 5.99998 4.83329C5.99998 4.55551 6.0972 4.3194 6.29164 4.12496C6.48609 3.93052 6.7222 3.83329 6.99998 3.83329C7.27775 3.83329 7.51386 3.93052 7.70831 4.12496C7.90275 4.3194 7.99998 4.55551 7.99998 4.83329C7.99998 5.11107 7.90275 5.34718 7.70831 5.54163C7.51386 5.73607 7.27775 5.83329 6.99998 5.83329ZM6.99998 2.16663C6.7222 2.16663 6.48609 2.0694 6.29164 1.87496C6.0972 1.68051 5.99998 1.4444 5.99998 1.16663C5.99998 0.888848 6.0972 0.652737 6.29164 0.458293C6.48609 0.263848 6.7222 0.166626 6.99998 0.166626C7.27775 0.166626 7.51386 0.263848 7.70831 0.458293C7.90275 0.652737 7.99998 0.888848 7.99998 1.16663C7.99998 1.4444 7.90275 1.68051 7.70831 1.87496C7.51386 2.0694 7.27775 2.16663 6.99998 2.16663ZM6.99998 10.8333C6.77775 10.8333 6.55275 10.8166 6.32498 10.7833C6.0972 10.75 5.87775 10.7055 5.66664 10.65V8.26663C5.66664 7.87774 5.7972 7.54163 6.05831 7.25829C6.31942 6.97496 6.63331 6.83329 6.99998 6.83329C7.36664 6.83329 7.68053 6.97496 7.94164 7.25829C8.20275 7.54163 8.33331 7.87774 8.33331 8.26663V10.65C8.1222 10.7055 7.90275 10.75 7.67498 10.7833C7.4472 10.8166 7.2222 10.8333 6.99998 10.8333ZM4.66664 10.3C4.44442 10.2111 4.23053 10.1111 4.02498 9.99996C3.81942 9.88885 3.6222 9.76663 3.43331 9.63329C3.1222 9.41107 2.87498 9.12218 2.69164 8.76663C2.50831 8.41107 2.41664 8.03329 2.41664 7.63329C2.41664 7.3444 2.38609 7.07496 2.32498 6.82496C2.26386 6.57496 2.15553 6.33885 1.99998 6.11663C1.88886 5.97218 1.68053 5.75274 1.37498 5.45829C1.06942 5.16385 0.788864 4.88885 0.533309 4.63329C0.411087 4.51107 0.349976 4.35552 0.349976 4.16663C0.349976 3.97774 0.411087 3.82218 0.533309 3.69996C0.655531 3.57774 0.811087 3.51663 0.999976 3.51663C1.18886 3.51663 1.34442 3.57774 1.46664 3.69996L4.01664 6.11663C4.23886 6.31663 4.40275 6.55274 4.50831 6.82496C4.61386 7.09718 4.66664 7.37774 4.66664 7.66663V10.3ZM9.33331 10.3V7.66663C9.33331 7.37774 9.38886 7.0944 9.49998 6.81663C9.61109 6.53885 9.7722 6.30552 9.98331 6.11663L12.5333 3.69996C12.6666 3.57774 12.825 3.51663 13.0083 3.51663C13.1916 3.51663 13.3444 3.57774 13.4666 3.69996C13.5889 3.82218 13.65 3.97774 13.65 4.16663C13.65 4.35552 13.5889 4.51107 13.4666 4.63329C13.2111 4.88885 12.9305 5.16107 12.625 5.44996C12.3194 5.73885 12.1111 5.96107 12 6.11663C11.8444 6.33885 11.7361 6.57496 11.675 6.82496C11.6139 7.07496 11.5833 7.3444 11.5833 7.63329C11.5833 8.03329 11.4916 8.41385 11.3083 8.77496C11.125 9.13607 10.8722 9.42774 10.55 9.64996C10.3722 9.77218 10.1805 9.88885 9.97497 9.99996C9.76942 10.1111 9.55553 10.2111 9.33331 10.3Z" fill="#F7F7F7"/>
</svg>
