<svg width="15" height="16" viewBox="0 0 15 16" fill="none" xmlns="http://www.w3.org/2000/svg">
<path d="M13.1259 1.75037L11.8759 3.00037M11.8759 3.00037L13.7509 4.87537L11.5634 7.06287L9.6884 5.18787M11.8759 3.00037L9.6884 5.18787M7.11965 7.75662C7.44237 8.07503 7.69891 8.45414 7.8745 8.87211C8.0501 9.29008 8.14128 9.73866 8.1428 10.192C8.14432 10.6454 8.05614 11.0945 7.88335 11.5137C7.71056 11.9328 7.45657 12.3136 7.136 12.6342C6.81542 12.9548 6.43461 13.2088 6.01547 13.3816C5.59633 13.5544 5.14715 13.6425 4.6938 13.641C4.24045 13.6395 3.79187 13.5483 3.3739 13.3727C2.95593 13.1971 2.57682 12.9406 2.2584 12.6179C1.63224 11.9695 1.28575 11.1012 1.29359 10.1999C1.30142 9.29862 1.66294 8.43646 2.30028 7.79911C2.93762 7.16177 3.79979 6.80026 4.70109 6.79242C5.60239 6.78459 6.47071 7.13107 7.11903 7.75724L7.11965 7.75662ZM7.11965 7.75662L9.6884 5.18787" stroke="#F7F7F7" stroke-width="1.39286" stroke-linecap="round" stroke-linejoin="round"/>
</svg>
