<svg width="15" height="13" viewBox="0 0 15 13" fill="none" xmlns="http://www.w3.org/2000/svg">
<path d="M5.83728 8.39437L10.5039 5.39437L5.83728 2.39437V8.39437ZM4.83728 12.061V10.7277H2.17061C1.80395 10.7277 1.49006 10.5971 1.22895 10.336C0.967836 10.0749 0.83728 9.76104 0.83728 9.39437V1.39437C0.83728 1.0277 0.967836 0.713813 1.22895 0.452702C1.49006 0.191591 1.80395 0.0610352 2.17061 0.0610352H12.8373C13.2039 0.0610352 13.5178 0.191591 13.7789 0.452702C14.0401 0.713813 14.1706 1.0277 14.1706 1.39437V9.39437C14.1706 9.76104 14.0401 10.0749 13.7789 10.336C13.5178 10.5971 13.2039 10.7277 12.8373 10.7277H10.1706V12.061H4.83728ZM2.17061 9.39437H12.8373V1.39437H2.17061V9.39437Z" fill="#E4F3FC"/>
</svg>
