<svg width="17" height="17" viewBox="0 0 17 17" fill="none" xmlns="http://www.w3.org/2000/svg">
<mask id="mask0_2_35489" style="mask-type:alpha" maskUnits="userSpaceOnUse" x="0" y="0" width="17" height="17">
<rect x="0.753906" y="0.0610352" width="16" height="16" fill="#D9D9D9"/>
</mask>
<g mask="url(#mask0_2_35489)">
<path d="M4.52061 3.16104L3.58728 2.2277C4.24284 1.53881 5.01228 1.00548 5.89561 0.627702C6.77895 0.249924 7.73172 0.0610352 8.75395 0.0610352C9.77617 0.0610352 10.7289 0.249924 11.6123 0.627702C12.4956 1.00548 13.2651 1.53881 13.9206 2.2277L12.9873 3.16104C12.4539 2.60548 11.8234 2.17215 11.0956 1.86104C10.3678 1.54992 9.58728 1.39437 8.75395 1.39437C7.92061 1.39437 7.14006 1.54992 6.41228 1.86104C5.6845 2.17215 5.05395 2.60548 4.52061 3.16104ZM6.38728 5.0277L5.45395 4.09437C5.87617 3.67215 6.36784 3.33881 6.92895 3.09437C7.49006 2.84992 8.09839 2.7277 8.75395 2.7277C9.4095 2.7277 10.0178 2.84992 10.5789 3.09437C11.1401 3.33881 11.6317 3.67215 12.0539 4.09437L11.1206 5.0277C10.8206 4.7277 10.4678 4.49159 10.0623 4.31937C9.65672 4.14715 9.22061 4.06104 8.75395 4.06104C8.28728 4.06104 7.85117 4.14715 7.44561 4.31937C7.04006 4.49159 6.68728 4.7277 6.38728 5.0277ZM8.75395 16.061C8.12061 16.061 7.57339 15.8305 7.11228 15.3694C6.65117 14.9083 6.42061 14.361 6.42061 13.7277V8.36104C6.42061 7.7277 6.65117 7.18048 7.11228 6.71937C7.57339 6.25826 8.12061 6.0277 8.75395 6.0277C9.38728 6.0277 9.9345 6.25826 10.3956 6.71937C10.8567 7.18048 11.0873 7.7277 11.0873 8.36104V13.7277C11.0873 14.361 10.8567 14.9083 10.3956 15.3694C9.9345 15.8305 9.38728 16.061 8.75395 16.061ZM8.75395 9.7277C9.12061 9.7277 9.4345 9.59715 9.69561 9.33604C9.95672 9.07492 10.0873 8.76103 10.0873 8.39437C10.0873 8.0277 9.95672 7.71381 9.69561 7.4527C9.4345 7.19159 9.12061 7.06104 8.75395 7.06104C8.38728 7.06104 8.07339 7.19159 7.81228 7.4527C7.55117 7.71381 7.42061 8.0277 7.42061 8.39437C7.42061 8.76103 7.55117 9.07492 7.81228 9.33604C8.07339 9.59715 8.38728 9.7277 8.75395 9.7277Z" fill="#F7F7F7"/>
</g>
</svg>
