<svg width="10" height="16" viewBox="0 0 10 16" fill="none" xmlns="http://www.w3.org/2000/svg">
<path d="M7.67053 0.727661H2.3372C1.4172 0.727661 0.670532 1.47433 0.670532 2.39433V13.7277C0.670532 14.6477 1.4172 15.3943 2.3372 15.3943H7.67053C8.59053 15.3943 9.3372 14.6477 9.3372 13.7277V2.39433C9.3372 1.47433 8.59053 0.727661 7.67053 0.727661ZM5.00387 14.7277C4.45053 14.7277 4.00387 14.281 4.00387 13.7277C4.00387 13.1743 4.45053 12.7277 5.00387 12.7277C5.5572 12.7277 6.00387 13.1743 6.00387 13.7277C6.00387 14.281 5.5572 14.7277 5.00387 14.7277ZM8.00387 12.061H2.00387V2.72766H8.00387V12.061Z" fill="#E4F3FC"/>
</svg>
