<svg width="14" height="12" viewBox="0 0 14 12" fill="none" xmlns="http://www.w3.org/2000/svg">
<path d="M1.66671 12C1.30004 12 0.986152 11.8694 0.725041 11.6083C0.46393 11.3472 0.333374 11.0333 0.333374 10.6667V0L1.45004 1.11667L2.55004 0L3.66671 1.11667L4.78337 0L5.88337 1.11667L7.00004 0L8.11671 1.11667L9.21671 0L10.3334 1.11667L11.45 0L12.55 1.11667L13.6667 0V10.6667C13.6667 11.0333 13.5362 11.3472 13.275 11.6083C13.0139 11.8694 12.7 12 12.3334 12H1.66671ZM1.66671 10.6667H6.33337V6.66667H1.66671V10.6667ZM7.66671 10.6667H12.3334V9.33333H7.66671V10.6667ZM7.66671 8H12.3334V6.66667H7.66671V8ZM1.66671 5.33333H12.3334V3.33333H1.66671V5.33333Z" fill="#F7F7F7"/>
</svg>
