<svg width="12" height="13" viewBox="0 0 12 13" fill="none" xmlns="http://www.w3.org/2000/svg">
<path d="M1.33724 12.061C0.970573 12.061 0.656684 11.9305 0.395573 11.6694C0.134462 11.4083 0.00390625 11.0944 0.00390625 10.7277V2.7277H9.33724V12.061H1.33724ZM1.33724 10.061H8.00391L5.73724 7.06104L4.00391 9.39437L2.93724 7.96104L1.33724 10.061ZM1.33724 1.39437H0.00390625C0.00390625 1.0277 0.134462 0.713813 0.395573 0.452702C0.656684 0.191591 0.970573 0.0610352 1.33724 0.0610352V1.39437ZM2.67057 1.39437V0.0610352H4.00391V1.39437H2.67057ZM5.33724 1.39437V0.0610352H6.67057V1.39437H5.33724ZM8.00391 1.39437V0.0610352H9.33724V1.39437H8.00391ZM10.6706 1.39437V0.0610352C11.0372 0.0610352 11.3511 0.191591 11.6122 0.452702C11.8734 0.713813 12.0039 1.0277 12.0039 1.39437H10.6706ZM10.6706 10.7277H12.0039C12.0039 11.0944 11.8734 11.4083 11.6122 11.6694C11.3511 11.9305 11.0372 12.061 10.6706 12.061V10.7277ZM10.6706 9.39437V8.06104H12.0039V9.39437H10.6706ZM10.6706 6.7277V5.39437H12.0039V6.7277H10.6706ZM10.6706 4.06104V2.7277H12.0039V4.06104H10.6706Z" fill="#E4F3FC"/>
</svg>
