<svg width="14" height="14" viewBox="0 0 14 14" fill="none" xmlns="http://www.w3.org/2000/svg">
<path d="M1.92061 8.39441C1.55395 8.39441 1.24006 8.26385 0.978947 8.00274C0.717836 7.74163 0.58728 7.42774 0.58728 7.06108C0.58728 6.69441 0.717836 6.38052 0.978947 6.11941C1.24006 5.8583 1.55395 5.72774 1.92061 5.72774C2.28728 5.72774 2.60117 5.8583 2.86228 6.11941C3.12339 6.38052 3.25395 6.69441 3.25395 7.06108C3.25395 7.42774 3.12339 7.74163 2.86228 8.00274C2.60117 8.26385 2.28728 8.39441 1.92061 8.39441ZM3.02061 12.1944L2.08728 11.2611L4.98728 8.36108L5.92061 9.29441L3.02061 12.1944ZM5.02061 5.72774L2.12061 2.82774L3.05395 1.89441L5.95395 4.79441L5.02061 5.72774ZM7.25395 13.7277C6.88728 13.7277 6.57339 13.5972 6.31228 13.3361C6.05117 13.075 5.92061 12.7611 5.92061 12.3944C5.92061 12.0277 6.05117 11.7139 6.31228 11.4527C6.57339 11.1916 6.88728 11.0611 7.25395 11.0611C7.62061 11.0611 7.9345 11.1916 8.19561 11.4527C8.45672 11.7139 8.58728 12.0277 8.58728 12.3944C8.58728 12.7611 8.45672 13.075 8.19561 13.3361C7.9345 13.5972 7.62061 13.7277 7.25395 13.7277ZM7.25395 3.06108C6.88728 3.06108 6.57339 2.93052 6.31228 2.66941C6.05117 2.4083 5.92061 2.09441 5.92061 1.72774C5.92061 1.36108 6.05117 1.04719 6.31228 0.786076C6.57339 0.524965 6.88728 0.394409 7.25395 0.394409C7.62061 0.394409 7.9345 0.524965 8.19561 0.786076C8.45672 1.04719 8.58728 1.36108 8.58728 1.72774C8.58728 2.09441 8.45672 2.4083 8.19561 2.66941C7.9345 2.93052 7.62061 3.06108 7.25395 3.06108ZM9.48728 5.76108L8.55395 4.79441L11.4873 1.89441L12.4206 2.82774L9.48728 5.76108ZM11.4873 12.1944L8.58728 9.29441L9.52061 8.36108L12.4206 11.2611L11.4873 12.1944ZM12.5873 8.39441C12.2206 8.39441 11.9067 8.26385 11.6456 8.00274C11.3845 7.74163 11.2539 7.42774 11.2539 7.06108C11.2539 6.69441 11.3845 6.38052 11.6456 6.11941C11.9067 5.8583 12.2206 5.72774 12.5873 5.72774C12.9539 5.72774 13.2678 5.8583 13.5289 6.11941C13.7901 6.38052 13.9206 6.69441 13.9206 7.06108C13.9206 7.42774 13.7901 7.74163 13.5289 8.00274C13.2678 8.26385 12.9539 8.39441 12.5873 8.39441Z" fill="#E4F3FC"/>
</svg>
