<svg width="14" height="12" viewBox="0 0 14 12" fill="none" xmlns="http://www.w3.org/2000/svg">
<path d="M7.25395 8.06099C7.8095 8.06099 8.28172 7.86655 8.67061 7.47766C9.0595 7.08877 9.25395 6.61655 9.25395 6.06099C9.25395 5.50544 9.0595 5.03322 8.67061 4.64433C8.28172 4.25544 7.8095 4.06099 7.25395 4.06099C6.69839 4.06099 6.22617 4.25544 5.83728 4.64433C5.44839 5.03322 5.25395 5.50544 5.25395 6.06099C5.25395 6.61655 5.44839 7.08877 5.83728 7.47766C6.22617 7.86655 6.69839 8.06099 7.25395 8.06099ZM10.5539 9.36099C10.9984 8.91655 11.3373 8.411 11.5706 7.84433C11.8039 7.27766 11.9206 6.68322 11.9206 6.06099C11.9206 5.43877 11.8039 4.84433 11.5706 4.27766C11.3373 3.71099 10.9984 3.20544 10.5539 2.76099L9.62061 3.69433C9.94284 4.01655 10.1845 4.38044 10.3456 4.78599C10.5067 5.19155 10.5873 5.61655 10.5873 6.06099C10.5873 6.50544 10.5067 6.93044 10.3456 7.33599C10.1845 7.74155 9.94284 8.10544 9.62061 8.42766L10.5539 9.36099ZM3.95395 9.36099L4.88728 8.42766C4.56506 8.10544 4.32339 7.74155 4.16228 7.33599C4.00117 6.93044 3.92061 6.50544 3.92061 6.06099C3.92061 5.61655 4.00117 5.19155 4.16228 4.78599C4.32339 4.38044 4.56506 4.01655 4.88728 3.69433L3.95395 2.76099C3.5095 3.20544 3.17061 3.71099 2.93728 4.27766C2.70395 4.84433 2.58728 5.43877 2.58728 6.06099C2.58728 6.68322 2.70395 7.27766 2.93728 7.84433C3.17061 8.411 3.5095 8.91655 3.95395 9.36099ZM1.92061 11.3943C1.55395 11.3943 1.24006 11.2638 0.978947 11.0027C0.717836 10.7416 0.58728 10.4277 0.58728 10.061V2.06099C0.58728 1.69433 0.717836 1.38044 0.978947 1.11933C1.24006 0.858217 1.55395 0.727661 1.92061 0.727661H12.5873C12.9539 0.727661 13.2678 0.858217 13.5289 1.11933C13.7901 1.38044 13.9206 1.69433 13.9206 2.06099V10.061C13.9206 10.4277 13.7901 10.7416 13.5289 11.0027C13.2678 11.2638 12.9539 11.3943 12.5873 11.3943H1.92061ZM1.92061 10.061H12.5873V2.06099H1.92061V10.061Z" fill="#F7F7F7"/>
</svg>
