<svg width="11" height="14" viewBox="0 0 11 14" fill="none" xmlns="http://www.w3.org/2000/svg">
<path d="M5.50395 8.72766C6.61061 8.72766 7.50395 7.83433 7.50395 6.72766V2.72766C7.50395 1.62099 6.61061 0.727661 5.50395 0.727661C4.39728 0.727661 3.50395 1.62099 3.50395 2.72766V6.72766C3.50395 7.83433 4.39728 8.72766 5.50395 8.72766Z" fill="#F7F7F7"/>
<path d="M8.83728 6.72766C8.83728 8.56766 7.34395 10.061 5.50395 10.061C3.66395 10.061 2.17061 8.56766 2.17061 6.72766H0.83728C0.83728 9.081 2.57728 11.0143 4.83728 11.341V13.3943H6.17061V11.341C8.43061 11.0143 10.1706 9.081 10.1706 6.72766H8.83728Z" fill="#F7F7F7"/>
</svg>
