<svg width="68" height="32" viewBox="0 0 68 32" fill="none" xmlns="http://www.w3.org/2000/svg">
<g id="Dor Logo_Red 1" clip-path="url(#clip0_1_13)">
<g id="Layer 1">
<g id="Group">
<path id="Vector" d="M47.2518 20.6444C47.2518 20.5803 47.2518 20.5234 47.2447 20.4594C47.2447 20.4558 47.2447 20.4487 47.2447 20.4451C47.2376 20.2637 47.2269 20.0894 47.2091 19.908C47.1878 19.6732 47.1629 19.4419 47.1273 19.2107C47.1131 19.1182 47.0953 19.0221 47.0811 18.9332C47.0419 18.7269 47.0028 18.5205 46.953 18.3177C46.953 18.3106 46.953 18.3035 46.9494 18.2964C46.9174 18.1612 46.8818 18.026 46.8427 17.8944C46.8143 17.7912 46.7858 17.6916 46.7538 17.592C46.7182 17.4782 46.6791 17.3608 46.6399 17.2469C46.5546 17.0015 46.4621 16.7595 46.3589 16.5212C46.3198 16.4287 46.2771 16.3362 46.2344 16.2437C46.1846 16.137 46.1348 16.0302 46.0814 15.9235C46.028 15.8132 45.9747 15.7065 45.9142 15.6033C45.8679 15.518 45.8217 15.4326 45.7719 15.3472C45.7612 15.3294 45.7505 15.3081 45.7399 15.2903C45.6794 15.1871 45.6189 15.0875 45.5549 14.9879C45.4944 14.8918 45.4339 14.7993 45.3735 14.7068C45.2596 14.5361 45.1387 14.3689 45.0141 14.2052C44.9679 14.1412 44.9181 14.0772 44.8647 14.0131C44.8291 13.9669 44.7936 13.9171 44.7509 13.8708C44.6726 13.7748 44.5908 13.6787 44.509 13.5827C44.4129 13.4759 44.3169 13.3657 44.2173 13.2625C44.139 13.1771 44.0536 13.0953 43.9718 13.0099C43.9255 12.9601 43.8757 12.9138 43.8259 12.8676C43.7726 12.8142 43.7192 12.7644 43.6623 12.7146C43.6231 12.6791 43.5876 12.647 43.5484 12.6115C43.488 12.5581 43.431 12.5047 43.367 12.4549C43.3208 12.4122 43.271 12.3731 43.2247 12.3375C43.1286 12.2557 43.029 12.1774 42.9294 12.0992C42.8227 12.0138 42.7124 11.932 42.5986 11.8537C42.5737 11.8359 42.5488 11.8181 42.5203 11.8003C42.442 11.7434 42.3638 11.6901 42.282 11.6367C42.2393 11.6082 42.1966 11.5798 42.1539 11.5513C42.0721 11.498 41.9867 11.4446 41.9013 11.3948C41.8764 11.377 41.8479 11.3628 41.823 11.345C41.7305 11.2916 41.638 11.2383 41.5455 11.1884C41.5135 11.1671 41.478 11.1493 41.4424 11.1315C41.325 11.0675 41.204 11.0035 41.0866 10.9465C40.9835 10.8932 40.8803 10.8469 40.7736 10.8007C40.7024 10.7687 40.6348 10.7366 40.5601 10.7082C40.4961 10.6797 40.432 10.6513 40.368 10.6264C40.3253 10.605 40.2791 10.5872 40.2328 10.573C40.1261 10.5267 40.0158 10.4841 39.902 10.4485C39.8913 10.4414 39.8735 10.4378 39.8593 10.4307C39.7241 10.3844 39.5889 10.3382 39.4502 10.2955C38.4149 9.97533 37.3156 9.80457 36.1737 9.80457C36.0883 9.80457 36.0029 9.80457 35.9175 9.80812H35.9104C35.0566 9.82591 34.2313 9.94331 33.4344 10.1461C33.3134 10.1781 33.1925 10.2101 33.0715 10.2421C32.9328 10.2813 32.794 10.3275 32.6553 10.3738C28.2546 11.843 25.0848 15.9982 25.0848 20.8898C25.0848 20.9859 25.0848 21.0819 25.0884 21.178C25.1062 21.8433 25.1809 22.4907 25.309 23.1204C25.3374 23.2627 25.3694 23.3979 25.4015 23.5331C25.4335 23.6718 25.4726 23.8035 25.5082 23.9386C25.5473 24.0738 25.5865 24.2055 25.6291 24.3406C25.6718 24.4723 25.7181 24.6039 25.7679 24.732C25.807 24.8351 25.8426 24.9348 25.8853 25.0308C25.9031 25.0771 25.9244 25.1269 25.9422 25.1731C25.9707 25.2443 26.0027 25.319 26.0347 25.3901C26.0632 25.4542 26.0881 25.5111 26.1165 25.5715C26.1663 25.6818 26.2197 25.7886 26.2731 25.8988C26.3193 25.9878 26.3656 26.0767 26.4118 26.1657C26.4332 26.2048 26.4545 26.2439 26.4758 26.2831C26.5328 26.3827 26.5897 26.4823 26.6466 26.5783C26.7782 26.7989 26.917 27.0159 27.0628 27.2222C27.0949 27.2685 27.1304 27.3183 27.1624 27.3645C27.2763 27.5211 27.3937 27.6776 27.5146 27.827C27.5502 27.8733 27.5858 27.9195 27.6285 27.9658C27.6854 28.0369 27.7423 28.1045 27.7992 28.1721L27.906 28.2895C27.9664 28.3571 28.0269 28.4247 28.0874 28.4887C28.1372 28.5421 28.187 28.5919 28.2404 28.6453C28.3186 28.7306 28.404 28.8125 28.4894 28.8943C28.557 28.9583 28.621 29.0224 28.6922 29.0828C28.774 29.1611 28.8558 29.2323 28.9377 29.2998C28.9875 29.3461 29.0408 29.3888 29.0906 29.4279C29.1582 29.4848 29.2223 29.5382 29.2898 29.5916C29.3325 29.6236 29.3752 29.6592 29.4179 29.6912C29.4962 29.7552 29.578 29.8121 29.6598 29.8726C29.7701 29.9509 29.8804 30.0291 29.9942 30.1038C30.0761 30.1572 30.1579 30.2106 30.2397 30.2639C30.4034 30.3707 30.5706 30.4703 30.7413 30.5663C30.8445 30.6232 30.9441 30.6802 31.0473 30.7335C31.1682 30.7976 31.2892 30.858 31.4137 30.915C31.5524 30.9826 31.6912 31.043 31.8335 31.1035C31.9295 31.1462 32.0256 31.1853 32.1216 31.2209C32.2675 31.2778 32.4169 31.3348 32.5663 31.3846C32.6837 31.4237 32.8011 31.4628 32.9185 31.4984C32.9505 31.5126 32.9861 31.5197 33.0217 31.5304C33.1249 31.5624 33.2245 31.5909 33.3241 31.6158C33.3561 31.6265 33.3881 31.6336 33.4166 31.6407C33.534 31.6727 33.6514 31.6976 33.7688 31.7261C33.7723 31.7261 33.7759 31.7261 33.783 31.7261C33.9182 31.7545 34.0534 31.783 34.1886 31.8079C34.8289 31.9217 35.4871 31.9822 36.163 31.9822C36.7678 31.9822 37.3583 31.9324 37.9311 31.8399C38.6711 31.7225 39.3897 31.534 40.0727 31.2672C40.2684 31.196 40.4641 31.1142 40.6562 31.0324C44.4556 29.3461 47.1309 25.5858 47.2412 21.1887C47.2412 21.1246 47.2447 21.0642 47.2447 21.0001C47.2447 20.9645 47.2447 20.929 47.2447 20.8934C47.2447 20.8045 47.2447 20.7155 47.2412 20.6266L47.2518 20.6444ZM34.8609 26.2902C32.4347 25.7032 30.631 23.5189 30.631 20.9112C30.631 20.5412 30.6666 20.1819 30.7378 19.8332C30.7449 19.7834 30.7556 19.7336 30.7698 19.6838C30.7805 19.6305 30.7911 19.5807 30.8089 19.5309C30.8374 19.4206 30.8658 19.3138 30.9014 19.2071C30.9228 19.1395 30.9441 19.0755 30.969 19.0115C30.9975 18.9403 31.0224 18.8692 31.0508 18.798C31.0686 18.7553 31.0864 18.7162 31.1042 18.6735C31.1255 18.6237 31.1469 18.5739 31.1718 18.5241C31.1753 18.5134 31.1825 18.5027 31.186 18.4921C31.2216 18.4174 31.2572 18.3462 31.2999 18.2715C31.339 18.1932 31.3817 18.1185 31.4279 18.0438C31.4315 18.0367 31.435 18.0296 31.4422 18.026C31.4813 17.962 31.5204 17.898 31.5631 17.8375C31.5773 17.8161 31.5916 17.7948 31.6058 17.777C31.6414 17.7236 31.677 17.6703 31.7196 17.6205C31.7303 17.6027 31.741 17.5884 31.7552 17.5742C31.7908 17.5244 31.8264 17.4746 31.8726 17.4284C31.8904 17.3999 31.9153 17.3714 31.9402 17.3465C31.9793 17.3003 32.0185 17.254 32.0612 17.2078C32.0683 17.1971 32.0754 17.19 32.0825 17.1793C32.1323 17.1224 32.1857 17.069 32.2355 17.0157C32.2497 17.0015 32.2568 16.9943 32.2711 16.9837C32.328 16.9267 32.3885 16.8663 32.4489 16.8129C32.4952 16.7667 32.545 16.724 32.5948 16.6848C32.6268 16.6564 32.6588 16.6279 32.6908 16.603C32.7158 16.5817 32.7442 16.5603 32.7691 16.539C32.8118 16.5034 32.8581 16.4714 32.9007 16.4394C32.9221 16.4216 32.947 16.4038 32.9719 16.3896C33.0146 16.3575 33.0573 16.3255 33.1035 16.2971C33.1427 16.2722 33.1818 16.2437 33.2209 16.2224C33.3988 16.1085 33.5802 16.0089 33.7723 15.9164C33.8257 15.8879 33.8791 15.863 33.936 15.8417C34.2064 15.7207 34.491 15.6211 34.7862 15.5464C34.8574 15.5286 34.9285 15.5108 34.9997 15.4966C35.1064 15.4717 35.2167 15.4539 35.327 15.4361C35.4977 15.4077 35.6721 15.3899 35.8535 15.3792C35.8713 15.3792 35.8926 15.3792 35.9104 15.3792C35.9994 15.3757 36.0847 15.3721 36.1737 15.3721C36.9385 15.3721 37.6678 15.5286 38.3331 15.8097C40.3182 16.6528 41.7092 18.6201 41.7092 20.9112C41.7092 21.3167 41.6665 21.7116 41.5811 22.0923C41.5278 22.3342 41.4602 22.569 41.3783 22.7967C41.3641 22.8394 41.3463 22.8856 41.3321 22.9247C41.3143 22.971 41.2965 23.0137 41.2787 23.0564C41.2574 23.1133 41.2289 23.1738 41.2005 23.2271C41.172 23.2912 41.1435 23.3552 41.108 23.4157C41.076 23.4833 41.0404 23.5473 41.0048 23.6113C41.0012 23.622 40.9941 23.6327 40.987 23.6434C40.955 23.7038 40.9194 23.7608 40.8838 23.8212C40.802 23.9529 40.7166 24.0809 40.6241 24.2019C40.5779 24.2659 40.5317 24.3229 40.4818 24.3833C40.4356 24.4403 40.3894 24.4972 40.336 24.5541C40.336 24.5577 40.336 24.5612 40.3289 24.5612C40.2826 24.6181 40.2293 24.6751 40.1759 24.7284C40.1332 24.7747 40.0905 24.8174 40.0443 24.86C39.9945 24.9098 39.9411 24.9561 39.8913 25.0059C39.8593 25.0379 39.8237 25.0699 39.7881 25.0984C39.6423 25.2265 39.4929 25.3439 39.3328 25.4542C39.3292 25.4577 39.3221 25.4613 39.315 25.4648C39.2687 25.4968 39.2189 25.5324 39.1691 25.5609C39.1193 25.5929 39.0659 25.6249 39.0161 25.6569C38.9628 25.6889 38.913 25.721 38.8596 25.7494C38.6284 25.8775 38.3865 25.9913 38.1339 26.0838C38.0947 26.1016 38.0556 26.1123 38.0165 26.1265C37.8279 26.1941 37.6358 26.2475 37.4402 26.2937C37.401 26.3044 37.3619 26.3115 37.3263 26.3222C37.2658 26.3364 37.2054 26.3471 37.1449 26.3578C37.1022 26.3649 37.0559 26.372 37.0133 26.3791C36.9208 26.3933 36.8283 26.404 36.7358 26.4147C36.7144 26.4147 36.6931 26.4182 36.6717 26.4182C36.629 26.4218 36.5828 26.4254 36.5401 26.4289C36.5259 26.4289 36.5188 26.4325 36.5045 26.4325C36.4512 26.436 36.3978 26.436 36.3444 26.4396C36.2875 26.4396 36.227 26.4431 36.1701 26.4431C35.7183 26.4431 35.2807 26.3898 34.8609 26.2866V26.2902Z" fill="#FA2E19"/>
<path id="Vector_2" d="M16.8705 0V11.3023C15.2412 10.3595 13.3521 9.82235 11.335 9.82235C5.21247 9.82235 0.246155 14.7887 0.246155 20.9112C0.246155 27.0337 5.21247 32 11.335 32C11.431 32 11.5271 32 11.6231 31.9964C11.7583 31.9964 11.8935 31.9893 12.0287 31.9787C12.0856 31.9787 12.1425 31.9715 12.1959 31.9644C12.3346 31.9573 12.4734 31.9431 12.6121 31.9253C12.7153 31.9111 12.8185 31.9004 12.9181 31.8862C12.9821 31.8755 13.0426 31.8684 13.1066 31.8577C13.996 31.719 14.8463 31.4699 15.6538 31.132C15.7357 31.0964 15.821 31.0608 15.8993 31.0252C19.7485 29.2856 22.4238 25.415 22.4238 20.9147V0H16.8741H16.8705ZM11.6694 26.436C11.6445 26.436 11.616 26.4396 11.5911 26.4396C11.5057 26.4431 11.4204 26.4467 11.335 26.4467C8.27906 26.4467 5.79946 23.9707 5.79946 20.9112C5.79946 17.8517 8.27906 15.3757 11.335 15.3757C14.3909 15.3757 16.8705 17.8553 16.8705 20.9112C16.8705 22.7931 15.9313 24.458 14.4941 25.4577C14.4941 25.4577 14.487 25.4613 14.4834 25.4648C13.6758 26.0269 12.7117 26.3755 11.6694 26.436Z" fill="#FA2E19"/>
<path id="Vector_3" d="M67.7539 12.117L64.8972 16.9801C63.8975 15.984 62.5243 15.3757 61.0017 15.3757C60.9127 15.3757 60.8274 15.3757 60.7384 15.3828C60.7206 15.3828 60.7064 15.3828 60.6886 15.3828C57.7786 15.5464 55.4626 17.9584 55.4626 20.9112V32H49.9129V20.9112C49.9129 15.8417 53.3174 11.562 57.9671 10.2457C57.9849 10.2386 58.0062 10.235 58.024 10.2279C58.8921 9.986 59.8028 9.84726 60.742 9.82591C60.8309 9.82236 60.9127 9.82236 61.0017 9.82236C63.5453 9.82236 65.8826 10.6797 67.7539 12.117Z" fill="#FA2E19"/>
<path id="Vector_4" d="M34.8609 26.2902L34.1957 31.8257C29.1049 30.9114 25.22 26.5214 25.0848 21.1993L30.3358 14.7816L36.1666 15.3792C33.1106 15.3792 30.631 17.8588 30.631 20.9147C30.631 23.5224 32.4347 25.7067 34.8609 26.2937V26.2902Z" fill="url(#paint0_linear_1_13)"/>
<path id="Vector_5" d="M36.1701 15.3756V9.8259C25.0813 9.8259 18.4714 26.4502 11.335 26.4502V32C22.4238 32 27.906 15.3756 36.1701 15.3756Z" fill="#FA2E19"/>
<path id="Vector_6" d="M47.2554 20.9112C47.2554 20.9468 47.2554 20.9823 47.2554 21.0179C47.2554 21.0819 47.2554 21.1424 47.2518 21.2065L39.2723 29.5595L36.1701 26.4503C38.824 26.4503 41.0404 24.5861 41.5811 22.0923C41.6629 21.7116 41.7092 21.3167 41.7092 20.9112C41.7092 18.6201 40.3182 16.6528 38.3331 15.8097L39.4466 10.3133C43.9718 11.7114 47.2589 15.9271 47.2589 20.9076L47.2554 20.9112Z" fill="url(#paint1_linear_1_13)"/>
<path id="Vector_7" d="M61.0017 15.3756V9.8259C49.9129 9.8259 43.303 26.4502 36.1666 26.4502V32C47.2554 32 52.7375 15.3756 61.0017 15.3756Z" fill="#FA2E19"/>
</g>
</g>
</g>
<defs>
<linearGradient id="paint0_linear_1_13" x1="29.24" y1="18.766" x2="34.8325" y2="24.9134" gradientUnits="userSpaceOnUse">
<stop offset="0.08" stop-color="#8A1812"/>
<stop offset="0.24" stop-color="#921612"/>
<stop offset="0.5" stop-color="#AA1313"/>
<stop offset="0.82" stop-color="#D10D14"/>
<stop offset="0.89" stop-color="#DA0C15"/>
</linearGradient>
<linearGradient id="paint1_linear_1_13" x1="42.9935" y1="22.448" x2="37.3299" y2="17.6169" gradientUnits="userSpaceOnUse">
<stop offset="0.08" stop-color="#8A1812"/>
<stop offset="0.24" stop-color="#921612"/>
<stop offset="0.5" stop-color="#AA1313"/>
<stop offset="0.82" stop-color="#D10D14"/>
<stop offset="0.89" stop-color="#DA0C15"/>
</linearGradient>
<clipPath id="clip0_1_13">
<rect width="67.5077" height="32" fill="white" transform="translate(0.246155)"/>
</clipPath>
</defs>
</svg>
