<svg width="140" height="40" viewBox="0 0 140 40" fill="none" xmlns="http://www.w3.org/2000/svg">
<g clip-path="url(#clip0_509_40388)">
<path d="M76.0285 9.35876C70.1657 9.35876 65.4114 14.113 65.4114 19.9758C65.4114 19.9783 65.4114 19.9832 65.4114 19.9857V39.998H68.9586V27.8955C70.8357 29.5731 73.3138 30.5929 76.0285 30.5929C81.8937 30.5929 86.6455 25.8386 86.6455 19.9758C86.6455 14.113 81.8912 9.35876 76.0285 9.35876ZM76.0285 26.9521C72.1758 26.9521 69.0522 23.831 69.0522 19.9783C69.0522 16.1256 72.1758 13.0021 76.0285 13.0021C79.8811 13.0021 83.0047 16.1256 83.0047 19.9783C83.0047 23.831 79.8811 26.9521 76.0285 26.9521Z" fill="#EC1F1C"/>
<path d="M92.3803 0.000244141H88.8331V30.5927H92.3803V0.000244141Z" fill="#EC1F1C"/>
<path d="M139.654 10.778H136.013V19.9786C136.013 23.8337 132.892 26.9548 129.037 26.9548C125.182 26.9548 122.061 23.8313 122.061 19.9786V10.7804H118.42V19.9687C118.42 19.9687 118.42 19.9761 118.42 19.9811C118.42 25.8463 123.174 30.5981 129.037 30.5981C131.707 30.5981 134.148 29.6128 136.013 27.9845V29.3862C136.013 33.2413 132.892 36.3624 129.037 36.3624C127.101 36.3624 125.349 35.5741 124.088 34.303L122.204 37.5103C124.051 39.0672 126.436 40.0032 129.039 40.0032C134.836 40.0032 139.548 35.3598 139.656 29.5882V10.778H139.654Z" fill="#EC1F1C"/>
<path d="M105.414 9.35876C99.5513 9.35876 94.797 14.113 94.797 19.9758C94.797 25.8386 99.5513 30.5929 105.414 30.5929C108.131 30.5929 110.609 29.5755 112.486 27.8955V30.5929H116.034V19.9758C116.034 14.113 111.279 9.35876 105.417 9.35876H105.414ZM105.414 26.9521C101.564 26.9521 98.4403 23.831 98.4403 19.9783C98.4403 16.1256 101.564 13.0021 105.414 13.0021C109.264 13.0021 112.39 16.1256 112.39 19.9783C112.39 23.831 109.269 26.9521 105.414 26.9521Z" fill="#EC1F1C"/>
<path d="M45.0128 19.7691C45.0128 19.71 45.0128 19.6509 45.0078 19.5918C45.0078 19.5869 45.0078 19.5819 45.0078 19.577C45.0029 19.4046 44.9906 19.2346 44.9734 19.0646C44.9536 18.8405 44.9265 18.6188 44.8945 18.3995C44.8797 18.3108 44.865 18.2197 44.8477 18.1335C44.8108 17.9339 44.7714 17.7369 44.7246 17.5447C44.7246 17.5398 44.7246 17.53 44.7196 17.525C44.6876 17.3969 44.6531 17.2664 44.6186 17.1383C44.5915 17.0397 44.562 16.9461 44.5324 16.8501C44.4979 16.7417 44.461 16.6284 44.424 16.52C44.3427 16.286 44.2541 16.0519 44.1531 15.8253C44.1161 15.7366 44.0767 15.6479 44.0348 15.5617C43.988 15.4583 43.9387 15.3573 43.887 15.2563C43.8353 15.1503 43.7835 15.0493 43.7269 14.9508C43.6826 14.8695 43.6382 14.7882 43.5889 14.7069C43.5791 14.6897 43.5692 14.67 43.5569 14.6527C43.5003 14.5542 43.4387 14.4581 43.3796 14.3621C43.3229 14.2709 43.2638 14.1822 43.2047 14.0936C43.0963 13.931 42.9805 13.7684 42.8598 13.6132C42.813 13.5516 42.7662 13.49 42.7169 13.4309C42.6824 13.3841 42.6479 13.3398 42.6085 13.2954C42.5322 13.2018 42.4558 13.1107 42.377 13.022C42.2858 12.9185 42.1922 12.8151 42.0961 12.7165C42.0198 12.6353 41.941 12.5564 41.8597 12.4751C41.8129 12.4283 41.7685 12.384 41.7193 12.3397C41.6675 12.2904 41.6158 12.2411 41.5641 12.1943C41.5271 12.1598 41.4926 12.1278 41.4557 12.0958C41.399 12.0441 41.3424 11.9948 41.2832 11.9455C41.2364 11.9061 41.1921 11.8692 41.1453 11.8322C41.0541 11.7558 40.9581 11.6795 40.862 11.6056C40.7585 11.5243 40.6526 11.4455 40.5467 11.3716C40.5221 11.3568 40.4999 11.3371 40.4728 11.3223C40.3989 11.2681 40.3225 11.2164 40.2462 11.1671C40.2068 11.14 40.1649 11.1129 40.123 11.0858C40.0442 11.0341 39.9629 10.9848 39.8816 10.9355C39.857 10.9208 39.8323 10.9035 39.8052 10.8887C39.7165 10.837 39.6279 10.7853 39.5392 10.7385C39.5072 10.7188 39.4727 10.7015 39.4406 10.6818C39.3273 10.6202 39.214 10.5611 39.0982 10.5045C38.9997 10.4552 38.8987 10.4084 38.7977 10.364C38.7312 10.332 38.6647 10.3025 38.5957 10.2754C38.5341 10.2483 38.4725 10.2212 38.411 10.199C38.3691 10.1793 38.3247 10.162 38.2829 10.1473C38.1794 10.1029 38.0735 10.0635 37.9676 10.029C37.9552 10.0241 37.9429 10.0192 37.9281 10.0142C37.8001 9.96744 37.667 9.92556 37.5365 9.88615C36.5462 9.58069 35.4919 9.41565 34.4006 9.41565C34.3193 9.41565 34.238 9.41565 34.1567 9.42058H34.1518C33.334 9.43782 32.5432 9.54867 31.7821 9.74574C31.6663 9.7753 31.5505 9.80486 31.4372 9.83935C31.3042 9.8763 31.1712 9.92064 31.0381 9.96498C26.8233 11.3716 23.786 15.3499 23.786 20.0352C23.786 20.1263 23.786 20.2175 23.7909 20.3086C23.8057 20.9442 23.8796 21.5649 24.0028 22.1709V22.1758C24.0299 22.3064 24.0594 22.437 24.0915 22.5651C24.1235 22.6956 24.158 22.8262 24.1949 22.9518C24.2319 23.0799 24.2713 23.208 24.3132 23.3361C24.355 23.4617 24.3994 23.5873 24.4437 23.713C24.4807 23.8115 24.5152 23.9051 24.5546 23.9987C24.5694 24.0455 24.5915 24.0899 24.6112 24.1367C24.6383 24.2056 24.6679 24.2771 24.6999 24.3436C24.727 24.4027 24.7516 24.4618 24.7787 24.5185C24.8255 24.6244 24.8773 24.7279 24.929 24.8313C24.9733 24.9176 25.0177 25.0013 25.062 25.0851C25.0817 25.122 25.1014 25.1614 25.1236 25.1984C25.1778 25.2945 25.232 25.3905 25.2887 25.4817C25.4143 25.6935 25.5473 25.9004 25.6877 26.0975C25.7197 26.1443 25.7518 26.1887 25.7838 26.233C25.8922 26.3833 26.0055 26.5335 26.1213 26.6764C26.1558 26.7207 26.1902 26.7651 26.2297 26.807C26.2839 26.8735 26.3381 26.94 26.3947 27.004L26.4957 27.1173C26.5524 27.1838 26.6115 27.2454 26.6706 27.3095C26.7174 27.3612 26.7667 27.408 26.8159 27.4597C26.8923 27.541 26.9736 27.6199 27.0549 27.6987C27.1189 27.7603 27.183 27.8194 27.247 27.8785C27.3234 27.9524 27.4022 28.0214 27.481 28.0879C27.5279 28.1322 27.5796 28.1717 27.6264 28.2111C27.6904 28.2653 27.7545 28.317 27.8185 28.3663C27.8604 28.3983 27.8998 28.4303 27.9417 28.4623C28.0181 28.5215 28.0944 28.5806 28.1733 28.6372C28.2792 28.7136 28.3851 28.7875 28.4935 28.8589C28.5699 28.9107 28.6487 28.9624 28.7275 29.0117C28.8852 29.1127 29.0453 29.2087 29.2079 29.2999C29.3064 29.3541 29.4025 29.4083 29.501 29.46C29.6168 29.5216 29.7326 29.5782 29.8508 29.6349C29.9838 29.6989 30.1168 29.7581 30.2523 29.8147C30.3435 29.8541 30.4346 29.8911 30.5258 29.928C30.6662 29.9847 30.809 30.0364 30.9519 30.0857C31.0628 30.1226 31.1761 30.1596 31.2894 30.1941C31.3214 30.2064 31.3534 30.2162 31.3879 30.2236C31.4865 30.2532 31.5801 30.2803 31.6786 30.3049C31.7082 30.3148 31.7377 30.3197 31.7673 30.3296C31.8806 30.3591 31.9915 30.3862 32.1048 30.4108C32.1097 30.4108 32.1122 30.4108 32.1171 30.4108C32.2452 30.4379 32.3757 30.465 32.5063 30.4872C33.1197 30.5956 33.7503 30.6547 34.3957 30.6547C34.977 30.6547 35.5412 30.6079 36.0905 30.5168C36.7999 30.4059 37.4897 30.2236 38.1425 29.9699C38.3297 29.9009 38.5169 29.8246 38.7016 29.7457C42.34 28.1298 44.8995 24.5283 45.0078 20.3185C45.0078 20.2593 45.0128 20.2002 45.0128 20.1386C45.0128 20.1042 45.0128 20.0697 45.0128 20.0352C45.0128 19.949 45.0128 19.8652 45.0078 19.7815L45.0128 19.7691ZM33.1468 25.1737C30.8238 24.6121 29.097 22.5207 29.097 20.0229C29.097 19.6681 29.1315 19.3257 29.198 18.9907C29.2054 18.9439 29.2153 18.8946 29.2276 18.8478C29.2374 18.7986 29.2497 18.7493 29.2645 18.7025C29.2916 18.5966 29.3212 18.4931 29.3532 18.3921C29.3729 18.3281 29.3951 18.264 29.4172 18.2024C29.4443 18.1335 29.469 18.0645 29.4961 18.0005C29.5109 17.961 29.5306 17.9216 29.5478 17.8822C29.5675 17.8354 29.5897 17.7861 29.6143 17.7393C29.6192 17.7295 29.6242 17.7196 29.6291 17.7098C29.6636 17.6383 29.6981 17.5694 29.7375 17.4979C29.7744 17.424 29.8163 17.3526 29.8607 17.2812C29.8656 17.2762 29.868 17.2688 29.873 17.2639C29.9099 17.2023 29.9469 17.1432 29.9887 17.0841C30.0035 17.0644 30.0134 17.0447 30.0282 17.0274C30.0626 16.9757 30.0971 16.9264 30.1365 16.8772C30.1464 16.8624 30.1563 16.8476 30.171 16.8304C30.2055 16.7836 30.24 16.7343 30.2819 16.6899C30.2991 16.6653 30.3213 16.6358 30.3459 16.6111C30.3829 16.5643 30.4223 16.5224 30.4642 16.4781C30.4691 16.4682 30.479 16.4609 30.4863 16.4535C30.5331 16.3993 30.5849 16.3475 30.6341 16.2983C30.6465 16.286 30.6563 16.2761 30.6686 16.2662C30.7228 16.2096 30.7795 16.1554 30.8386 16.1037C30.8854 16.0593 30.9322 16.0174 30.979 15.9805C31.0086 15.9534 31.0406 15.9263 31.0726 15.9041C31.0973 15.882 31.1219 15.8623 31.149 15.845C31.1909 15.8105 31.2327 15.7785 31.2771 15.7489C31.2993 15.7317 31.3214 15.7145 31.3436 15.7021C31.3855 15.6701 31.4249 15.6406 31.4692 15.6135C31.5062 15.5888 31.5431 15.5642 31.5825 15.542C31.7525 15.4336 31.9274 15.3376 32.1097 15.2489C32.1614 15.2242 32.2132 15.1996 32.2649 15.1774C32.526 15.0617 32.797 14.9656 33.0778 14.8942C33.1443 14.8769 33.2133 14.8597 33.2823 14.8474C33.3857 14.8227 33.4892 14.8055 33.5951 14.7907C33.7601 14.7661 33.9277 14.7464 34.0976 14.7365C34.1149 14.7365 34.1346 14.7365 34.1518 14.7365C34.2356 14.7316 34.3193 14.7316 34.4031 14.7316C35.1372 14.7316 35.8343 14.8818 36.4723 15.1503C38.374 15.9583 39.7067 17.8403 39.7067 20.0352C39.7067 20.4219 39.6648 20.8013 39.586 21.1659C39.5367 21.3974 39.4702 21.6216 39.3914 21.8408C39.3766 21.8827 39.3618 21.9246 39.3446 21.964C39.3298 22.0083 39.3101 22.0502 39.2928 22.0921C39.2707 22.1487 39.246 22.2029 39.2189 22.2571C39.1943 22.3187 39.1623 22.3778 39.1303 22.437C39.1007 22.501 39.0662 22.5626 39.0317 22.6242C39.0268 22.634 39.0219 22.6463 39.0145 22.6562C38.9849 22.7129 38.9504 22.7695 38.916 22.8262C38.8396 22.9518 38.7558 23.075 38.6672 23.1932C38.6228 23.2523 38.5785 23.3115 38.5317 23.3681C38.4873 23.4248 38.443 23.4765 38.3913 23.5307C38.3913 23.5356 38.3913 23.5356 38.3863 23.5381C38.3395 23.5947 38.2903 23.6465 38.2385 23.6982C38.1991 23.7425 38.1572 23.7844 38.1129 23.8263C38.0661 23.8731 38.0144 23.9199 37.9651 23.9667C37.9331 23.9963 37.8986 24.0258 37.8666 24.0554C37.7262 24.1761 37.5833 24.2894 37.4281 24.3953C37.4232 24.4003 37.4182 24.4003 37.4133 24.4052C37.3665 24.4372 37.3222 24.4692 37.2729 24.4988C37.2261 24.5308 37.1744 24.5604 37.1251 24.5899C37.0758 24.6195 37.0266 24.6491 36.9748 24.6786C36.7531 24.8018 36.5216 24.9102 36.2802 24.9988C36.2432 25.0136 36.2063 25.0259 36.1693 25.0407C35.9895 25.1048 35.8047 25.159 35.6175 25.2008C35.5806 25.2107 35.5436 25.2181 35.5091 25.2255C35.4525 25.2378 35.3934 25.2501 35.3342 25.26C35.2924 25.2674 35.2505 25.2747 35.2086 25.2797C35.1199 25.2945 35.0312 25.3043 34.9426 25.3142C34.9229 25.3142 34.9031 25.3191 34.8834 25.3191C34.8416 25.324 34.7997 25.3265 34.7578 25.3289C34.7455 25.3289 34.7356 25.3339 34.7233 25.3339C34.6741 25.3388 34.6223 25.3388 34.5706 25.3388C34.5139 25.3388 34.4597 25.3437 34.4031 25.3437C33.972 25.3437 33.5508 25.292 33.1492 25.1935L33.1468 25.1737Z" fill="#EC1F1C"/>
<path d="M15.9207 0V10.824C14.3589 9.91994 12.5508 9.4051 10.6195 9.4051C4.75428 9.40756 0 14.1618 0 20.0246C0 25.8874 4.75428 30.6417 10.6171 30.6417C10.7082 30.6417 10.7994 30.6417 10.8905 30.6368C11.0186 30.6368 11.1492 30.6294 11.2773 30.6195C11.3314 30.6195 11.3856 30.6146 11.4374 30.6072C11.5704 30.5998 11.7009 30.585 11.834 30.5703C11.9325 30.5579 12.031 30.5456 12.1271 30.5333C12.1862 30.5235 12.2454 30.5161 12.3069 30.5062C13.1593 30.3732 13.9746 30.1367 14.7457 29.8091C14.8245 29.7746 14.9058 29.7426 14.9821 29.7056C18.6673 28.0379 21.2317 24.333 21.2317 20.0246V0H15.9158H15.9207ZM10.9373 25.3159C10.9127 25.3159 10.888 25.3209 10.8634 25.3209C10.7821 25.3258 10.7008 25.3258 10.6171 25.3258C7.6906 25.3258 5.31593 22.9536 5.31593 20.0246C5.31593 17.0957 7.6906 14.7235 10.6171 14.7235C13.5435 14.7235 15.9182 17.0982 15.9182 20.0246C15.9182 21.8278 15.0166 23.4216 13.6421 24.3798C13.6421 24.3798 13.6371 24.3848 13.6322 24.3848C12.8587 24.9218 11.935 25.2568 10.9373 25.3159Z" fill="#EC1F1C"/>
<path d="M64.6459 11.6027L61.9116 16.2585C60.9558 15.3052 59.6379 14.7213 58.1796 14.7213C58.0958 14.7213 58.0121 14.7213 57.9283 14.7263C57.9135 14.7263 57.8963 14.7263 57.8815 14.7263C55.093 14.8815 52.8784 17.1921 52.8784 20.02V30.6371H47.5625V20.02C47.5625 15.1647 50.824 11.0682 55.2753 9.80694C55.2925 9.80202 55.3122 9.79709 55.3295 9.79216C56.1596 9.56061 57.0316 9.42759 57.9332 9.40788C58.017 9.40295 58.0983 9.40295 58.182 9.40295C60.6158 9.40295 62.8575 10.2233 64.6483 11.6003L64.6459 11.6027Z" fill="#EC1F1C"/>
<path d="M34.4007 14.7252V9.4093C23.7836 9.4093 17.4528 25.33 10.6194 25.33V30.6459C21.2365 30.6459 26.4884 14.7252 34.4007 14.7252Z" fill="#EC1F1C"/>
<path d="M58.1819 14.7252V9.4093C47.5648 9.4093 41.234 25.33 34.4006 25.33V30.6459C45.0177 30.6459 50.2696 14.7252 58.1819 14.7252Z" fill="#EC1F1C"/>
</g>
<defs>
<clipPath id="clip0_509_40388">
<rect width="139.655" height="40" fill="white"/>
</clipPath>
</defs>
</svg>
