<svg width="20" height="20" viewBox="0 0 20 20" fill="none" xmlns="http://www.w3.org/2000/svg">
<mask id="mask0_509_40135" style="mask-type:alpha" maskUnits="userSpaceOnUse" x="0" y="0" width="20" height="20">
<rect width="20" height="20" fill="#D9D9D9"/>
</mask>
<g mask="url(#mask0_509_40135)">
<path d="M9.95866 14.9998C10.2503 14.9998 10.4969 14.8991 10.6982 14.6978C10.8996 14.4964 11.0003 14.2498 11.0003 13.9582C11.0003 13.6665 10.8996 13.42 10.6982 13.2186C10.4969 13.0172 10.2503 12.9165 9.95866 12.9165C9.66699 12.9165 9.42046 13.0172 9.21908 13.2186C9.01769 13.42 8.91699 13.6665 8.91699 13.9582C8.91699 14.2498 9.01769 14.4964 9.21908 14.6978C9.42046 14.8991 9.66699 14.9998 9.95866 14.9998ZM9.20866 11.7915H10.7503C10.7503 11.3332 10.8024 10.9721 10.9066 10.7082C11.0107 10.4443 11.3059 10.0832 11.792 9.62484C12.1531 9.26373 12.4378 8.91998 12.6462 8.59359C12.8545 8.2672 12.9587 7.87484 12.9587 7.4165C12.9587 6.63873 12.6739 6.0415 12.1045 5.62484C11.535 5.20817 10.8614 4.99984 10.0837 4.99984C9.29199 4.99984 8.64963 5.20817 8.15658 5.62484C7.66352 6.0415 7.31977 6.5415 7.12533 7.12484L8.50033 7.6665C8.56977 7.4165 8.72602 7.14567 8.96908 6.854C9.21213 6.56234 9.58366 6.4165 10.0837 6.4165C10.5281 6.4165 10.8614 6.53803 11.0837 6.78109C11.3059 7.02414 11.417 7.2915 11.417 7.58317C11.417 7.86095 11.3337 8.12137 11.167 8.36442C11.0003 8.60748 10.792 8.83317 10.542 9.0415C9.93088 9.58317 9.55588 9.99289 9.41699 10.2707C9.2781 10.5484 9.20866 11.0554 9.20866 11.7915ZM10.0003 18.3332C8.84755 18.3332 7.76421 18.1144 6.75033 17.6769C5.73644 17.2394 4.85449 16.6457 4.10449 15.8957C3.35449 15.1457 2.76074 14.2637 2.32324 13.2498C1.88574 12.2359 1.66699 11.1526 1.66699 9.99984C1.66699 8.84706 1.88574 7.76373 2.32324 6.74984C2.76074 5.73595 3.35449 4.854 4.10449 4.104C4.85449 3.354 5.73644 2.76025 6.75033 2.32275C7.76421 1.88525 8.84755 1.6665 10.0003 1.6665C11.1531 1.6665 12.2364 1.88525 13.2503 2.32275C14.2642 2.76025 15.1462 3.354 15.8962 4.104C16.6462 4.854 17.2399 5.73595 17.6774 6.74984C18.1149 7.76373 18.3337 8.84706 18.3337 9.99984C18.3337 11.1526 18.1149 12.2359 17.6774 13.2498C17.2399 14.2637 16.6462 15.1457 15.8962 15.8957C15.1462 16.6457 14.2642 17.2394 13.2503 17.6769C12.2364 18.1144 11.1531 18.3332 10.0003 18.3332ZM10.0003 16.6665C11.8614 16.6665 13.4378 16.0207 14.7295 14.729C16.0212 13.4373 16.667 11.8609 16.667 9.99984C16.667 8.13873 16.0212 6.56234 14.7295 5.27067C13.4378 3.979 11.8614 3.33317 10.0003 3.33317C8.13921 3.33317 6.56283 3.979 5.27116 5.27067C3.97949 6.56234 3.33366 8.13873 3.33366 9.99984C3.33366 11.8609 3.97949 13.4373 5.27116 14.729C6.56283 16.0207 8.13921 16.6665 10.0003 16.6665Z" fill="#ACACAC"/>
</g>
</svg>
