<svg width="20" height="20" viewBox="0 0 20 20" fill="none" xmlns="http://www.w3.org/2000/svg">
<mask id="mask0_509_40120" style="mask-type:alpha" maskUnits="userSpaceOnUse" x="0" y="0" width="20" height="20">
<rect width="20" height="20" fill="#D9D9D9"/>
</mask>
<g mask="url(#mask0_509_40120)">
<path d="M3.33301 17.4994V9.68693L1.83301 10.8328L0.833008 9.49943L3.33301 7.58276V4.99943H4.99967V6.31193L9.99967 2.49943L19.1663 9.49943L18.1663 10.8119L16.6663 9.68693V17.4994H3.33301ZM4.99967 15.8328H9.16634V12.4994H10.833V15.8328H14.9997V8.4161L9.99967 4.6036L4.99967 8.4161V15.8328ZM3.33301 4.1661C3.33301 3.47165 3.57606 2.88137 4.06217 2.39526C4.54829 1.90915 5.13856 1.6661 5.83301 1.6661C6.06912 1.6661 6.26704 1.58624 6.42676 1.42651C6.58648 1.26679 6.66634 1.06887 6.66634 0.832764H8.33301C8.33301 1.52721 8.08995 2.11749 7.60384 2.6036C7.11773 3.08971 6.52745 3.33276 5.83301 3.33276C5.5969 3.33276 5.39898 3.41263 5.23926 3.57235C5.07954 3.73207 4.99967 3.92999 4.99967 4.1661H3.33301Z" fill="#F7F7F7"/>
</g>
</svg>
