<svg width="16" height="16" viewBox="0 0 16 16" fill="none" xmlns="http://www.w3.org/2000/svg">
<mask id="mask0_509_40099" style="mask-type:alpha" maskUnits="userSpaceOnUse" x="0" y="0" width="16" height="16">
<rect width="16" height="16" fill="#D9D9D9"/>
</mask>
<g mask="url(#mask0_509_40099)">
<path d="M7.96658 12C8.19992 12 8.39714 11.9195 8.55825 11.7584C8.71936 11.5973 8.79992 11.4 8.79992 11.1667C8.79992 10.9334 8.71936 10.7362 8.55825 10.575C8.39714 10.4139 8.19992 10.3334 7.96658 10.3334C7.73325 10.3334 7.53603 10.4139 7.37492 10.575C7.21381 10.7362 7.13325 10.9334 7.13325 11.1667C7.13325 11.4 7.21381 11.5973 7.37492 11.7584C7.53603 11.9195 7.73325 12 7.96658 12ZM7.36659 9.43337H8.59992C8.59992 9.06671 8.64159 8.77782 8.72492 8.56671C8.80825 8.3556 9.04436 8.06671 9.43325 7.70004C9.72214 7.41115 9.94992 7.13615 10.1166 6.87504C10.2833 6.61393 10.3666 6.30004 10.3666 5.93337C10.3666 5.31115 10.1388 4.83337 9.68325 4.50004C9.2277 4.16671 8.68881 4.00004 8.06659 4.00004C7.43325 4.00004 6.91936 4.16671 6.52492 4.50004C6.13047 4.83337 5.85547 5.23337 5.69992 5.70004L6.79992 6.13337C6.85547 5.93337 6.98047 5.71671 7.17492 5.48337C7.36936 5.25004 7.66658 5.13337 8.06659 5.13337C8.42214 5.13337 8.68881 5.2306 8.86658 5.42504C9.04436 5.61948 9.13325 5.83337 9.13325 6.06671C9.13325 6.28893 9.06659 6.49726 8.93325 6.69171C8.79992 6.88615 8.63325 7.06671 8.43325 7.23337C7.94436 7.66671 7.64436 7.99448 7.53325 8.21671C7.42214 8.43893 7.36659 8.84449 7.36659 9.43337ZM7.99992 14.6667C7.0777 14.6667 6.21103 14.4917 5.39992 14.1417C4.58881 13.7917 3.88325 13.3167 3.28325 12.7167C2.68325 12.1167 2.20825 11.4112 1.85825 10.6C1.50825 9.78893 1.33325 8.92226 1.33325 8.00004C1.33325 7.07782 1.50825 6.21115 1.85825 5.40004C2.20825 4.58893 2.68325 3.88337 3.28325 3.28337C3.88325 2.68337 4.58881 2.20837 5.39992 1.85837C6.21103 1.50837 7.0777 1.33337 7.99992 1.33337C8.92214 1.33337 9.78881 1.50837 10.5999 1.85837C11.411 2.20837 12.1166 2.68337 12.7166 3.28337C13.3166 3.88337 13.7916 4.58893 14.1416 5.40004C14.4916 6.21115 14.6666 7.07782 14.6666 8.00004C14.6666 8.92226 14.4916 9.78893 14.1416 10.6C13.7916 11.4112 13.3166 12.1167 12.7166 12.7167C12.1166 13.3167 11.411 13.7917 10.5999 14.1417C9.78881 14.4917 8.92214 14.6667 7.99992 14.6667ZM7.99992 13.3334C9.48881 13.3334 10.7499 12.8167 11.7833 11.7834C12.8166 10.75 13.3333 9.48893 13.3333 8.00004C13.3333 6.51115 12.8166 5.25004 11.7833 4.21671C10.7499 3.18337 9.48881 2.66671 7.99992 2.66671C6.51103 2.66671 5.24992 3.18337 4.21659 4.21671C3.18325 5.25004 2.66659 6.51115 2.66659 8.00004C2.66659 9.48893 3.18325 10.75 4.21659 11.7834C5.24992 12.8167 6.51103 13.3334 7.99992 13.3334Z" fill="#F7F7F7"/>
</g>
</svg>
