<svg width="24" height="24" viewBox="0 0 24 24" fill="none" xmlns="http://www.w3.org/2000/svg">
<mask id="mask0_509_40410" style="mask-type:alpha" maskUnits="userSpaceOnUse" x="0" y="0" width="24" height="24">
<rect width="24" height="24" fill="#D9D9D9"/>
</mask>
<g mask="url(#mask0_509_40410)">
<path d="M4.00024 14.0002C3.45024 14.0002 2.97941 13.8044 2.58774 13.4127C2.19608 13.0211 2.00024 12.5502 2.00024 12.0002C2.00024 11.4502 2.19608 10.9794 2.58774 10.5877C2.97941 10.1961 3.45024 10.0002 4.00024 10.0002C4.55024 10.0002 5.02108 10.1961 5.41274 10.5877C5.80441 10.9794 6.00024 11.4502 6.00024 12.0002C6.00024 12.5502 5.80441 13.0211 5.41274 13.4127C5.02108 13.8044 4.55024 14.0002 4.00024 14.0002ZM5.65024 19.7002L4.25024 18.3002L8.60024 13.9502L10.0002 15.3502L5.65024 19.7002ZM8.65024 10.0002L4.30024 5.65024L5.70024 4.25024L10.0502 8.60024L8.65024 10.0002ZM12.0002 22.0002C11.4502 22.0002 10.9794 21.8044 10.5877 21.4127C10.1961 21.0211 10.0002 20.5502 10.0002 20.0002C10.0002 19.4502 10.1961 18.9794 10.5877 18.5877C10.9794 18.1961 11.4502 18.0002 12.0002 18.0002C12.5502 18.0002 13.0211 18.1961 13.4127 18.5877C13.8044 18.9794 14.0002 19.4502 14.0002 20.0002C14.0002 20.5502 13.8044 21.0211 13.4127 21.4127C13.0211 21.8044 12.5502 22.0002 12.0002 22.0002ZM12.0002 6.00024C11.4502 6.00024 10.9794 5.80441 10.5877 5.41274C10.1961 5.02108 10.0002 4.55024 10.0002 4.00024C10.0002 3.45024 10.1961 2.97941 10.5877 2.58774C10.9794 2.19608 11.4502 2.00024 12.0002 2.00024C12.5502 2.00024 13.0211 2.19608 13.4127 2.58774C13.8044 2.97941 14.0002 3.45024 14.0002 4.00024C14.0002 4.55024 13.8044 5.02108 13.4127 5.41274C13.0211 5.80441 12.5502 6.00024 12.0002 6.00024ZM15.3502 10.0502L13.9502 8.60024L18.3502 4.25024L19.7502 5.65024L15.3502 10.0502ZM18.3502 19.7002L14.0002 15.3502L15.4002 13.9502L19.7502 18.3002L18.3502 19.7002ZM20.0002 14.0002C19.4502 14.0002 18.9794 13.8044 18.5877 13.4127C18.1961 13.0211 18.0002 12.5502 18.0002 12.0002C18.0002 11.4502 18.1961 10.9794 18.5877 10.5877C18.9794 10.1961 19.4502 10.0002 20.0002 10.0002C20.5502 10.0002 21.0211 10.1961 21.4127 10.5877C21.8044 10.9794 22.0002 11.4502 22.0002 12.0002C22.0002 12.5502 21.8044 13.0211 21.4127 13.4127C21.0211 13.8044 20.5502 14.0002 20.0002 14.0002Z" fill="#131313"/>
</g>
</svg>
