<svg width="84" height="24" viewBox="0 0 84 24" fill="none" xmlns="http://www.w3.org/2000/svg">
<g clip-path="url(#clip0_509_40155)">
<path d="M45.6234 5.61487C42.1057 5.61487 39.2532 8.46744 39.2532 11.9851C39.2532 11.9866 39.2532 11.9895 39.2532 11.991V23.9984H41.3815V16.7369C42.5078 17.7435 43.9946 18.3554 45.6234 18.3554C49.1426 18.3554 51.9937 15.5028 51.9937 11.9851C51.9937 8.46744 49.1411 5.61487 45.6234 5.61487ZM45.6234 16.1708C43.3118 16.1708 41.4377 14.2982 41.4377 11.9866C41.4377 9.67497 43.3118 7.80085 45.6234 7.80085C47.935 7.80085 49.8092 9.67497 49.8092 11.9866C49.8092 14.2982 47.935 16.1708 45.6234 16.1708Z" fill="#F7F7F7"/>
<path d="M55.4342 -0.000366211H53.3059V18.3551H55.4342V-0.000366211Z" fill="#F7F7F7"/>
<path d="M83.7983 6.46643H81.6138V11.9868C81.6138 14.2999 79.7412 16.1726 77.4281 16.1726C75.115 16.1726 73.2424 14.2984 73.2424 11.9868V6.46791H71.0579V11.9809C71.0579 11.9809 71.0579 11.9853 71.0579 11.9883C71.0579 15.5074 73.9104 18.3585 77.4281 18.3585C79.0303 18.3585 80.495 17.7673 81.6138 16.7904V17.6314C81.6138 19.9444 79.7412 21.8171 77.4281 21.8171C76.2664 21.8171 75.2155 21.3441 74.4588 20.5815L73.3281 22.5058C74.4366 23.44 75.8673 24.0016 77.4296 24.0016C80.9074 24.0016 83.7348 21.2155 83.7998 17.7526V6.46643H83.7983Z" fill="#F7F7F7"/>
<path d="M63.2562 5.61487C59.7386 5.61487 56.886 8.46744 56.886 11.9851C56.886 15.5028 59.7386 18.3554 63.2562 18.3554C64.8865 18.3554 66.3734 17.7449 67.4996 16.7369V18.3554H69.628V11.9851C69.628 8.46744 66.7754 5.61487 63.2577 5.61487H63.2562ZM63.2562 16.1708C60.9461 16.1708 59.072 14.2982 59.072 11.9866C59.072 9.67497 60.9461 7.80085 63.2562 7.80085C65.5664 7.80085 67.442 9.67497 67.442 11.9866C67.442 14.2982 65.5693 16.1708 63.2562 16.1708Z" fill="#F7F7F7"/>
<path d="M27.0146 11.8611C27.0146 11.8257 27.0146 11.7902 27.0117 11.7547C27.0117 11.7518 27.0117 11.7488 27.0117 11.7459C27.0087 11.6424 27.0013 11.5404 26.991 11.4384C26.9791 11.3039 26.9629 11.1709 26.9437 11.0394C26.9348 10.9862 26.9259 10.9315 26.9156 10.8797C26.8934 10.76 26.8698 10.6418 26.8417 10.5265C26.8417 10.5235 26.8417 10.5176 26.8387 10.5147C26.8195 10.4378 26.7988 10.3595 26.7781 10.2826C26.7619 10.2235 26.7441 10.1673 26.7264 10.1097C26.7057 10.0447 26.6835 9.97667 26.6614 9.91164C26.6126 9.77123 26.5594 9.63082 26.4988 9.49484C26.4766 9.44163 26.453 9.38842 26.4278 9.33669C26.3998 9.27462 26.3702 9.21402 26.3392 9.15342C26.3081 9.08987 26.2771 9.02927 26.2431 8.97015C26.2165 8.92137 26.1899 8.8726 26.1603 8.82382C26.1544 8.81348 26.1485 8.80165 26.1411 8.79131C26.1071 8.73219 26.0702 8.67454 26.0347 8.6169C26.0007 8.56221 25.9652 8.50901 25.9298 8.4558C25.8647 8.35825 25.7953 8.2607 25.7228 8.16758C25.6947 8.13063 25.6667 8.09368 25.6371 8.05821C25.6164 8.03013 25.5957 8.00353 25.5721 7.97692C25.5263 7.92076 25.4804 7.86607 25.4331 7.81286C25.3785 7.75078 25.3223 7.68871 25.2646 7.62959C25.2188 7.58081 25.1715 7.53352 25.1228 7.48474C25.0947 7.45666 25.0681 7.43006 25.0385 7.40345C25.0075 7.37389 24.9764 7.34433 24.9454 7.31625C24.9232 7.29556 24.9025 7.27634 24.8804 7.25713C24.8464 7.22609 24.8124 7.19653 24.7769 7.16697C24.7488 7.14332 24.7222 7.12115 24.6941 7.09898C24.6394 7.05316 24.5818 7.00734 24.5242 6.963C24.4621 6.91423 24.3985 6.86693 24.335 6.82259C24.3202 6.81372 24.3069 6.8019 24.2906 6.79303C24.2463 6.76052 24.2005 6.72948 24.1547 6.69992C24.131 6.68366 24.1059 6.6674 24.0808 6.65114C24.0335 6.6201 23.9847 6.59054 23.9359 6.56098C23.9211 6.55212 23.9064 6.54177 23.8901 6.5329C23.8369 6.50186 23.7837 6.47082 23.7305 6.44274C23.7113 6.43092 23.6906 6.42057 23.6713 6.40875C23.6034 6.3718 23.5354 6.33632 23.4659 6.30233C23.4068 6.27277 23.3462 6.24469 23.2856 6.21808C23.2457 6.19887 23.2058 6.18113 23.1644 6.16488C23.1274 6.14862 23.0905 6.13236 23.0535 6.11906C23.0284 6.10723 23.0018 6.09689 22.9767 6.08802C22.9146 6.06141 22.8511 6.03777 22.7875 6.01707C22.7801 6.01412 22.7727 6.01116 22.7638 6.00821C22.687 5.98012 22.6072 5.955 22.5288 5.93135C21.9347 5.74807 21.3021 5.64905 20.6473 5.64905C20.5986 5.64905 20.5498 5.64905 20.501 5.652H20.4981C20.0073 5.66235 19.5329 5.72886 19.0762 5.8471C19.0067 5.86484 18.9373 5.88257 18.8693 5.90327C18.7895 5.92544 18.7097 5.95204 18.6298 5.97865C16.101 6.82259 14.2786 9.20958 14.2786 12.0208C14.2786 12.0755 14.2786 12.1301 14.2815 12.1848C14.2904 12.5662 14.3347 12.9386 14.4086 13.3022V13.3052C14.4249 13.3835 14.4426 13.4618 14.4618 13.5387C14.4811 13.617 14.5017 13.6954 14.5239 13.7707C14.5461 13.8476 14.5697 13.9245 14.5949 14.0013C14.62 14.0767 14.6466 14.1521 14.6732 14.2274C14.6954 14.2866 14.7161 14.3427 14.7397 14.3989C14.7486 14.427 14.7619 14.4536 14.7737 14.4817C14.79 14.523 14.8077 14.5659 14.8269 14.6058C14.8432 14.6413 14.8579 14.6768 14.8742 14.7108C14.9023 14.7743 14.9333 14.8364 14.9644 14.8985C14.991 14.9502 15.0176 15.0004 15.0442 15.0507C15.056 15.0729 15.0678 15.0965 15.0811 15.1187C15.1136 15.1763 15.1462 15.234 15.1802 15.2887C15.2555 15.4158 15.3353 15.5399 15.4196 15.6582C15.4388 15.6862 15.458 15.7128 15.4772 15.7395C15.5423 15.8296 15.6103 15.9198 15.6797 16.0055C15.7004 16.0321 15.7211 16.0587 15.7448 16.0838C15.7773 16.1237 15.8098 16.1636 15.8438 16.2021L15.9044 16.2701C15.9384 16.31 15.9738 16.3469 16.0093 16.3853C16.0374 16.4164 16.067 16.4445 16.0965 16.4755C16.1423 16.5243 16.1911 16.5716 16.2399 16.6189C16.2783 16.6558 16.3167 16.6913 16.3552 16.7268C16.401 16.7711 16.4483 16.8125 16.4956 16.8524C16.5237 16.879 16.5547 16.9027 16.5828 16.9263C16.6212 16.9588 16.6596 16.9899 16.6981 17.0194C16.7232 17.0386 16.7468 17.0578 16.772 17.0771C16.8178 17.1125 16.8636 17.148 16.9109 17.182C16.9745 17.2278 17.038 17.2722 17.1031 17.315C17.1489 17.3461 17.1962 17.3771 17.2435 17.4067C17.3381 17.4673 17.4341 17.5249 17.5317 17.5796C17.5908 17.6121 17.6484 17.6446 17.7076 17.6757C17.777 17.7126 17.8465 17.7466 17.9174 17.7806C17.9972 17.819 18.0771 17.8545 18.1584 17.8885C18.213 17.9121 18.2677 17.9343 18.3224 17.9565C18.4067 17.9905 18.4924 18.0215 18.5781 18.0511C18.6446 18.0732 18.7126 18.0954 18.7806 18.1161C18.7998 18.1235 18.819 18.1294 18.8397 18.1338C18.8988 18.1516 18.955 18.1678 19.0141 18.1826C19.0319 18.1885 19.0496 18.1915 19.0673 18.1974C19.1353 18.2151 19.2018 18.2314 19.2698 18.2462C19.2728 18.2462 19.2743 18.2462 19.2772 18.2462C19.3541 18.2624 19.4324 18.2787 19.5107 18.292C19.8788 18.357 20.2571 18.3925 20.6444 18.3925C20.9932 18.3925 21.3316 18.3644 21.6612 18.3097C22.0869 18.2432 22.5008 18.1338 22.8924 17.9816C23.0048 17.9402 23.1171 17.8944 23.2279 17.8471C25.411 16.8775 26.9466 14.7167 27.0117 12.1907C27.0117 12.1553 27.0146 12.1198 27.0146 12.0828C27.0146 12.0622 27.0146 12.0415 27.0146 12.0208C27.0146 11.969 27.0146 11.9188 27.0117 11.8685L27.0146 11.8611ZM19.895 15.1039C18.5013 14.7669 17.4652 13.5121 17.4652 12.0134C17.4652 11.8005 17.4859 11.5951 17.5258 11.3941C17.5302 11.366 17.5361 11.3364 17.5435 11.3084C17.5494 11.2788 17.5568 11.2492 17.5657 11.2212C17.5819 11.1576 17.5997 11.0955 17.6189 11.0349C17.6307 10.9965 17.644 10.9581 17.6573 10.9211C17.6736 10.8797 17.6883 10.8384 17.7046 10.7999C17.7135 10.7763 17.7253 10.7526 17.7356 10.729C17.7475 10.7009 17.7608 10.6713 17.7755 10.6433C17.7785 10.6373 17.7815 10.6314 17.7844 10.6255C17.8051 10.5827 17.8258 10.5413 17.8494 10.4984C17.8716 10.4541 17.8967 10.4112 17.9233 10.3683C17.9263 10.3654 17.9278 10.361 17.9307 10.358C17.9529 10.3211 17.9751 10.2856 18.0002 10.2501C18.0091 10.2383 18.015 10.2265 18.0239 10.2161C18.0445 10.1851 18.0652 10.1555 18.0889 10.126C18.0948 10.1171 18.1007 10.1082 18.1096 10.0979C18.1303 10.0698 18.151 10.0402 18.1761 10.0136C18.1864 9.99885 18.1997 9.98111 18.2145 9.96633C18.2367 9.93825 18.2603 9.91312 18.2855 9.88652C18.2884 9.8806 18.2943 9.87617 18.2988 9.87174C18.3268 9.83922 18.3579 9.80818 18.3874 9.77862C18.3948 9.77123 18.4007 9.76532 18.4081 9.75941C18.4407 9.72541 18.4746 9.6929 18.5101 9.66186C18.5382 9.63525 18.5663 9.61013 18.5944 9.58796C18.6121 9.5717 18.6313 9.55544 18.6505 9.54214C18.6653 9.52884 18.6801 9.51701 18.6964 9.50667C18.7215 9.48597 18.7466 9.46676 18.7732 9.44902C18.7865 9.43868 18.7998 9.42833 18.8131 9.42094C18.8382 9.40173 18.8619 9.38399 18.8885 9.36773C18.9107 9.35295 18.9328 9.33817 18.9565 9.32487C19.0585 9.25984 19.1634 9.20219 19.2728 9.14899C19.3038 9.13421 19.3349 9.11943 19.3659 9.10612C19.5226 9.03666 19.6851 8.97901 19.8536 8.93615C19.8935 8.92581 19.9349 8.91546 19.9763 8.90807C20.0384 8.89329 20.1005 8.88294 20.164 8.87408C20.263 8.8593 20.3636 8.84747 20.4655 8.84156C20.4759 8.84156 20.4877 8.84156 20.4981 8.84156C20.5483 8.8386 20.5986 8.8386 20.6488 8.8386C21.0893 8.8386 21.5075 8.92876 21.8903 9.08987C23.0314 9.57465 23.831 10.7039 23.831 12.0208C23.831 12.2528 23.8058 12.4804 23.7585 12.6992C23.729 12.8381 23.6891 12.9726 23.6418 13.1042C23.6329 13.1293 23.6241 13.1544 23.6137 13.1781C23.6048 13.2047 23.593 13.2298 23.5827 13.2549C23.5694 13.2889 23.5546 13.3214 23.5383 13.3539C23.5235 13.3909 23.5043 13.4264 23.4851 13.4618C23.4674 13.5003 23.4467 13.5372 23.426 13.5742C23.423 13.5801 23.4201 13.5875 23.4157 13.5934C23.3979 13.6274 23.3772 13.6614 23.3565 13.6954C23.3107 13.7707 23.2605 13.8446 23.2073 13.9156C23.1806 13.9511 23.154 13.9865 23.126 14.0205C23.0994 14.0545 23.0728 14.0856 23.0417 14.1181C23.0417 14.121 23.0417 14.121 23.0388 14.1225C23.0107 14.1565 22.9811 14.1875 22.9501 14.2186C22.9264 14.2452 22.9013 14.2703 22.8747 14.2954C22.8466 14.3235 22.8156 14.3516 22.786 14.3797C22.7668 14.3974 22.7461 14.4152 22.7269 14.4329C22.6426 14.5053 22.5569 14.5733 22.4638 14.6369C22.4609 14.6398 22.4579 14.6398 22.4549 14.6428C22.4269 14.662 22.4003 14.6812 22.3707 14.6989C22.3426 14.7181 22.3116 14.7359 22.282 14.7536C22.2525 14.7714 22.2229 14.7891 22.1919 14.8068C22.0588 14.8807 21.9199 14.9458 21.7751 14.999C21.7529 15.0078 21.7307 15.0152 21.7085 15.0241C21.6006 15.0625 21.4898 15.095 21.3775 15.1202C21.3553 15.1261 21.3331 15.1305 21.3124 15.1349C21.2784 15.1423 21.243 15.1497 21.2075 15.1556C21.1824 15.1601 21.1572 15.1645 21.1321 15.1675C21.0789 15.1763 21.0257 15.1822 20.9725 15.1882C20.9607 15.1882 20.9488 15.1911 20.937 15.1911C20.9119 15.1941 20.8868 15.1955 20.8616 15.197C20.8543 15.197 20.8483 15.2 20.841 15.2C20.8114 15.2029 20.7804 15.2029 20.7493 15.2029C20.7153 15.2029 20.6828 15.2059 20.6488 15.2059C20.3902 15.2059 20.1374 15.1749 19.8965 15.1157L19.895 15.1039Z" fill="#F7F7F7"/>
<path d="M9.55754 -0.000366211V6.49403C8.62047 5.9516 7.53561 5.64269 6.37685 5.64269C2.8577 5.64417 0.00512695 8.49674 0.00512695 12.0144C0.00512695 15.5321 2.8577 18.3847 6.37537 18.3847C6.43006 18.3847 6.48474 18.3847 6.53943 18.3817C6.61629 18.3817 6.69462 18.3773 6.77148 18.3714C6.80399 18.3714 6.83651 18.3684 6.86755 18.364C6.94736 18.3595 7.0257 18.3507 7.10551 18.3418C7.16463 18.3344 7.22375 18.327 7.28139 18.3196C7.31686 18.3137 7.35234 18.3093 7.38929 18.3034C7.90068 18.2236 8.3899 18.0817 8.85252 17.8851C8.89982 17.8644 8.94859 17.8452 8.99441 17.823C11.2055 16.8224 12.7441 14.5995 12.7441 12.0144V-0.000366211H9.55458H9.55754ZM6.56751 15.1892C6.55273 15.1892 6.53795 15.1921 6.52317 15.1921C6.4744 15.1951 6.42562 15.1951 6.37537 15.1951C4.61949 15.1951 3.19468 13.7718 3.19468 12.0144C3.19468 10.2571 4.61949 8.83373 6.37537 8.83373C8.13125 8.83373 9.55606 10.2585 9.55606 12.0144C9.55606 13.0963 9.0151 14.0526 8.19037 14.6275C8.19037 14.6275 8.18742 14.6305 8.18446 14.6305C7.72036 14.9527 7.16611 15.1537 6.56751 15.1892Z" fill="#F7F7F7"/>
<path d="M38.7923 6.9611L37.1517 9.75455C36.5782 9.18256 35.7875 8.83227 34.9125 8.83227C34.8622 8.83227 34.812 8.83227 34.7617 8.83522C34.7529 8.83522 34.7425 8.83522 34.7336 8.83522C33.0605 8.92834 31.7318 10.3147 31.7318 12.0115V18.3817H28.5422V12.0115C28.5422 9.09831 30.4991 6.64037 33.1699 5.88363C33.1802 5.88067 33.1921 5.87772 33.2024 5.87476C33.7005 5.73583 34.2237 5.65602 34.7647 5.64419C34.8149 5.64124 34.8637 5.64124 34.914 5.64124C36.3742 5.64124 37.7192 6.13341 38.7937 6.95962L38.7923 6.9611Z" fill="#F7F7F7"/>
<path d="M20.645 8.8347V5.64514C14.2747 5.64514 10.4762 15.1975 6.37622 15.1975V18.3871C12.7465 18.3871 15.8976 8.8347 20.645 8.8347Z" fill="#F7F7F7"/>
<path d="M34.9145 8.8347V5.64514C28.5443 5.64514 24.7458 15.1975 20.6458 15.1975V18.3871C27.016 18.3871 30.1671 8.8347 34.9145 8.8347Z" fill="#F7F7F7"/>
</g>
<defs>
<clipPath id="clip0_509_40155">
<rect width="83.7931" height="24" fill="white"/>
</clipPath>
</defs>
</svg>
