<svg width="33" height="32" viewBox="0 0 33 32" fill="none" xmlns="http://www.w3.org/2000/svg">
<mask id="mask0_846_887" style="mask-type:alpha" maskUnits="userSpaceOnUse" x="0" y="0" width="33" height="32">
<rect x="0.333496" width="32" height="32" fill="#D9D9D9"/>
</mask>
<g mask="url(#mask0_846_887)">
<path d="M8.13382 22.7998C9.26715 21.9332 10.5338 21.2498 11.9338 20.7498C13.3338 20.2498 14.8005 19.9998 16.3338 19.9998C17.8672 19.9998 19.3338 20.2498 20.7338 20.7498C22.1338 21.2498 23.4005 21.9332 24.5338 22.7998C25.3116 21.8887 25.9172 20.8554 26.3505 19.6998C26.7838 18.5443 27.0005 17.3109 27.0005 15.9998C27.0005 13.0443 25.9616 10.5276 23.8838 8.44984C21.806 6.37206 19.2894 5.33317 16.3338 5.33317C13.3783 5.33317 10.8616 6.37206 8.78382 8.44984C6.70604 10.5276 5.66715 13.0443 5.66715 15.9998C5.66715 17.3109 5.88382 18.5443 6.31715 19.6998C6.75049 20.8554 7.35604 21.8887 8.13382 22.7998ZM16.3338 17.3332C15.0227 17.3332 13.9172 16.8832 13.0172 15.9832C12.1172 15.0832 11.6672 13.9776 11.6672 12.6665C11.6672 11.3554 12.1172 10.2498 13.0172 9.34984C13.9172 8.44984 15.0227 7.99984 16.3338 7.99984C17.6449 7.99984 18.7505 8.44984 19.6505 9.34984C20.5505 10.2498 21.0005 11.3554 21.0005 12.6665C21.0005 13.9776 20.5505 15.0832 19.6505 15.9832C18.7505 16.8832 17.6449 17.3332 16.3338 17.3332ZM16.3338 29.3332C14.4894 29.3332 12.756 28.9832 11.1338 28.2832C9.5116 27.5832 8.10049 26.6332 6.90049 25.4332C5.70049 24.2332 4.75049 22.8221 4.05049 21.1998C3.35049 19.5776 3.00049 17.8443 3.00049 15.9998C3.00049 14.1554 3.35049 12.4221 4.05049 10.7998C4.75049 9.17761 5.70049 7.7665 6.90049 6.5665C8.10049 5.3665 9.5116 4.4165 11.1338 3.7165C12.756 3.0165 14.4894 2.6665 16.3338 2.6665C18.1783 2.6665 19.9116 3.0165 21.5338 3.7165C23.156 4.4165 24.5672 5.3665 25.7672 6.5665C26.9672 7.7665 27.9172 9.17761 28.6172 10.7998C29.3172 12.4221 29.6672 14.1554 29.6672 15.9998C29.6672 17.8443 29.3172 19.5776 28.6172 21.1998C27.9172 22.8221 26.9672 24.2332 25.7672 25.4332C24.5672 26.6332 23.156 27.5832 21.5338 28.2832C19.9116 28.9832 18.1783 29.3332 16.3338 29.3332ZM16.3338 26.6665C17.5116 26.6665 18.6227 26.4943 19.6672 26.1498C20.7116 25.8054 21.6672 25.3109 22.5338 24.6665C21.6672 24.0221 20.7116 23.5276 19.6672 23.1832C18.6227 22.8387 17.5116 22.6665 16.3338 22.6665C15.156 22.6665 14.0449 22.8387 13.0005 23.1832C11.956 23.5276 11.0005 24.0221 10.1338 24.6665C11.0005 25.3109 11.956 25.8054 13.0005 26.1498C14.0449 26.4943 15.156 26.6665 16.3338 26.6665ZM16.3338 14.6665C16.9116 14.6665 17.3894 14.4776 17.7672 14.0998C18.1449 13.7221 18.3338 13.2443 18.3338 12.6665C18.3338 12.0887 18.1449 11.6109 17.7672 11.2332C17.3894 10.8554 16.9116 10.6665 16.3338 10.6665C15.756 10.6665 15.2783 10.8554 14.9005 11.2332C14.5227 11.6109 14.3338 12.0887 14.3338 12.6665C14.3338 13.2443 14.5227 13.7221 14.9005 14.0998C15.2783 14.4776 15.756 14.6665 16.3338 14.6665Z" fill="#F7F7F7"/>
</g>
</svg>
