<svg width="32" height="32" viewBox="0 0 32 32" fill="none" xmlns="http://www.w3.org/2000/svg">
<mask id="mask0_846_877" style="mask-type:alpha" maskUnits="userSpaceOnUse" x="0" y="0" width="32" height="32">
<rect width="32" height="32" fill="#D9D9D9"/>
</mask>
<g mask="url(#mask0_846_877)">
<path d="M29.3327 8.00007V24.0001C29.3327 24.7334 29.0716 25.3612 28.5493 25.8834C28.0271 26.4056 27.3993 26.6667 26.666 26.6667H5.33268C4.59935 26.6667 3.97157 26.4056 3.44935 25.8834C2.92713 25.3612 2.66602 24.7334 2.66602 24.0001V8.00007C2.66602 7.26674 2.92713 6.63896 3.44935 6.11674C3.97157 5.59452 4.59935 5.3334 5.33268 5.3334H26.666C27.3993 5.3334 28.0271 5.59452 28.5493 6.11674C29.0716 6.63896 29.3327 7.26674 29.3327 8.00007ZM5.33268 10.6667H26.666V8.00007H5.33268V10.6667ZM5.33268 16.0001V24.0001H26.666V16.0001H5.33268Z" fill="#F7F7F7"/>
</g>
</svg>
