<svg width="33" height="32" viewBox="0 0 33 32" fill="none" xmlns="http://www.w3.org/2000/svg">
<mask id="mask0_846_882" style="mask-type:alpha" maskUnits="userSpaceOnUse" x="0" y="0" width="33" height="32">
<rect x="0.666504" width="32" height="32" fill="#D9D9D9"/>
</mask>
<g mask="url(#mask0_846_882)">
<path d="M4.6665 28V25.3333H7.33317V6.66667C7.33317 5.93333 7.59428 5.30556 8.1165 4.78333C8.63873 4.26111 9.2665 4 9.99984 4H23.3332C24.0665 4 24.6943 4.26111 25.2165 4.78333C25.7387 5.30556 25.9998 5.93333 25.9998 6.66667V25.3333H28.6665V28H4.6665ZM23.3332 25.3333V6.66667H9.99984V25.3333H23.3332ZM19.3332 17.3333C19.7109 17.3333 20.0276 17.2056 20.2832 16.95C20.5387 16.6944 20.6665 16.3778 20.6665 16C20.6665 15.6222 20.5387 15.3056 20.2832 15.05C20.0276 14.7944 19.7109 14.6667 19.3332 14.6667C18.9554 14.6667 18.6387 14.7944 18.3832 15.05C18.1276 15.3056 17.9998 15.6222 17.9998 16C17.9998 16.3778 18.1276 16.6944 18.3832 16.95C18.6387 17.2056 18.9554 17.3333 19.3332 17.3333Z" fill="#F7F7F7"/>
</g>
</svg>
