<svg width="32" height="32" viewBox="0 0 32 32" fill="none" xmlns="http://www.w3.org/2000/svg">
<mask id="mask0_846_893" style="mask-type:alpha" maskUnits="userSpaceOnUse" x="0" y="0" width="32" height="32">
<rect width="32" height="32" fill="#D9D9D9"/>
</mask>
<g mask="url(#mask0_846_893)">
<path d="M16.6667 15.9333C17.3111 15.2222 17.8056 14.4111 18.15 13.5C18.4944 12.5889 18.6667 11.6445 18.6667 10.6667C18.6667 9.6889 18.4944 8.74445 18.15 7.83334C17.8056 6.92223 17.3111 6.11112 16.6667 5.40001C18 5.57779 19.1111 6.16668 20 7.16668C20.8889 8.16668 21.3333 9.33334 21.3333 10.6667C21.3333 12 20.8889 13.1667 20 14.1667C19.1111 15.1667 18 15.7556 16.6667 15.9333ZM24 26.6667V22.6667C24 21.8667 23.8222 21.1056 23.4667 20.3833C23.1111 19.6611 22.6444 19.0222 22.0667 18.4667C23.2 18.8667 24.25 19.3833 25.2167 20.0167C26.1833 20.65 26.6667 21.5333 26.6667 22.6667V26.6667H24ZM26.6667 17.3333V14.6667H24V12H26.6667V9.33334H29.3333V12H32V14.6667H29.3333V17.3333H26.6667ZM10.6667 16C9.2 16 7.94445 15.4778 6.9 14.4333C5.85556 13.3889 5.33333 12.1333 5.33333 10.6667C5.33333 9.20001 5.85556 7.94445 6.9 6.90001C7.94445 5.85557 9.2 5.33334 10.6667 5.33334C12.1333 5.33334 13.3889 5.85557 14.4333 6.90001C15.4778 7.94445 16 9.20001 16 10.6667C16 12.1333 15.4778 13.3889 14.4333 14.4333C13.3889 15.4778 12.1333 16 10.6667 16ZM0 26.6667V22.9333C0 22.1778 0.194444 21.4833 0.583333 20.85C0.972222 20.2167 1.48889 19.7333 2.13333 19.4C3.51111 18.7111 4.91111 18.1945 6.33333 17.85C7.75556 17.5056 9.2 17.3333 10.6667 17.3333C12.1333 17.3333 13.5778 17.5056 15 17.85C16.4222 18.1945 17.8222 18.7111 19.2 19.4C19.8444 19.7333 20.3611 20.2167 20.75 20.85C21.1389 21.4833 21.3333 22.1778 21.3333 22.9333V26.6667H0ZM10.6667 13.3333C11.4 13.3333 12.0278 13.0722 12.55 12.55C13.0722 12.0278 13.3333 11.4 13.3333 10.6667C13.3333 9.93334 13.0722 9.30557 12.55 8.78334C12.0278 8.26112 11.4 8.00001 10.6667 8.00001C9.93333 8.00001 9.30556 8.26112 8.78333 8.78334C8.26111 9.30557 8 9.93334 8 10.6667C8 11.4 8.26111 12.0278 8.78333 12.55C9.30556 13.0722 9.93333 13.3333 10.6667 13.3333ZM2.66667 24H18.6667V22.9333C18.6667 22.6889 18.6056 22.4667 18.4833 22.2667C18.3611 22.0667 18.2 21.9111 18 21.8C16.8 21.2 15.5889 20.75 14.3667 20.45C13.1444 20.15 11.9111 20 10.6667 20C9.42222 20 8.18889 20.15 6.96667 20.45C5.74444 20.75 4.53333 21.2 3.33333 21.8C3.13333 21.9111 2.97222 22.0667 2.85 22.2667C2.72778 22.4667 2.66667 22.6889 2.66667 22.9333V24Z" fill="#F7F7F7"/>
</g>
</svg>
