<svg width="33" height="32" viewBox="0 0 33 32" fill="none" xmlns="http://www.w3.org/2000/svg">
<mask id="mask0_846_914" style="mask-type:alpha" maskUnits="userSpaceOnUse" x="0" y="0" width="33" height="32">
<rect x="0.666504" width="32" height="32" fill="#D9D9D9"/>
</mask>
<g mask="url(#mask0_846_914)">
<path d="M5.99951 25.3332V22.6665H8.66618V13.3332C8.66618 11.4887 9.22173 9.84984 10.3328 8.4165C11.444 6.98317 12.8884 6.04428 14.6662 5.59984V4.6665C14.6662 4.11095 14.8606 3.63873 15.2495 3.24984C15.6384 2.86095 16.1106 2.6665 16.6662 2.6665C17.2217 2.6665 17.694 2.86095 18.0828 3.24984C18.4717 3.63873 18.6662 4.11095 18.6662 4.6665V5.59984C20.444 6.04428 21.8884 6.98317 22.9995 8.4165C24.1106 9.84984 24.6662 11.4887 24.6662 13.3332V22.6665H27.3328V25.3332H5.99951ZM16.6662 29.3332C15.9328 29.3332 15.3051 29.0721 14.7828 28.5498C14.2606 28.0276 13.9995 27.3998 13.9995 26.6665H19.3328C19.3328 27.3998 19.0717 28.0276 18.5495 28.5498C18.0273 29.0721 17.3995 29.3332 16.6662 29.3332ZM11.3328 22.6665H21.9995V13.3332C21.9995 11.8665 21.4773 10.6109 20.4328 9.5665C19.3884 8.52206 18.1328 7.99984 16.6662 7.99984C15.1995 7.99984 13.944 8.52206 12.8995 9.5665C11.8551 10.6109 11.3328 11.8665 11.3328 13.3332V22.6665Z" fill="#F7F7F7"/>
</g>
</svg>
