<svg width="32" height="32" viewBox="0 0 32 32" fill="none" xmlns="http://www.w3.org/2000/svg">
<mask id="mask0_846_909" style="mask-type:alpha" maskUnits="userSpaceOnUse" x="0" y="0" width="32" height="32">
<rect width="32" height="32" fill="#D9D9D9"/>
</mask>
<g mask="url(#mask0_846_909)">
<path d="M12.0003 20.6665H20.0003V18.6665H12.0003V20.6665ZM11.3337 11.3332C10.6225 11.3332 9.96144 11.5332 9.35033 11.9332C8.73921 12.3332 8.23366 12.8443 7.83366 13.4665L9.50033 14.5665C9.72255 14.2332 9.98921 13.9498 10.3003 13.7165C10.6114 13.4832 10.9559 13.3665 11.3337 13.3665C11.7114 13.3665 12.0559 13.4832 12.367 13.7165C12.6781 13.9498 12.9448 14.2221 13.167 14.5332L14.8337 13.4332C14.4337 12.8332 13.9281 12.3332 13.317 11.9332C12.7059 11.5332 12.0448 11.3332 11.3337 11.3332ZM20.667 11.3332C19.9559 11.3332 19.2948 11.5332 18.6837 11.9332C18.0725 12.3332 17.567 12.8443 17.167 13.4665L18.8337 14.5665C19.0559 14.2554 19.3225 13.9832 19.6337 13.7498C19.9448 13.5165 20.2892 13.3998 20.667 13.3998C21.0448 13.3998 21.3948 13.5109 21.717 13.7332C22.0392 13.9554 22.3003 14.2332 22.5003 14.5665L24.167 13.4665C23.767 12.8443 23.2614 12.3332 22.6503 11.9332C22.0392 11.5332 21.3781 11.3332 20.667 11.3332ZM16.0003 29.3332C14.1559 29.3332 12.4225 28.9832 10.8003 28.2832C9.1781 27.5832 7.76699 26.6332 6.56699 25.4332C5.36699 24.2332 4.41699 22.8221 3.71699 21.1998C3.01699 19.5776 2.66699 17.8443 2.66699 15.9998C2.66699 14.1554 3.01699 12.4221 3.71699 10.7998C4.41699 9.17761 5.36699 7.7665 6.56699 6.5665C7.76699 5.3665 9.1781 4.4165 10.8003 3.7165C12.4225 3.0165 14.1559 2.6665 16.0003 2.6665C17.8448 2.6665 19.5781 3.0165 21.2003 3.7165C22.8225 4.4165 24.2337 5.3665 25.4337 6.5665C26.6337 7.7665 27.5837 9.17761 28.2837 10.7998C28.9837 12.4221 29.3337 14.1554 29.3337 15.9998C29.3337 17.8443 28.9837 19.5776 28.2837 21.1998C27.5837 22.8221 26.6337 24.2332 25.4337 25.4332C24.2337 26.6332 22.8225 27.5832 21.2003 28.2832C19.5781 28.9832 17.8448 29.3332 16.0003 29.3332ZM16.0003 26.6665C18.9781 26.6665 21.5003 25.6332 23.567 23.5665C25.6337 21.4998 26.667 18.9776 26.667 15.9998C26.667 13.0221 25.6337 10.4998 23.567 8.43317C21.5003 6.3665 18.9781 5.33317 16.0003 5.33317C13.0225 5.33317 10.5003 6.3665 8.43366 8.43317C6.36699 10.4998 5.33366 13.0221 5.33366 15.9998C5.33366 18.9776 6.36699 21.4998 8.43366 23.5665C10.5003 25.6332 13.0225 26.6665 16.0003 26.6665Z" fill="#F7F7F7"/>
</g>
</svg>
