<svg width="33" height="32" viewBox="0 0 33 32" fill="none" xmlns="http://www.w3.org/2000/svg">
<mask id="mask0_846_898" style="mask-type:alpha" maskUnits="userSpaceOnUse" x="0" y="0" width="33" height="32">
<rect x="0.666504" width="32" height="32" fill="#D9D9D9"/>
</mask>
<g mask="url(#mask0_846_898)">
<path d="M28.1335 27.9998L21.8668 21.7332C20.9557 22.4443 19.9502 22.9998 18.8502 23.3998C17.7502 23.7998 16.5779 23.9998 15.3335 23.9998C13.3335 23.9998 11.5279 23.511 9.91683 22.5332C8.30572 21.5554 7.0335 20.2665 6.10016 18.6665H9.36683C10.1224 19.4887 11.0057 20.1387 12.0168 20.6165C13.0279 21.0943 14.1335 21.3332 15.3335 21.3332C17.5557 21.3332 19.4446 20.5554 21.0002 18.9998C22.5557 17.4443 23.3335 15.5554 23.3335 13.3332C23.3335 11.1109 22.5557 9.22206 21.0002 7.6665C19.4446 6.11095 17.5557 5.33317 15.3335 5.33317C13.2446 5.33317 11.4391 6.03873 9.91683 7.44984C8.39461 8.86095 7.54461 10.5998 7.36683 12.6665H4.70016C4.87794 9.84428 5.9835 7.47206 8.01683 5.54984C10.0502 3.62762 12.4891 2.6665 15.3335 2.6665C18.3113 2.6665 20.8335 3.69984 22.9002 5.7665C24.9668 7.83317 26.0002 10.3554 26.0002 13.3332C26.0002 14.5776 25.8002 15.7498 25.4002 16.8498C25.0002 17.9498 24.4446 18.9554 23.7335 19.8665L30.0002 26.1332L28.1335 27.9998ZM13.9002 18.6665L11.8002 11.7332L10.0668 16.6665H3.3335V14.6665H8.66683L10.8668 8.33317H12.8668L14.9002 15.1332L16.3335 10.6665H18.3335L20.3335 14.6665H21.3335V16.6665H19.1002L17.5335 13.5332L15.8668 18.6665H13.9002Z" fill="#F7F7F7"/>
</g>
</svg>
