<svg width="13" height="13" viewBox="0 0 13 13" fill="none" xmlns="http://www.w3.org/2000/svg">
<path d="M7.16667 8.56H8.16667V7.06L9.33333 8.56H10.55L9 6.56L10.55 4.56H9.33333L8.16667 6.06V4.56H7.16667V8.56ZM4.83333 8.56H5.83333V7.56H6.5V6.56H5.83333V4.56H4.83333V6.56H3.83333V4.56H2.83333V7.56H4.83333V8.56ZM1.83333 12.56C1.46667 12.56 1.15278 12.4294 0.891667 12.1683C0.630556 11.9072 0.5 11.5933 0.5 11.2267V1.89333C0.5 1.52666 0.630556 1.21278 0.891667 0.951664C1.15278 0.690553 1.46667 0.559998 1.83333 0.559998H11.1667C11.5333 0.559998 11.8472 0.690553 12.1083 0.951664C12.3694 1.21278 12.5 1.52666 12.5 1.89333V11.2267C12.5 11.5933 12.3694 11.9072 12.1083 12.1683C11.8472 12.4294 11.5333 12.56 11.1667 12.56H1.83333ZM1.83333 11.2267H11.1667V1.89333H1.83333V11.2267Z" fill="white"/>
</svg>
