<svg width="17" height="17" viewBox="0 0 17 17" fill="none" xmlns="http://www.w3.org/2000/svg">
<mask id="mask0_2_35461" style="mask-type:alpha" maskUnits="userSpaceOnUse" x="0" y="0" width="17" height="17">
<rect x="0.753906" y="0.0610352" width="16" height="16" fill="#D9D9D9"/>
</mask>
<g mask="url(#mask0_2_35461)">
<path d="M2.75387 9.72766C2.66498 9.72766 2.5872 9.69433 2.52053 9.62766C2.45387 9.561 2.42053 9.48322 2.42053 9.39433C2.42053 9.30544 2.45387 9.22766 2.52053 9.161C2.5872 9.09433 2.66498 9.06099 2.75387 9.06099C2.84275 9.06099 2.92053 9.09433 2.9872 9.161C3.05387 9.22766 3.0872 9.30544 3.0872 9.39433C3.0872 9.48322 3.05387 9.561 2.9872 9.62766C2.92053 9.69433 2.84275 9.72766 2.75387 9.72766ZM2.75387 7.06099C2.66498 7.06099 2.5872 7.02766 2.52053 6.96099C2.45387 6.89433 2.42053 6.81655 2.42053 6.72766C2.42053 6.63877 2.45387 6.56099 2.52053 6.49433C2.5872 6.42766 2.66498 6.39433 2.75387 6.39433C2.84275 6.39433 2.92053 6.42766 2.9872 6.49433C3.05387 6.56099 3.0872 6.63877 3.0872 6.72766C3.0872 6.81655 3.05387 6.89433 2.9872 6.96099C2.92053 7.02766 2.84275 7.06099 2.75387 7.06099ZM4.75387 12.7277C4.56498 12.7277 4.40664 12.6638 4.27887 12.536C4.15109 12.4082 4.0872 12.2499 4.0872 12.061C4.0872 11.8721 4.15109 11.7138 4.27887 11.586C4.40664 11.4582 4.56498 11.3943 4.75387 11.3943C4.94275 11.3943 5.10109 11.4582 5.22887 11.586C5.35664 11.7138 5.42053 11.8721 5.42053 12.061C5.42053 12.2499 5.35664 12.4082 5.22887 12.536C5.10109 12.6638 4.94275 12.7277 4.75387 12.7277ZM4.75387 10.061C4.56498 10.061 4.40664 9.99711 4.27887 9.86933C4.15109 9.74155 4.0872 9.58322 4.0872 9.39433C4.0872 9.20544 4.15109 9.04711 4.27887 8.91933C4.40664 8.79155 4.56498 8.72766 4.75387 8.72766C4.94275 8.72766 5.10109 8.79155 5.22887 8.91933C5.35664 9.04711 5.42053 9.20544 5.42053 9.39433C5.42053 9.58322 5.35664 9.74155 5.22887 9.86933C5.10109 9.99711 4.94275 10.061 4.75387 10.061ZM4.75387 7.39433C4.56498 7.39433 4.40664 7.33044 4.27887 7.20266C4.15109 7.07488 4.0872 6.91655 4.0872 6.72766C4.0872 6.53877 4.15109 6.38044 4.27887 6.25266C4.40664 6.12488 4.56498 6.06099 4.75387 6.06099C4.94275 6.06099 5.10109 6.12488 5.22887 6.25266C5.35664 6.38044 5.42053 6.53877 5.42053 6.72766C5.42053 6.91655 5.35664 7.07488 5.22887 7.20266C5.10109 7.33044 4.94275 7.39433 4.75387 7.39433ZM4.75387 4.72766C4.56498 4.72766 4.40664 4.66377 4.27887 4.53599C4.15109 4.40822 4.0872 4.24988 4.0872 4.06099C4.0872 3.87211 4.15109 3.71377 4.27887 3.58599C4.40664 3.45822 4.56498 3.39433 4.75387 3.39433C4.94275 3.39433 5.10109 3.45822 5.22887 3.58599C5.35664 3.71377 5.42053 3.87211 5.42053 4.06099C5.42053 4.24988 5.35664 4.40822 5.22887 4.53599C5.10109 4.66377 4.94275 4.72766 4.75387 4.72766ZM7.42053 10.3943C7.14275 10.3943 6.90664 10.2971 6.7122 10.1027C6.51775 9.90822 6.42053 9.67211 6.42053 9.39433C6.42053 9.11655 6.51775 8.88044 6.7122 8.68599C6.90664 8.49155 7.14275 8.39433 7.42053 8.39433C7.69831 8.39433 7.93442 8.49155 8.12887 8.68599C8.32331 8.88044 8.42053 9.11655 8.42053 9.39433C8.42053 9.67211 8.32331 9.90822 8.12887 10.1027C7.93442 10.2971 7.69831 10.3943 7.42053 10.3943ZM7.42053 7.72766C7.14275 7.72766 6.90664 7.63044 6.7122 7.43599C6.51775 7.24155 6.42053 7.00544 6.42053 6.72766C6.42053 6.44988 6.51775 6.21377 6.7122 6.01933C6.90664 5.82488 7.14275 5.72766 7.42053 5.72766C7.69831 5.72766 7.93442 5.82488 8.12887 6.01933C8.32331 6.21377 8.42053 6.44988 8.42053 6.72766C8.42053 7.00544 8.32331 7.24155 8.12887 7.43599C7.93442 7.63044 7.69831 7.72766 7.42053 7.72766ZM7.42053 12.7277C7.23164 12.7277 7.07331 12.6638 6.94553 12.536C6.81775 12.4082 6.75387 12.2499 6.75387 12.061C6.75387 11.8721 6.81775 11.7138 6.94553 11.586C7.07331 11.4582 7.23164 11.3943 7.42053 11.3943C7.60942 11.3943 7.76776 11.4582 7.89553 11.586C8.02331 11.7138 8.0872 11.8721 8.0872 12.061C8.0872 12.2499 8.02331 12.4082 7.89553 12.536C7.76776 12.6638 7.60942 12.7277 7.42053 12.7277ZM7.42053 4.72766C7.23164 4.72766 7.07331 4.66377 6.94553 4.53599C6.81775 4.40822 6.75387 4.24988 6.75387 4.06099C6.75387 3.87211 6.81775 3.71377 6.94553 3.58599C7.07331 3.45822 7.23164 3.39433 7.42053 3.39433C7.60942 3.39433 7.76776 3.45822 7.89553 3.58599C8.02331 3.71377 8.0872 3.87211 8.0872 4.06099C8.0872 4.24988 8.02331 4.40822 7.89553 4.53599C7.76776 4.66377 7.60942 4.72766 7.42053 4.72766ZM7.42053 14.3943C7.33164 14.3943 7.25387 14.361 7.1872 14.2943C7.12053 14.2277 7.0872 14.1499 7.0872 14.061C7.0872 13.9721 7.12053 13.8943 7.1872 13.8277C7.25387 13.761 7.33164 13.7277 7.42053 13.7277C7.50942 13.7277 7.5872 13.761 7.65387 13.8277C7.72053 13.8943 7.75387 13.9721 7.75387 14.061C7.75387 14.1499 7.72053 14.2277 7.65387 14.2943C7.5872 14.361 7.50942 14.3943 7.42053 14.3943ZM7.42053 2.39433C7.33164 2.39433 7.25387 2.36099 7.1872 2.29433C7.12053 2.22766 7.0872 2.14988 7.0872 2.06099C7.0872 1.97211 7.12053 1.89433 7.1872 1.82766C7.25387 1.76099 7.33164 1.72766 7.42053 1.72766C7.50942 1.72766 7.5872 1.76099 7.65387 1.82766C7.72053 1.89433 7.75387 1.97211 7.75387 2.06099C7.75387 2.14988 7.72053 2.22766 7.65387 2.29433C7.5872 2.36099 7.50942 2.39433 7.42053 2.39433ZM10.0872 10.3943C9.80942 10.3943 9.57331 10.2971 9.37887 10.1027C9.18442 9.90822 9.0872 9.67211 9.0872 9.39433C9.0872 9.11655 9.18442 8.88044 9.37887 8.68599C9.57331 8.49155 9.80942 8.39433 10.0872 8.39433C10.365 8.39433 10.6011 8.49155 10.7955 8.68599C10.99 8.88044 11.0872 9.11655 11.0872 9.39433C11.0872 9.67211 10.99 9.90822 10.7955 10.1027C10.6011 10.2971 10.365 10.3943 10.0872 10.3943ZM10.0872 7.72766C9.80942 7.72766 9.57331 7.63044 9.37887 7.43599C9.18442 7.24155 9.0872 7.00544 9.0872 6.72766C9.0872 6.44988 9.18442 6.21377 9.37887 6.01933C9.57331 5.82488 9.80942 5.72766 10.0872 5.72766C10.365 5.72766 10.6011 5.82488 10.7955 6.01933C10.99 6.21377 11.0872 6.44988 11.0872 6.72766C11.0872 7.00544 10.99 7.24155 10.7955 7.43599C10.6011 7.63044 10.365 7.72766 10.0872 7.72766ZM10.0872 12.7277C9.89831 12.7277 9.73998 12.6638 9.6122 12.536C9.48442 12.4082 9.42053 12.2499 9.42053 12.061C9.42053 11.8721 9.48442 11.7138 9.6122 11.586C9.73998 11.4582 9.89831 11.3943 10.0872 11.3943C10.2761 11.3943 10.4344 11.4582 10.5622 11.586C10.69 11.7138 10.7539 11.8721 10.7539 12.061C10.7539 12.2499 10.69 12.4082 10.5622 12.536C10.4344 12.6638 10.2761 12.7277 10.0872 12.7277ZM10.0872 4.72766C9.89831 4.72766 9.73998 4.66377 9.6122 4.53599C9.48442 4.40822 9.42053 4.24988 9.42053 4.06099C9.42053 3.87211 9.48442 3.71377 9.6122 3.58599C9.73998 3.45822 9.89831 3.39433 10.0872 3.39433C10.2761 3.39433 10.4344 3.45822 10.5622 3.58599C10.69 3.71377 10.7539 3.87211 10.7539 4.06099C10.7539 4.24988 10.69 4.40822 10.5622 4.53599C10.4344 4.66377 10.2761 4.72766 10.0872 4.72766ZM10.0872 14.3943C9.99831 14.3943 9.92053 14.361 9.85387 14.2943C9.7872 14.2277 9.75387 14.1499 9.75387 14.061C9.75387 13.9721 9.7872 13.8943 9.85387 13.8277C9.92053 13.761 9.99831 13.7277 10.0872 13.7277C10.1761 13.7277 10.2539 13.761 10.3205 13.8277C10.3872 13.8943 10.4205 13.9721 10.4205 14.061C10.4205 14.1499 10.3872 14.2277 10.3205 14.2943C10.2539 14.361 10.1761 14.3943 10.0872 14.3943ZM10.0872 2.39433C9.99831 2.39433 9.92053 2.36099 9.85387 2.29433C9.7872 2.22766 9.75387 2.14988 9.75387 2.06099C9.75387 1.97211 9.7872 1.89433 9.85387 1.82766C9.92053 1.76099 9.99831 1.72766 10.0872 1.72766C10.1761 1.72766 10.2539 1.76099 10.3205 1.82766C10.3872 1.89433 10.4205 1.97211 10.4205 2.06099C10.4205 2.14988 10.3872 2.22766 10.3205 2.29433C10.2539 2.36099 10.1761 2.39433 10.0872 2.39433ZM12.7539 12.7277C12.565 12.7277 12.4066 12.6638 12.2789 12.536C12.1511 12.4082 12.0872 12.2499 12.0872 12.061C12.0872 11.8721 12.1511 11.7138 12.2789 11.586C12.4066 11.4582 12.565 11.3943 12.7539 11.3943C12.9428 11.3943 13.1011 11.4582 13.2289 11.586C13.3566 11.7138 13.4205 11.8721 13.4205 12.061C13.4205 12.2499 13.3566 12.4082 13.2289 12.536C13.1011 12.6638 12.9428 12.7277 12.7539 12.7277ZM12.7539 10.061C12.565 10.061 12.4066 9.99711 12.2789 9.86933C12.1511 9.74155 12.0872 9.58322 12.0872 9.39433C12.0872 9.20544 12.1511 9.04711 12.2789 8.91933C12.4066 8.79155 12.565 8.72766 12.7539 8.72766C12.9428 8.72766 13.1011 8.79155 13.2289 8.91933C13.3566 9.04711 13.4205 9.20544 13.4205 9.39433C13.4205 9.58322 13.3566 9.74155 13.2289 9.86933C13.1011 9.99711 12.9428 10.061 12.7539 10.061ZM12.7539 7.39433C12.565 7.39433 12.4066 7.33044 12.2789 7.20266C12.1511 7.07488 12.0872 6.91655 12.0872 6.72766C12.0872 6.53877 12.1511 6.38044 12.2789 6.25266C12.4066 6.12488 12.565 6.06099 12.7539 6.06099C12.9428 6.06099 13.1011 6.12488 13.2289 6.25266C13.3566 6.38044 13.4205 6.53877 13.4205 6.72766C13.4205 6.91655 13.3566 7.07488 13.2289 7.20266C13.1011 7.33044 12.9428 7.39433 12.7539 7.39433ZM12.7539 4.72766C12.565 4.72766 12.4066 4.66377 12.2789 4.53599C12.1511 4.40822 12.0872 4.24988 12.0872 4.06099C12.0872 3.87211 12.1511 3.71377 12.2789 3.58599C12.4066 3.45822 12.565 3.39433 12.7539 3.39433C12.9428 3.39433 13.1011 3.45822 13.2289 3.58599C13.3566 3.71377 13.4205 3.87211 13.4205 4.06099C13.4205 4.24988 13.3566 4.40822 13.2289 4.53599C13.1011 4.66377 12.9428 4.72766 12.7539 4.72766ZM14.7539 9.72766C14.665 9.72766 14.5872 9.69433 14.5205 9.62766C14.4539 9.561 14.4205 9.48322 14.4205 9.39433C14.4205 9.30544 14.4539 9.22766 14.5205 9.161C14.5872 9.09433 14.665 9.06099 14.7539 9.06099C14.8428 9.06099 14.9205 9.09433 14.9872 9.161C15.0539 9.22766 15.0872 9.30544 15.0872 9.39433C15.0872 9.48322 15.0539 9.561 14.9872 9.62766C14.9205 9.69433 14.8428 9.72766 14.7539 9.72766ZM14.7539 7.06099C14.665 7.06099 14.5872 7.02766 14.5205 6.96099C14.4539 6.89433 14.4205 6.81655 14.4205 6.72766C14.4205 6.63877 14.4539 6.56099 14.5205 6.49433C14.5872 6.42766 14.665 6.39433 14.7539 6.39433C14.8428 6.39433 14.9205 6.42766 14.9872 6.49433C15.0539 6.56099 15.0872 6.63877 15.0872 6.72766C15.0872 6.81655 15.0539 6.89433 14.9872 6.96099C14.9205 7.02766 14.8428 7.06099 14.7539 7.06099Z" fill="#E4F3FC"/>
</g>
</svg>
