<svg width="13" height="13" viewBox="0 0 13 13" fill="none" xmlns="http://www.w3.org/2000/svg">
<path d="M5 12.06C4.43333 12.06 3.94444 11.8628 3.53333 11.4683C3.12222 11.0739 2.88889 10.5989 2.83333 10.0433C2.16667 9.95444 1.61111 9.66 1.16667 9.16C0.722222 8.66 0.5 8.07111 0.5 7.39333C0.5 7.16 0.530556 6.92944 0.591667 6.70166C0.652778 6.47389 0.744444 6.26 0.866667 6.06C0.744444 5.86 0.652778 5.64889 0.591667 5.42666C0.530556 5.20444 0.5 4.97111 0.5 4.72666C0.5 4.04889 0.722222 3.46278 1.16667 2.96833C1.61111 2.47389 2.16111 2.18222 2.81667 2.09333C2.85 1.52666 3.07778 1.04611 3.5 0.651664C3.92222 0.25722 4.42222 0.0599976 5 0.0599976C5.28889 0.0599976 5.55833 0.115553 5.80833 0.226664C6.05833 0.337775 6.28889 0.487775 6.5 0.676664C6.7 0.487775 6.92778 0.337775 7.18333 0.226664C7.43889 0.115553 7.71111 0.0599976 8 0.0599976C8.57778 0.0599976 9.075 0.254442 9.49167 0.643331C9.90833 1.03222 10.1333 1.51 10.1667 2.07666C10.8222 2.16555 11.375 2.46 11.825 2.96C12.275 3.46 12.5 4.04889 12.5 4.72666C12.5 4.97111 12.4694 5.20444 12.4083 5.42666C12.3472 5.64889 12.2556 5.86 12.1333 6.06C12.2556 6.26 12.3472 6.47389 12.4083 6.70166C12.4694 6.92944 12.5 7.16 12.5 7.39333C12.5 8.08222 12.275 8.67389 11.825 9.16833C11.375 9.66278 10.8167 9.95444 10.15 10.0433C10.0944 10.5989 9.86389 11.0739 9.45833 11.4683C9.05278 11.8628 8.56667 12.06 8 12.06C7.72222 12.06 7.45278 12.0072 7.19167 11.9017C6.93056 11.7961 6.7 11.6489 6.5 11.46C6.28889 11.6489 6.05556 11.7961 5.8 11.9017C5.54444 12.0072 5.27778 12.06 5 12.06ZM7.16667 2.22666V9.89333C7.16667 10.1267 7.24722 10.3239 7.40833 10.485C7.56944 10.6461 7.76667 10.7267 8 10.7267C8.22222 10.7267 8.41389 10.6378 8.575 10.46C8.73611 10.2822 8.82222 10.0822 8.83333 9.86C8.6 9.77111 8.38611 9.65166 8.19167 9.50167C7.99722 9.35166 7.82222 9.17111 7.66667 8.96C7.55556 8.80444 7.51389 8.63778 7.54167 8.46C7.56944 8.28222 7.66111 8.13778 7.81667 8.02666C7.97222 7.91555 8.13889 7.87389 8.31667 7.90166C8.49444 7.92944 8.63889 8.02111 8.75 8.17666C8.87222 8.35444 9.02778 8.49055 9.21667 8.585C9.40556 8.67944 9.61111 8.72666 9.83333 8.72666C10.2 8.72666 10.5139 8.59611 10.775 8.335C11.0361 8.07389 11.1667 7.76 11.1667 7.39333C11.1667 7.33778 11.1639 7.28222 11.1583 7.22666C11.1528 7.17111 11.1389 7.11555 11.1167 7.06C10.9278 7.17111 10.725 7.25444 10.5083 7.31C10.2917 7.36555 10.0667 7.39333 9.83333 7.39333C9.64444 7.39333 9.48611 7.32944 9.35833 7.20166C9.23056 7.07389 9.16667 6.91555 9.16667 6.72666C9.16667 6.53778 9.23056 6.37944 9.35833 6.25166C9.48611 6.12389 9.64444 6.06 9.83333 6.06C10.2 6.06 10.5139 5.92944 10.775 5.66833C11.0361 5.40722 11.1667 5.09333 11.1667 4.72666C11.1667 4.36 11.0361 4.04889 10.775 3.79333C10.5139 3.53778 10.2 3.40444 9.83333 3.39333C9.71111 3.59333 9.55278 3.76833 9.35833 3.91833C9.16389 4.06833 8.95 4.18778 8.71667 4.27666C8.53889 4.34333 8.36667 4.33778 8.2 4.26C8.03333 4.18222 7.92222 4.05444 7.86667 3.87666C7.81111 3.69889 7.81945 3.52666 7.89167 3.36C7.96389 3.19333 8.08889 3.08222 8.26667 3.02666C8.43333 2.97111 8.56944 2.87111 8.675 2.72666C8.78056 2.58222 8.83333 2.41555 8.83333 2.22666C8.83333 1.99333 8.75278 1.79611 8.59167 1.635C8.43056 1.47389 8.23333 1.39333 8 1.39333C7.76667 1.39333 7.56944 1.47389 7.40833 1.635C7.24722 1.79611 7.16667 1.99333 7.16667 2.22666ZM5.83333 9.89333V2.22666C5.83333 1.99333 5.75278 1.79611 5.59167 1.635C5.43056 1.47389 5.23333 1.39333 5 1.39333C4.76667 1.39333 4.56944 1.47389 4.40833 1.635C4.24722 1.79611 4.16667 1.99333 4.16667 2.22666C4.16667 2.40444 4.21667 2.56833 4.31667 2.71833C4.41667 2.86833 4.55 2.97111 4.71667 3.02666C4.89444 3.08222 5.02222 3.19333 5.1 3.36C5.17778 3.52666 5.18889 3.69889 5.13333 3.87666C5.06667 4.05444 4.95 4.18222 4.78333 4.26C4.61667 4.33778 4.44444 4.34333 4.26667 4.27666C4.03333 4.18778 3.81944 4.06833 3.625 3.91833C3.43056 3.76833 3.27222 3.59333 3.15 3.39333C2.79444 3.40444 2.48611 3.54055 2.225 3.80166C1.96389 4.06278 1.83333 4.37111 1.83333 4.72666C1.83333 5.09333 1.96389 5.40722 2.225 5.66833C2.48611 5.92944 2.8 6.06 3.16667 6.06C3.35556 6.06 3.51389 6.12389 3.64167 6.25166C3.76944 6.37944 3.83333 6.53778 3.83333 6.72666C3.83333 6.91555 3.76944 7.07389 3.64167 7.20166C3.51389 7.32944 3.35556 7.39333 3.16667 7.39333C2.93333 7.39333 2.70833 7.36555 2.49167 7.31C2.275 7.25444 2.07222 7.17111 1.88333 7.06C1.86111 7.11555 1.84722 7.17111 1.84167 7.22666C1.83611 7.28222 1.83333 7.33778 1.83333 7.39333C1.83333 7.76 1.96389 8.07389 2.225 8.335C2.48611 8.59611 2.8 8.72666 3.16667 8.72666C3.38889 8.72666 3.59444 8.67944 3.78333 8.585C3.97222 8.49055 4.12778 8.35444 4.25 8.17666C4.36111 8.02111 4.50556 7.92944 4.68333 7.90166C4.86111 7.87389 5.02778 7.91555 5.18333 8.02666C5.33889 8.13778 5.43056 8.28222 5.45833 8.46C5.48611 8.63778 5.44444 8.80444 5.33333 8.96C5.17778 9.17111 5 9.35444 4.8 9.51C4.6 9.66555 4.38333 9.78778 4.15 9.87667C4.16111 10.0989 4.25 10.2961 4.41667 10.4683C4.58333 10.6406 4.77778 10.7267 5 10.7267C5.23333 10.7267 5.43056 10.6461 5.59167 10.485C5.75278 10.3239 5.83333 10.1267 5.83333 9.89333Z" fill="#F7F7F7"/>
</svg>
