<svg width="60" height="30" viewBox="0 0 60 30" fill="none" xmlns="http://www.w3.org/2000/svg">
<g clip-path="url(#clip0_930_758)">
<path d="M41.7741 19.0658C41.7741 19.011 41.7741 18.9561 41.7695 18.9013C41.7695 18.8967 41.7695 18.8922 41.7695 18.8876C41.7649 18.7277 41.7535 18.57 41.7375 18.4124C41.7192 18.2044 41.6941 17.9988 41.6644 17.7955C41.6507 17.7132 41.637 17.6287 41.621 17.5487C41.5867 17.3637 41.5502 17.1809 41.5068 17.0027C41.5068 16.9981 41.5068 16.989 41.5022 16.9844C41.4725 16.8656 41.4405 16.7445 41.4085 16.6257C41.3834 16.5343 41.356 16.4475 41.3285 16.3584C41.2966 16.2578 41.2623 16.1527 41.228 16.0522C41.1526 15.8352 41.0704 15.6181 40.9767 15.4079C40.9424 15.3257 40.9059 15.2434 40.867 15.1635C40.8236 15.0675 40.7779 14.9738 40.7299 14.8801C40.682 14.7819 40.634 14.6882 40.5814 14.5968C40.5403 14.5214 40.4992 14.446 40.4535 14.3706C40.4444 14.3547 40.4352 14.3364 40.4238 14.3204C40.3712 14.229 40.3141 14.1399 40.2593 14.0508C40.2067 13.9662 40.1519 13.884 40.0971 13.8017C39.9965 13.651 39.8892 13.5002 39.7772 13.3562C39.7338 13.2991 39.6904 13.242 39.6447 13.1871C39.6127 13.1437 39.5807 13.1026 39.5442 13.0615C39.4733 12.9747 39.4025 12.8901 39.3294 12.8079C39.2449 12.7119 39.158 12.616 39.0689 12.5246C38.9981 12.4492 38.925 12.3761 38.8496 12.3007C38.8062 12.2573 38.7651 12.2161 38.7194 12.175C38.6714 12.1293 38.6234 12.0836 38.5754 12.0402C38.5412 12.0082 38.5092 11.9785 38.4749 11.9488C38.4224 11.9008 38.3698 11.8551 38.315 11.8094C38.2716 11.7729 38.2304 11.7386 38.187 11.7043C38.1025 11.6335 38.0134 11.5627 37.9243 11.4942C37.8283 11.4188 37.7301 11.3456 37.6318 11.2771C37.609 11.2634 37.5884 11.2451 37.5633 11.2314C37.4947 11.1811 37.4239 11.1332 37.3531 11.0875C37.3165 11.0623 37.2777 11.0372 37.2389 11.0121C37.1657 10.9641 37.0903 10.9184 37.0149 10.8727C36.9921 10.859 36.9693 10.843 36.9441 10.8293C36.8619 10.7813 36.7796 10.7333 36.6974 10.6899C36.6677 10.6716 36.6357 10.6556 36.606 10.6374C36.5009 10.5803 36.3958 10.5254 36.2884 10.4729C36.197 10.4272 36.1033 10.3838 36.0097 10.3426C35.948 10.3129 35.8863 10.2855 35.8223 10.2604C35.7652 10.2353 35.7081 10.2101 35.651 10.1896C35.6121 10.1713 35.571 10.1553 35.5322 10.1416C35.4362 10.1005 35.3379 10.0639 35.2397 10.0319C35.2283 10.0273 35.2169 10.0228 35.2031 10.0182C35.0843 9.9748 34.961 9.93595 34.8399 9.8994C33.9214 9.61609 32.9435 9.46301 31.9314 9.46301C31.856 9.46301 31.7806 9.46301 31.7052 9.46758H31.7006C30.9421 9.48358 30.2087 9.58639 29.5027 9.76917C29.3953 9.79659 29.2879 9.824 29.1828 9.85599C29.0595 9.89026 28.9361 9.93139 28.8127 9.97251C24.9035 11.2771 22.0864 14.967 22.0864 19.3125C22.0864 19.3971 22.0864 19.4816 22.091 19.5662C22.1047 20.1556 22.1732 20.7314 22.2875 21.2934V21.298C22.3126 21.4191 22.34 21.5402 22.3697 21.659C22.3994 21.7801 22.4314 21.9012 22.4657 22.0177C22.5 22.1365 22.5365 22.2553 22.5754 22.3741C22.6142 22.4906 22.6553 22.6071 22.6965 22.7237C22.7307 22.8151 22.7627 22.9019 22.7993 22.9887C22.813 23.0321 22.8335 23.0732 22.8518 23.1166C22.8769 23.1806 22.9044 23.2469 22.9341 23.3086C22.9592 23.3634 22.982 23.4182 23.0072 23.4708C23.0506 23.569 23.0986 23.665 23.1465 23.7609C23.1877 23.8409 23.2288 23.9186 23.2699 23.9963C23.2882 24.0305 23.3065 24.0671 23.327 24.1014C23.3773 24.1905 23.4276 24.2796 23.4801 24.3641C23.5966 24.5606 23.72 24.7525 23.8502 24.9353C23.88 24.9787 23.9097 25.0198 23.9394 25.061C24.0399 25.2003 24.145 25.3397 24.2524 25.4722C24.2844 25.5133 24.3163 25.5545 24.3529 25.5933C24.4032 25.655 24.4534 25.7167 24.506 25.7761L24.5996 25.8812C24.6522 25.9429 24.707 26 24.7619 26.0594C24.8053 26.1074 24.851 26.1508 24.8967 26.1988C24.9675 26.2742 25.0429 26.3473 25.1183 26.4204C25.1777 26.4775 25.2371 26.5323 25.2965 26.5872C25.3673 26.6557 25.4404 26.7197 25.5135 26.7814C25.557 26.8225 25.6049 26.8591 25.6483 26.8956C25.7077 26.9459 25.7672 26.9939 25.8266 27.0396C25.8654 27.0693 25.902 27.099 25.9408 27.1287C26.0116 27.1835 26.0824 27.2383 26.1556 27.2909C26.2538 27.3617 26.352 27.4302 26.4526 27.4965C26.5234 27.5445 26.5965 27.5925 26.6696 27.6382C26.8158 27.7318 26.9644 27.8209 27.1151 27.9055C27.2065 27.9557 27.2956 28.006 27.387 28.054C27.4944 28.1111 27.6018 28.1636 27.7115 28.2162C27.8348 28.2756 27.9582 28.3304 28.0839 28.383C28.1684 28.4195 28.253 28.4538 28.3375 28.4881C28.4677 28.5406 28.6002 28.5886 28.7327 28.6343C28.8356 28.6686 28.9407 28.7029 29.0458 28.7348C29.0755 28.7463 29.1052 28.7554 29.1371 28.7623C29.2285 28.7897 29.3154 28.8148 29.4068 28.8377C29.4342 28.8468 29.4616 28.8514 29.489 28.8605C29.5941 28.8879 29.6969 28.913 29.802 28.9359C29.8066 28.9359 29.8089 28.9359 29.8134 28.9359C29.9322 28.961 30.0533 28.9862 30.1744 29.0067C30.7433 29.1072 31.3282 29.1621 31.9268 29.1621C32.466 29.1621 32.9892 29.1187 33.4987 29.0341C34.1567 28.9313 34.7965 28.7623 35.4019 28.5269C35.5756 28.463 35.7492 28.3921 35.9206 28.319C39.2951 26.8202 41.669 23.4799 41.7695 19.5753C41.7695 19.5205 41.7741 19.4656 41.7741 19.4085C41.7741 19.3765 41.7741 19.3445 41.7741 19.3125C41.7741 19.2326 41.7741 19.1549 41.7695 19.0772L41.7741 19.0658ZM30.7685 24.0785C28.6139 23.5576 27.0123 21.6179 27.0123 19.3011C27.0123 18.9721 27.0443 18.6545 27.106 18.3438C27.1129 18.3004 27.122 18.2547 27.1334 18.2113C27.1426 18.1656 27.154 18.1199 27.1677 18.0765C27.1928 17.9783 27.2202 17.8823 27.25 17.7886C27.2682 17.7292 27.2888 17.6698 27.3094 17.6127C27.3345 17.5487 27.3573 17.4848 27.3825 17.4253C27.3962 17.3888 27.4145 17.3522 27.4304 17.3157C27.4487 17.2723 27.4693 17.2266 27.4921 17.1832C27.4967 17.174 27.5013 17.1649 27.5058 17.1557C27.5378 17.0895 27.5698 17.0255 27.6064 16.9593C27.6406 16.8907 27.6795 16.8245 27.7206 16.7582C27.7252 16.7536 27.7275 16.7468 27.732 16.7422C27.7663 16.6851 27.8006 16.6303 27.8394 16.5754C27.8531 16.5571 27.8623 16.5389 27.876 16.5229C27.908 16.4749 27.9399 16.4292 27.9765 16.3835C27.9856 16.3698 27.9948 16.3561 28.0085 16.3401C28.0405 16.2967 28.0725 16.251 28.1113 16.2099C28.1273 16.187 28.1479 16.1596 28.1707 16.1368C28.205 16.0933 28.2415 16.0545 28.2804 16.0134C28.2849 16.0042 28.2941 15.9974 28.3009 15.9905C28.3443 15.9403 28.3923 15.8923 28.438 15.8466C28.4494 15.8352 28.4586 15.826 28.47 15.8169C28.5203 15.7643 28.5728 15.7141 28.6277 15.6661C28.6711 15.625 28.7145 15.5861 28.7579 15.5519C28.7853 15.5267 28.815 15.5016 28.8447 15.481C28.8675 15.4605 28.8904 15.4422 28.9155 15.4262C28.9544 15.3942 28.9932 15.3645 29.0343 15.3371C29.0549 15.3211 29.0755 15.3051 29.096 15.2937C29.1349 15.264 29.1714 15.2366 29.2125 15.2114C29.2468 15.1886 29.2811 15.1657 29.3176 15.1452C29.4753 15.0446 29.6375 14.9555 29.8066 14.8733C29.8546 14.8504 29.9025 14.8276 29.9505 14.807C30.1927 14.6996 30.444 14.6105 30.7045 14.5443C30.7662 14.5283 30.8301 14.5123 30.8941 14.5009C30.9901 14.478 31.086 14.462 31.1843 14.4483C31.3374 14.4255 31.4927 14.4072 31.6504 14.3981C31.6664 14.3981 31.6846 14.3981 31.7006 14.3981C31.7783 14.3935 31.856 14.3935 31.9337 14.3935C32.6145 14.3935 33.2611 14.5329 33.8529 14.7819C35.6167 15.5313 36.8527 17.2768 36.8527 19.3125C36.8527 19.6713 36.8139 20.0231 36.7408 20.3612C36.6951 20.576 36.6334 20.7839 36.5603 20.9873C36.5466 21.0261 36.5329 21.0649 36.5169 21.1015C36.5032 21.1426 36.4849 21.1815 36.4689 21.2203C36.4483 21.2729 36.4255 21.3231 36.4004 21.3734C36.3775 21.4305 36.3478 21.4853 36.3181 21.5402C36.2907 21.5996 36.2587 21.6567 36.2267 21.7138C36.2221 21.723 36.2176 21.7344 36.2107 21.7435C36.1833 21.7961 36.1513 21.8486 36.1193 21.9012C36.0485 22.0177 35.9708 22.1319 35.8886 22.2416C35.8474 22.2964 35.8063 22.3513 35.7629 22.4038C35.7218 22.4564 35.6807 22.5043 35.6327 22.5546C35.6327 22.5592 35.6327 22.5592 35.6281 22.5615C35.5847 22.614 35.539 22.662 35.491 22.71C35.4545 22.7511 35.4156 22.7899 35.3745 22.8288C35.3311 22.8722 35.2831 22.9156 35.2374 22.959C35.2077 22.9864 35.1757 23.0138 35.146 23.0413C35.0158 23.1532 34.8833 23.2583 34.7393 23.3565C34.7348 23.3611 34.7302 23.3611 34.7256 23.3657C34.6822 23.3954 34.6411 23.4251 34.5954 23.4525C34.552 23.4822 34.504 23.5096 34.4583 23.537C34.4126 23.5645 34.3669 23.5919 34.319 23.6193C34.1133 23.7335 33.8986 23.8341 33.6747 23.9163C33.6404 23.93 33.6061 23.9414 33.5718 23.9551C33.4051 24.0146 33.2337 24.0648 33.0601 24.1037C33.0258 24.1128 32.9915 24.1197 32.9595 24.1265C32.907 24.1379 32.8521 24.1494 32.7973 24.1585C32.7585 24.1653 32.7196 24.1722 32.6808 24.1768C32.5985 24.1905 32.5163 24.1996 32.434 24.2088C32.4158 24.2088 32.3975 24.2133 32.3792 24.2133C32.3404 24.2179 32.3015 24.2202 32.2627 24.2225C32.2513 24.2225 32.2421 24.227 32.2307 24.227C32.185 24.2316 32.137 24.2316 32.089 24.2316C32.0365 24.2316 31.9862 24.2362 31.9337 24.2362C31.5338 24.2362 31.1432 24.1882 30.7707 24.0968L30.7685 24.0785Z" fill="#131313"/>
<path d="M14.7902 0.730103V10.7693C13.3417 9.93077 11.6647 9.45326 9.87346 9.45326C4.43348 9.45554 0.0239258 13.8651 0.0239258 19.3028C0.0239258 24.7405 4.43348 29.15 9.87118 29.15C9.95571 29.15 10.0402 29.15 10.1248 29.1455C10.2436 29.1455 10.3647 29.1386 10.4835 29.1295C10.5338 29.1295 10.584 29.1249 10.632 29.1181C10.7554 29.1112 10.8765 29.0975 10.9998 29.0838C11.0912 29.0724 11.1826 29.0609 11.2717 29.0495C11.3266 29.0404 11.3814 29.0335 11.4385 29.0244C12.229 28.901 12.9853 28.6817 13.7004 28.3778C13.7735 28.3458 13.8489 28.3161 13.9197 28.2818C17.3377 26.7351 19.7161 23.2988 19.7161 19.3028V0.730103H14.7857H14.7902ZM10.1682 24.2104C10.1453 24.2104 10.1225 24.215 10.0997 24.215C10.0243 24.2196 9.94886 24.2196 9.87118 24.2196C7.1569 24.2196 4.95441 22.0194 4.95441 19.3028C4.95441 16.5862 7.1569 14.386 9.87118 14.386C12.5855 14.386 14.7879 16.5885 14.7879 19.3028C14.7879 20.9752 13.9517 22.4535 12.6768 23.3422C12.6768 23.3422 12.6723 23.3468 12.6677 23.3468C11.9503 23.8449 11.0935 24.1556 10.1682 24.2104Z" fill="#131313"/>
<path d="M59.9819 11.4916L57.4458 15.8097C56.5594 14.9255 55.337 14.3841 53.9845 14.3841C53.9068 14.3841 53.8291 14.3841 53.7514 14.3886C53.7377 14.3886 53.7217 14.3886 53.708 14.3886C51.1217 14.5326 49.0677 16.6757 49.0677 19.2985V29.1458H44.1372V19.2985C44.1372 14.7953 47.1622 10.9958 51.2907 9.82599C51.3067 9.82142 51.325 9.81685 51.341 9.81228C52.111 9.59752 52.9198 9.47414 53.756 9.45586C53.8337 9.45129 53.9091 9.45129 53.9867 9.45129C56.2441 9.45129 58.3232 10.2121 59.9842 11.4893L59.9819 11.4916Z" fill="#131313"/>
<path d="M31.9285 14.3876V9.45715C22.0813 9.45715 16.2095 24.2235 9.87158 24.2235V29.1539C19.7188 29.1539 24.5899 14.3876 31.9285 14.3876Z" fill="#131313"/>
<path d="M53.9871 14.3876V9.45715C44.1399 9.45715 38.2681 24.2235 31.9302 24.2235V29.1539C41.7774 29.1539 46.6485 14.3876 53.9871 14.3876Z" fill="#131313"/>
</g>
<defs>
<clipPath id="clip0_930_758">
<rect width="59.9603" height="28.432" fill="white" transform="translate(0.0239258 0.730103)"/>
</clipPath>
</defs>
</svg>
