<svg width="96" height="42" viewBox="0 0 96 42" fill="none" xmlns="http://www.w3.org/2000/svg">
<g clip-path="url(#clip0_2_35437)">
<path d="M36.6301 23.6783C36.6301 23.629 36.6301 23.5851 36.6246 23.5357C36.6246 23.533 36.6246 23.5275 36.6246 23.5248C36.6191 23.3849 36.6109 23.2506 36.5972 23.1108C36.5807 22.9298 36.5615 22.7516 36.5341 22.5734C36.5232 22.5021 36.5094 22.4281 36.4985 22.3595C36.4683 22.2005 36.4382 22.0415 36.3998 21.8852C36.3998 21.8797 36.3998 21.8742 36.397 21.8688C36.3724 21.7646 36.3449 21.6604 36.3148 21.5589C36.2928 21.4794 36.2709 21.4027 36.2462 21.3259C36.2188 21.2382 36.1887 21.1477 36.1585 21.0599C36.0927 20.8708 36.0214 20.6843 35.9419 20.5006C35.9117 20.4293 35.8788 20.3581 35.8459 20.2868C35.8076 20.2045 35.7692 20.1223 35.728 20.04C35.6869 19.955 35.6458 19.8728 35.5992 19.7933C35.5635 19.7275 35.5279 19.6617 35.4895 19.5959C35.4813 19.5821 35.4731 19.5657 35.4648 19.552C35.4182 19.4725 35.3716 19.3957 35.3223 19.3189C35.2757 19.2449 35.229 19.1736 35.1824 19.1023C35.0947 18.9707 35.0015 18.8419 34.9055 18.7158C34.8699 18.6664 34.8315 18.6171 34.7904 18.5677C34.763 18.5321 34.7355 18.4937 34.7026 18.458C34.6423 18.384 34.5793 18.31 34.5162 18.236C34.4422 18.1537 34.3681 18.0687 34.2914 17.9892C34.2311 17.9234 34.1653 17.8603 34.1022 17.7945C34.0666 17.7561 34.0282 17.7205 33.9898 17.6849C33.9487 17.6437 33.9075 17.6054 33.8637 17.567C33.8335 17.5395 33.8061 17.5149 33.7759 17.4875C33.7293 17.4463 33.6854 17.4052 33.6361 17.3668C33.6005 17.3339 33.5621 17.3038 33.5264 17.2763C33.4524 17.2133 33.3756 17.153 33.2989 17.0926C33.2166 17.0268 33.1316 16.9638 33.0439 16.9035C33.0247 16.8898 33.0055 16.876 32.9836 16.8623C32.9232 16.8185 32.8629 16.7773 32.7999 16.7362C32.767 16.7143 32.7341 16.6924 32.7012 16.6704C32.6381 16.6293 32.5723 16.5882 32.5065 16.5498C32.4873 16.5361 32.4654 16.5251 32.4462 16.5114C32.3749 16.4703 32.3036 16.4291 32.2323 16.3908C32.2076 16.3743 32.1802 16.3606 32.1528 16.3469C32.0623 16.2975 31.9691 16.2482 31.8786 16.2043C31.7991 16.1632 31.7196 16.1276 31.6374 16.0919C31.5825 16.0672 31.5304 16.0426 31.4729 16.0206C31.4235 15.9987 31.3742 15.9768 31.3248 15.9576C31.2919 15.9411 31.2563 15.9274 31.2206 15.9164C31.1384 15.8808 31.0534 15.8479 30.9656 15.8205C30.9574 15.815 30.9437 15.8122 30.9327 15.8068C30.8285 15.7711 30.7244 15.7355 30.6174 15.7026C29.8196 15.4558 28.9724 15.3242 28.0923 15.3242C28.0265 15.3242 27.9607 15.3242 27.8949 15.327H27.8894C27.2314 15.3407 26.5953 15.4311 25.9811 15.5874C25.8879 15.6121 25.7947 15.6368 25.7015 15.6615C25.5946 15.6916 25.4876 15.7273 25.3807 15.7629C21.9892 16.8952 19.5463 20.0976 19.5463 23.8675C19.5463 23.9415 19.5463 24.0156 19.549 24.0896C19.5627 24.6023 19.6203 25.1013 19.719 25.5866C19.7409 25.6962 19.7656 25.8004 19.7903 25.9046C19.815 26.0115 19.8451 26.113 19.8725 26.2172C19.9027 26.3214 19.9329 26.4228 19.9658 26.527C19.9987 26.6284 20.0343 26.7299 20.0727 26.8286C20.1028 26.9081 20.1303 26.9849 20.1632 27.0589C20.1769 27.0945 20.1933 27.1329 20.207 27.1686C20.229 27.2234 20.2536 27.281 20.2783 27.3358C20.3002 27.3852 20.3194 27.429 20.3414 27.4756C20.3798 27.5606 20.4209 27.6429 20.462 27.7279C20.4977 27.7964 20.5333 27.865 20.5689 27.9335C20.5854 27.9637 20.6018 27.9938 20.6183 28.024C20.6622 28.1008 20.706 28.1775 20.7499 28.2515C20.8513 28.4215 20.9583 28.5888 21.0707 28.7478C21.0954 28.7834 21.1228 28.8218 21.1474 28.8575C21.2352 28.9781 21.3257 29.0987 21.4189 29.2139C21.4463 29.2495 21.4737 29.2852 21.5066 29.3208C21.5505 29.3757 21.5943 29.4278 21.6382 29.4798L21.7205 29.5703C21.7671 29.6224 21.8137 29.6745 21.8603 29.7239C21.8987 29.765 21.9371 29.8034 21.9782 29.8445C22.0385 29.9103 22.1043 29.9734 22.1701 30.0364C22.2222 30.0858 22.2716 30.1351 22.3264 30.1817C22.3895 30.2421 22.4525 30.2969 22.5156 30.349C22.554 30.3846 22.5951 30.4175 22.6335 30.4477C22.6856 30.4916 22.7349 30.5327 22.787 30.5738C22.8199 30.5985 22.8528 30.6259 22.8857 30.6506C22.946 30.6999 23.0091 30.7438 23.0721 30.7904C23.1571 30.8507 23.2421 30.911 23.3299 30.9686C23.3929 31.0097 23.456 31.0509 23.5191 31.092C23.6452 31.1742 23.774 31.251 23.9056 31.325C23.9852 31.3689 24.0619 31.4128 24.1414 31.4539C24.2347 31.5033 24.3279 31.5499 24.4238 31.5937C24.5308 31.6458 24.6377 31.6924 24.7474 31.739C24.8214 31.7719 24.8954 31.8021 24.9694 31.8295C25.0818 31.8734 25.197 31.9173 25.3122 31.9556C25.4026 31.9858 25.4931 32.016 25.5836 32.0434C25.6083 32.0543 25.6357 32.0598 25.6631 32.0681C25.7426 32.0927 25.8194 32.1147 25.8961 32.1339C25.9208 32.1421 25.9455 32.1476 25.9674 32.1531C26.0579 32.1777 26.1484 32.1969 26.2389 32.2189C26.2416 32.2189 26.2443 32.2189 26.2498 32.2189C26.354 32.2408 26.4582 32.2627 26.5624 32.2819C27.0559 32.3696 27.5631 32.4163 28.0841 32.4163C28.5502 32.4163 29.0053 32.3779 29.4467 32.3066C30.017 32.2161 30.5708 32.0708 31.0972 31.8652C31.248 31.8103 31.3988 31.7473 31.5469 31.6842C34.4751 30.3846 36.5369 27.4866 36.6219 24.0978C36.6219 24.0485 36.6246 24.0018 36.6246 23.9525C36.6246 23.9251 36.6246 23.8977 36.6246 23.8702C36.6246 23.8017 36.6246 23.7332 36.6219 23.6646L36.6301 23.6783ZM27.0806 28.0295C25.2107 27.5771 23.8206 25.8936 23.8206 23.8839C23.8206 23.5988 23.8481 23.3219 23.9029 23.0532C23.9084 23.0148 23.9166 22.9764 23.9276 22.938C23.9358 22.8969 23.944 22.8585 23.9577 22.8202C23.9797 22.7352 24.0016 22.6529 24.029 22.5707C24.0455 22.5186 24.0619 22.4692 24.0811 22.4199C24.103 22.365 24.1222 22.3102 24.1442 22.2554C24.1579 22.2224 24.1716 22.1923 24.1853 22.1594C24.2017 22.121 24.2182 22.0826 24.2374 22.0442C24.2401 22.036 24.2456 22.0278 24.2484 22.0196C24.2758 21.962 24.3032 21.9071 24.3361 21.8496C24.3663 21.7893 24.3992 21.7317 24.4348 21.6741C24.4375 21.6686 24.4403 21.6631 24.4458 21.6604C24.4759 21.611 24.5061 21.5617 24.539 21.5151C24.55 21.4986 24.5609 21.4822 24.5719 21.4685C24.5993 21.4273 24.6267 21.3862 24.6596 21.3478C24.6678 21.3341 24.6761 21.3232 24.687 21.3122C24.7145 21.2738 24.7419 21.2354 24.7775 21.1998C24.7912 21.1778 24.8104 21.1559 24.8296 21.1367C24.8598 21.1011 24.8899 21.0654 24.9228 21.0298C24.9283 21.0216 24.9338 21.0161 24.9393 21.0079C24.9777 20.964 25.0188 20.9229 25.0572 20.8817C25.0681 20.8708 25.0736 20.8653 25.0846 20.8571C25.1285 20.8132 25.1751 20.7666 25.2217 20.7255C25.2573 20.6898 25.2957 20.6569 25.3341 20.6268C25.3588 20.6048 25.3834 20.5829 25.4081 20.5637C25.4273 20.5472 25.4492 20.5308 25.4684 20.5143C25.5013 20.4869 25.537 20.4622 25.5699 20.4376C25.5863 20.4239 25.6055 20.4102 25.6247 20.3992C25.6576 20.3745 25.6905 20.3498 25.7262 20.3279C25.7563 20.3087 25.7865 20.2868 25.8166 20.2703C25.9537 20.1826 26.0936 20.1058 26.2416 20.0345C26.2827 20.0126 26.3239 19.9934 26.3677 19.977C26.5761 19.8837 26.7954 19.807 27.023 19.7494C27.0778 19.7357 27.1327 19.722 27.1875 19.711C27.2698 19.6918 27.3548 19.6781 27.4398 19.6644C27.5714 19.6425 27.7057 19.6288 27.8455 19.6205C27.8592 19.6205 27.8757 19.6205 27.8894 19.6205C27.9579 19.6178 28.0237 19.615 28.0923 19.615C28.6818 19.615 29.2438 19.7357 29.7565 19.9523C31.2864 20.6021 32.3584 22.1183 32.3584 23.8839C32.3584 24.1965 32.3255 24.5008 32.2597 24.7942C32.2186 24.9806 32.1665 25.1616 32.1035 25.3371C32.0925 25.37 32.0788 25.4056 32.0678 25.4358C32.0541 25.4714 32.0404 25.5043 32.0267 25.5372C32.0102 25.5811 31.9883 25.6277 31.9664 25.6688C31.9444 25.7182 31.9225 25.7675 31.8951 25.8141C31.8704 25.8662 31.843 25.9156 31.8156 25.9649C31.8128 25.9732 31.8074 25.9814 31.8019 25.9896C31.7772 26.0362 31.7498 26.0801 31.7224 26.1267C31.6593 26.2281 31.5935 26.3268 31.5222 26.4201C31.4866 26.4694 31.4509 26.5133 31.4125 26.5599C31.3769 26.6038 31.3413 26.6476 31.3001 26.6915C31.3001 26.6942 31.3001 26.697 31.2946 26.697C31.259 26.7408 31.2179 26.7847 31.1767 26.8258C31.1438 26.8615 31.1109 26.8944 31.0753 26.9273C31.0369 26.9657 30.9958 27.0013 30.9574 27.0397C30.9327 27.0644 30.9053 27.089 30.8779 27.111C30.7655 27.2097 30.6503 27.3002 30.527 27.3852C30.5242 27.3879 30.5187 27.3906 30.5132 27.3934C30.4776 27.4181 30.4392 27.4455 30.4008 27.4674C30.3625 27.4921 30.3213 27.5168 30.2829 27.5414C30.2418 27.5661 30.2034 27.5908 30.1623 27.6127C29.9841 27.7114 29.7977 27.7992 29.603 27.8704C29.5728 27.8842 29.5427 27.8924 29.5125 27.9033C29.3672 27.9554 29.2191 27.9966 29.0683 28.0322C29.0382 28.0404 29.008 28.0459 28.9806 28.0541C28.934 28.0651 28.8874 28.0733 28.8408 28.0816C28.8079 28.087 28.7722 28.0925 28.7393 28.098C28.6681 28.109 28.5968 28.1172 28.5255 28.1254C28.509 28.1254 28.4926 28.1282 28.4761 28.1282C28.4432 28.1309 28.4076 28.1337 28.3747 28.1364C28.3637 28.1364 28.3582 28.1391 28.3473 28.1391C28.3061 28.1419 28.265 28.1419 28.2239 28.1446C28.18 28.1446 28.1334 28.1474 28.0895 28.1474C27.7413 28.1474 27.4041 28.1062 27.0806 28.0267V28.0295Z" fill="#131313"/>
<path d="M13.2153 7.76794V16.4785C11.9595 15.7519 10.5037 15.3379 8.9491 15.3379C4.23055 15.3379 0.403076 19.1654 0.403076 23.8839C0.403076 28.6025 4.23055 32.4299 8.9491 32.4299C9.02312 32.4299 9.09715 32.4299 9.17118 32.4272C9.27536 32.4272 9.37955 32.4217 9.48374 32.4135C9.52761 32.4135 9.57147 32.408 9.6126 32.4025C9.71953 32.397 9.82646 32.3861 9.93338 32.3724C10.0129 32.3614 10.0924 32.3532 10.1692 32.3422C10.2185 32.334 10.2651 32.3285 10.3145 32.3203C10.9999 32.2133 11.6552 32.0214 12.2776 31.761C12.3406 31.7335 12.4064 31.7061 12.4668 31.6787C15.4333 30.338 17.4951 27.355 17.4951 23.8867V7.76794H13.218H13.2153ZM9.20682 28.1419C9.18763 28.1419 9.1657 28.1446 9.1465 28.1446C9.0807 28.1473 9.0149 28.1501 8.9491 28.1501C6.59394 28.1501 4.68294 26.2418 4.68294 23.8839C4.68294 21.526 6.59394 19.6178 8.9491 19.6178C11.3043 19.6178 13.2153 21.5288 13.2153 23.8839C13.2153 25.3343 12.4914 26.6174 11.3838 27.3879C11.3838 27.3879 11.3783 27.3906 11.3755 27.3934C10.7532 27.8266 10.0102 28.0952 9.20682 28.1419Z" fill="#131313"/>
<path d="M52.4313 17.1063L50.2296 20.8543C49.4592 20.0866 48.4009 19.6178 47.2274 19.6178C47.1589 19.6178 47.0931 19.6178 47.0245 19.6232C47.0108 19.6232 46.9999 19.6232 46.9861 19.6232C44.7434 19.7494 42.9585 21.6083 42.9585 23.8839V32.4299H38.6814V23.8839C38.6814 19.9769 41.3052 16.6786 44.8887 15.6642C44.9024 15.6587 44.9189 15.6559 44.9326 15.6504C45.6016 15.464 46.3035 15.3571 47.0273 15.3406C47.0958 15.3379 47.1589 15.3379 47.2274 15.3379C49.1878 15.3379 50.9891 15.9987 52.4313 17.1063Z" fill="#131313"/>
<path d="M27.0806 28.0295L26.5679 32.2956C22.6444 31.591 19.6505 28.2077 19.5463 24.106L23.5931 19.1599L28.0868 19.6205C25.7316 19.6205 23.8206 21.5315 23.8206 23.8867C23.8206 25.8964 25.2107 27.5798 27.0806 28.0322V28.0295Z" fill="#131313"/>
<path d="M28.0892 19.6178V15.3407C19.5432 15.3407 14.449 28.1529 8.9491 28.1529V32.43C17.4951 32.43 21.7201 19.6178 28.0892 19.6178Z" fill="#131313"/>
<path d="M36.6323 23.8838C36.6323 23.9113 36.6323 23.9387 36.6323 23.9661C36.6323 24.0154 36.6323 24.0621 36.6295 24.1114L30.4798 30.549L28.089 28.1527C30.1343 28.1527 31.8424 26.7161 32.2592 24.7941C32.3222 24.5007 32.3579 24.1964 32.3579 23.8838C32.3579 22.1182 31.2859 20.602 29.756 19.9522L30.6141 15.7162C34.1016 16.7937 36.635 20.0427 36.635 23.8811L36.6323 23.8838Z" fill="#131313"/>
<path d="M47.2259 19.6178V15.3407C38.6799 15.3407 33.5858 28.1529 28.0858 28.1529V32.43C36.6318 32.43 40.8569 19.6178 47.2259 19.6178Z" fill="#131313"/>
</g>
<path d="M53.2481 11.306V7.09373H73.101V11.306H65.6778V31.7804H60.6714V11.306H53.2481ZM82.6296 31.7804L74.3087 7.09373H79.5567L83.9071 21.3878L84.9774 25.3239H85.0465C85.4378 23.7587 85.7946 22.4466 86.1168 21.3878L90.4327 7.09373H95.5081L87.1872 31.7804H82.6296Z" fill="#131313"/>
<defs>
<clipPath id="clip0_2_35437">
<rect width="52.0274" height="24.662" fill="white" transform="translate(0.403076 7.76794)"/>
</clipPath>
</defs>
</svg>
