<svg width="130" height="38" viewBox="0 0 130 38" fill="none" xmlns="http://www.w3.org/2000/svg">
<g clip-path="url(#clip0_2_35683)">
<path d="M70.7534 9.40982C65.3157 9.40982 60.9061 13.8194 60.9061 19.2571C60.9061 19.2594 60.9061 19.2639 60.9061 19.2662V37.8275H64.1962V26.6025C65.9371 28.1584 68.2356 29.1043 70.7534 29.1043C76.1934 29.1043 80.6006 24.6948 80.6006 19.2571C80.6006 13.8194 76.1911 9.40982 70.7534 9.40982ZM70.7534 25.7275C67.18 25.7275 64.283 22.8327 64.283 19.2594C64.283 15.686 67.18 12.789 70.7534 12.789C74.3267 12.789 77.2238 15.686 77.2238 19.2594C77.2238 22.8327 74.3267 25.7275 70.7534 25.7275Z" fill="#131313"/>
<path d="M85.9188 0.729645H82.6288V29.1039H85.9188V0.729645Z" fill="#131313"/>
<path d="M129.765 10.7262H126.388V19.2597C126.388 22.8354 123.493 25.7301 119.917 25.7301C116.342 25.7301 113.447 22.8331 113.447 19.2597V10.7285H110.07V19.2506C110.07 19.2506 110.07 19.2575 110.07 19.262C110.07 24.702 114.48 29.1093 119.917 29.1093C122.394 29.1093 124.658 28.1954 126.388 26.6852V27.9852C126.388 31.5608 123.493 34.4556 119.917 34.4556C118.122 34.4556 116.497 33.7245 115.327 32.5455L113.58 35.5203C115.293 36.9642 117.505 37.8324 119.92 37.8324C125.296 37.8324 129.666 33.5257 129.767 28.1725V10.7262H129.765Z" fill="#131313"/>
<path d="M98.0112 9.40982C92.5735 9.40982 88.1639 13.8194 88.1639 19.2571C88.1639 24.6948 92.5735 29.1043 98.0112 29.1043C100.531 29.1043 102.83 28.1607 104.571 26.6025V29.1043H107.861V19.2571C107.861 13.8194 103.451 9.40982 98.0135 9.40982H98.0112ZM98.0112 25.7275C94.4401 25.7275 91.5431 22.8327 91.5431 19.2594C91.5431 15.686 94.4401 12.789 98.0112 12.789C101.582 12.789 104.482 15.686 104.482 19.2594C104.482 22.8327 101.587 25.7275 98.0112 25.7275Z" fill="#131313"/>
<path d="M41.9883 19.0653C41.9883 19.0105 41.9883 18.9557 41.9837 18.9008C41.9837 18.8963 41.9837 18.8917 41.9837 18.8871C41.9792 18.7272 41.9677 18.5695 41.9518 18.4119C41.9335 18.204 41.9083 17.9984 41.8786 17.795C41.8649 17.7128 41.8512 17.6282 41.8352 17.5483C41.801 17.3632 41.7644 17.1804 41.721 17.0022C41.721 16.9976 41.721 16.9885 41.7164 16.9839C41.6867 16.8651 41.6547 16.744 41.6227 16.6252C41.5976 16.5338 41.5702 16.447 41.5428 16.3579C41.5108 16.2574 41.4765 16.1523 41.4423 16.0518C41.3669 15.8347 41.2846 15.6177 41.1909 15.4075C41.1567 15.3252 41.1201 15.243 41.0813 15.163C41.0379 15.067 40.9922 14.9734 40.9442 14.8797C40.8962 14.7814 40.8482 14.6878 40.7957 14.5964C40.7545 14.521 40.7134 14.4456 40.6677 14.3702C40.6586 14.3542 40.6494 14.3359 40.638 14.3199C40.5855 14.2285 40.5284 14.1394 40.4735 14.0503C40.421 13.9658 40.3661 13.8835 40.3113 13.8013C40.2108 13.6505 40.1034 13.4997 39.9914 13.3558C39.948 13.2986 39.9046 13.2415 39.8589 13.1867C39.8269 13.1433 39.795 13.1022 39.7584 13.061C39.6876 12.9742 39.6167 12.8897 39.5436 12.8074C39.4591 12.7115 39.3723 12.6155 39.2832 12.5241C39.2123 12.4487 39.1392 12.3756 39.0638 12.3002C39.0204 12.2568 38.9793 12.2157 38.9336 12.1745C38.8856 12.1289 38.8376 12.0832 38.7897 12.0397C38.7554 12.0078 38.7234 11.9781 38.6891 11.9484C38.6366 11.9004 38.584 11.8547 38.5292 11.809C38.4858 11.7724 38.4447 11.7382 38.4013 11.7039C38.3167 11.6331 38.2276 11.5622 38.1385 11.4937C38.0426 11.4183 37.9443 11.3452 37.8461 11.2766C37.8232 11.2629 37.8027 11.2447 37.7775 11.2309C37.709 11.1807 37.6382 11.1327 37.5673 11.087C37.5308 11.0619 37.4919 11.0367 37.4531 11.0116C37.38 10.9636 37.3046 10.9179 37.2292 10.8722C37.2063 10.8585 37.1835 10.8425 37.1584 10.8288C37.0761 10.7809 36.9939 10.7329 36.9116 10.6895C36.8819 10.6712 36.8499 10.6552 36.8202 10.6369C36.7151 10.5798 36.61 10.525 36.5026 10.4724C36.4112 10.4267 36.3176 10.3833 36.2239 10.3422C36.1622 10.3125 36.1005 10.2851 36.0365 10.2599C35.9794 10.2348 35.9223 10.2097 35.8652 10.1891C35.8263 10.1708 35.7852 10.1548 35.7464 10.1411C35.6504 10.1 35.5522 10.0634 35.4539 10.0315C35.4425 10.0269 35.4311 10.0223 35.4174 10.0177C35.2986 9.97434 35.1752 9.9355 35.0541 9.89894C34.1356 9.61563 33.1578 9.46255 32.1456 9.46255C32.0702 9.46255 31.9948 9.46256 31.9194 9.46712H31.9149C31.1563 9.48312 30.4229 9.58593 29.7169 9.76871C29.6096 9.79613 29.5022 9.82354 29.3971 9.85553C29.2737 9.8898 29.1503 9.93093 29.0269 9.97205C25.1178 11.2766 22.3007 14.9665 22.3007 19.3121C22.3007 19.3966 22.3007 19.4812 22.3052 19.5657C22.3189 20.1552 22.3875 20.7309 22.5017 21.293V21.2975C22.5269 21.4186 22.5543 21.5397 22.584 21.6585C22.6137 21.7796 22.6457 21.9007 22.6799 22.0172C22.7142 22.136 22.7508 22.2548 22.7896 22.3736C22.8284 22.4902 22.8696 22.6067 22.9107 22.7232C22.945 22.8146 22.9769 22.9014 23.0135 22.9882C23.0272 23.0317 23.0478 23.0728 23.0661 23.1162C23.0912 23.1802 23.1186 23.2464 23.1483 23.3081C23.1734 23.3629 23.1963 23.4178 23.2214 23.4703C23.2648 23.5686 23.3128 23.6645 23.3608 23.7605C23.4019 23.8405 23.443 23.9181 23.4842 23.9958C23.5024 24.0301 23.5207 24.0666 23.5413 24.1009C23.5915 24.19 23.6418 24.2791 23.6944 24.3637C23.8109 24.5601 23.9343 24.7521 24.0645 24.9348C24.0942 24.9783 24.1239 25.0194 24.1536 25.0605C24.2541 25.1999 24.3592 25.3392 24.4666 25.4718C24.4986 25.5129 24.5306 25.554 24.5671 25.5929C24.6174 25.6545 24.6677 25.7162 24.7202 25.7756L24.8139 25.8807C24.8664 25.9424 24.9213 25.9995 24.9761 26.0589C25.0195 26.1069 25.0652 26.1503 25.1109 26.1983C25.1817 26.2737 25.2571 26.3468 25.3325 26.4199C25.3919 26.4771 25.4513 26.5319 25.5107 26.5867C25.5816 26.6553 25.6547 26.7192 25.7278 26.7809C25.7712 26.822 25.8192 26.8586 25.8626 26.8952C25.922 26.9454 25.9814 26.9934 26.0408 27.0391C26.0796 27.0688 26.1162 27.0985 26.155 27.1282C26.2259 27.183 26.2967 27.2379 26.3698 27.2904C26.468 27.3612 26.5663 27.4298 26.6668 27.496C26.7376 27.544 26.8107 27.592 26.8839 27.6377C27.0301 27.7314 27.1786 27.8205 27.3294 27.905C27.4208 27.9553 27.5099 28.0055 27.6013 28.0535C27.7087 28.1106 27.816 28.1632 27.9257 28.2157C28.0491 28.2751 28.1725 28.33 28.2981 28.3825C28.3827 28.4191 28.4672 28.4534 28.5517 28.4876C28.682 28.5402 28.8145 28.5882 28.947 28.6339C29.0498 28.6681 29.1549 28.7024 29.26 28.7344C29.2897 28.7458 29.3194 28.7549 29.3514 28.7618C29.4428 28.7892 29.5296 28.8143 29.621 28.8372C29.6484 28.8463 29.6758 28.8509 29.7032 28.86C29.8083 28.8875 29.9111 28.9126 30.0162 28.9354C30.0208 28.9354 30.0231 28.9354 30.0277 28.9354C30.1465 28.9606 30.2676 28.9857 30.3887 29.0063C30.9576 29.1068 31.5425 29.1616 32.1411 29.1616C32.6803 29.1616 33.2035 29.1182 33.713 29.0337C34.371 28.9309 35.0107 28.7618 35.6162 28.5265C35.7898 28.4625 35.9634 28.3917 36.1348 28.3186C39.5094 26.8198 41.8832 23.4795 41.9837 19.5748C41.9837 19.52 41.9883 19.4652 41.9883 19.408C41.9883 19.3761 41.9883 19.3441 41.9883 19.3121C41.9883 19.2321 41.9883 19.1544 41.9837 19.0768L41.9883 19.0653ZM30.9827 24.0781C28.8282 23.5571 27.2266 21.6174 27.2266 19.3007C27.2266 18.9717 27.2586 18.6541 27.3202 18.3434C27.3271 18.2999 27.3362 18.2543 27.3477 18.2108C27.3568 18.1651 27.3682 18.1195 27.3819 18.076C27.4071 17.9778 27.4345 17.8818 27.4642 17.7882C27.4825 17.7288 27.503 17.6694 27.5236 17.6122C27.5487 17.5483 27.5716 17.4843 27.5967 17.4249C27.6104 17.3883 27.6287 17.3518 27.6447 17.3152C27.663 17.2718 27.6835 17.2261 27.7064 17.1827C27.7109 17.1736 27.7155 17.1644 27.7201 17.1553C27.7521 17.089 27.784 17.0251 27.8206 16.9588C27.8549 16.8903 27.8937 16.824 27.9348 16.7577C27.9394 16.7532 27.9417 16.7463 27.9463 16.7418C27.9805 16.6846 28.0148 16.6298 28.0536 16.575C28.0674 16.5567 28.0765 16.5384 28.0902 16.5224C28.1222 16.4744 28.1542 16.4287 28.1907 16.383C28.1999 16.3693 28.209 16.3556 28.2227 16.3396C28.2547 16.2962 28.2867 16.2505 28.3255 16.2094C28.3415 16.1866 28.3621 16.1591 28.3849 16.1363C28.4192 16.0929 28.4558 16.054 28.4946 16.0129C28.4992 16.0038 28.5083 15.9969 28.5152 15.9901C28.5586 15.9398 28.6066 15.8918 28.6523 15.8461C28.6637 15.8347 28.6728 15.8256 28.6842 15.8164C28.7345 15.7639 28.7871 15.7136 28.8419 15.6656C28.8853 15.6245 28.9287 15.5857 28.9721 15.5514C28.9995 15.5263 29.0292 15.5011 29.0589 15.4806C29.0818 15.46 29.1046 15.4417 29.1298 15.4257C29.1686 15.3938 29.2074 15.3641 29.2486 15.3366C29.2691 15.3206 29.2897 15.3046 29.3103 15.2932C29.3491 15.2635 29.3857 15.2361 29.4268 15.211C29.4611 15.1881 29.4953 15.1653 29.5319 15.1447C29.6895 15.0442 29.8517 14.9551 30.0208 14.8728C30.0688 14.85 30.1168 14.8271 30.1648 14.8066C30.4069 14.6992 30.6583 14.6101 30.9187 14.5438C30.9804 14.5278 31.0444 14.5118 31.1084 14.5004C31.2043 14.4776 31.3003 14.4616 31.3985 14.4479C31.5516 14.425 31.707 14.4067 31.8646 14.3976C31.8806 14.3976 31.8989 14.3976 31.9149 14.3976C31.9925 14.393 32.0702 14.393 32.1479 14.393C32.8288 14.393 33.4753 14.5324 34.0671 14.7814C35.8309 15.5308 37.067 17.2764 37.067 19.3121C37.067 19.6708 37.0281 20.0226 36.955 20.3608C36.9093 20.5756 36.8476 20.7835 36.7745 20.9868C36.7608 21.0256 36.7471 21.0645 36.7311 21.101C36.7174 21.1422 36.6991 21.181 36.6831 21.2199C36.6626 21.2724 36.6397 21.3227 36.6146 21.3729C36.5917 21.43 36.562 21.4849 36.5323 21.5397C36.5049 21.5991 36.4729 21.6562 36.4409 21.7134C36.4364 21.7225 36.4318 21.7339 36.425 21.7431C36.3975 21.7956 36.3655 21.8482 36.3336 21.9007C36.2627 22.0172 36.1851 22.1315 36.1028 22.2411C36.0617 22.296 36.0206 22.3508 35.9771 22.4034C35.936 22.4559 35.8949 22.5039 35.8469 22.5541C35.8469 22.5587 35.8469 22.5587 35.8423 22.561C35.7989 22.6135 35.7532 22.6615 35.7053 22.7095C35.6687 22.7506 35.6299 22.7895 35.5887 22.8283C35.5453 22.8717 35.4973 22.9151 35.4517 22.9585C35.4219 22.986 35.39 23.0134 35.3603 23.0408C35.23 23.1527 35.0975 23.2578 34.9536 23.3561C34.949 23.3607 34.9444 23.3607 34.9399 23.3652C34.8965 23.3949 34.8553 23.4246 34.8096 23.452C34.7662 23.4817 34.7183 23.5092 34.6726 23.5366C34.6269 23.564 34.5812 23.5914 34.5332 23.6188C34.3276 23.7331 34.1128 23.8336 33.8889 23.9159C33.8546 23.9296 33.8203 23.941 33.7861 23.9547C33.6193 24.0141 33.4479 24.0644 33.2743 24.1032C33.24 24.1123 33.2057 24.1192 33.1738 24.126C33.1212 24.1375 33.0664 24.1489 33.0115 24.158C32.9727 24.1649 32.9339 24.1717 32.895 24.1763C32.8128 24.19 32.7305 24.1992 32.6483 24.2083C32.63 24.2083 32.6117 24.2129 32.5934 24.2129C32.5546 24.2174 32.5158 24.2197 32.4769 24.222C32.4655 24.222 32.4564 24.2266 32.4449 24.2266C32.3992 24.2311 32.3513 24.2311 32.3033 24.2311C32.2507 24.2311 32.2005 24.2357 32.1479 24.2357C31.7481 24.2357 31.3574 24.1877 30.985 24.0963L30.9827 24.0781Z" fill="#131313"/>
<path d="M15.0045 0.729645V10.7688C13.5559 9.93031 11.8789 9.4528 10.0877 9.4528C4.64772 9.45508 0.238159 13.8646 0.238159 19.3023C0.238159 24.74 4.64772 29.1496 10.0854 29.1496C10.1699 29.1496 10.2545 29.1496 10.339 29.145C10.4578 29.145 10.5789 29.1382 10.6977 29.129C10.748 29.129 10.7983 29.1245 10.8462 29.1176C10.9696 29.1107 11.0907 29.097 11.2141 29.0833C11.3055 29.0719 11.3969 29.0605 11.486 29.0491C11.5408 29.0399 11.5956 29.0331 11.6527 29.0239C12.4433 28.9005 13.1995 28.6812 13.9146 28.3773C13.9878 28.3454 14.0632 28.3157 14.134 28.2814C17.552 26.7346 19.9304 23.2984 19.9304 19.3023V0.729645H14.9999H15.0045ZM10.3824 24.21C10.3596 24.21 10.3367 24.2145 10.3139 24.2145C10.2385 24.2191 10.1631 24.2191 10.0854 24.2191C7.37113 24.2191 5.16864 22.0189 5.16864 19.3023C5.16864 16.5858 7.37113 14.3856 10.0854 14.3856C12.7997 14.3856 15.0022 16.5881 15.0022 19.3023C15.0022 20.9748 14.166 22.453 12.8911 23.3418C12.8911 23.3418 12.8865 23.3463 12.8819 23.3463C12.1645 23.8444 11.3077 24.1551 10.3824 24.21Z" fill="#131313"/>
<path d="M60.1961 11.4911L57.6601 15.8093C56.7736 14.9251 55.5513 14.3836 54.1987 14.3836C54.121 14.3836 54.0433 14.3836 53.9656 14.3882C53.9519 14.3882 53.9359 14.3882 53.9222 14.3882C51.3359 14.5321 49.2819 16.6752 49.2819 19.2981V29.1453H44.3514V19.2981C44.3514 14.7949 47.3764 10.9953 51.505 9.82553C51.521 9.82096 51.5392 9.81639 51.5552 9.81183C52.3252 9.59706 53.134 9.47368 53.9702 9.45541C54.0479 9.45084 54.1233 9.45084 54.201 9.45084C56.4583 9.45084 58.5374 10.2117 60.1984 11.4888L60.1961 11.4911Z" fill="#131313"/>
<path d="M32.1427 14.3872V9.4567C22.2955 9.4567 16.4237 24.223 10.0858 24.223V29.1535C19.9331 29.1535 24.8041 14.3872 32.1427 14.3872Z" fill="#131313"/>
<path d="M54.2013 14.3872V9.4567C44.3541 9.4567 38.4823 24.223 32.1444 24.223V29.1535C41.9917 29.1535 46.8627 14.3872 54.2013 14.3872Z" fill="#131313"/>
</g>
<defs>
<clipPath id="clip0_2_35683">
<rect width="129.529" height="37.0997" fill="white" transform="translate(0.235474 0.730164)"/>
</clipPath>
</defs>
</svg>
