<svg width="96" height="42" viewBox="0 0 96 42" fill="none" xmlns="http://www.w3.org/2000/svg">
<g clip-path="url(#clip0_10_34607)">
<path d="M36.6301 23.6784C36.6301 23.629 36.6301 23.5852 36.6246 23.5358C36.6246 23.5331 36.6246 23.5276 36.6246 23.5249C36.6191 23.385 36.6109 23.2507 36.5972 23.1109C36.5808 22.9299 36.5616 22.7517 36.5342 22.5735C36.5232 22.5022 36.5095 22.4282 36.4985 22.3596C36.4683 22.2006 36.4382 22.0416 36.3998 21.8853C36.3998 21.8798 36.3998 21.8743 36.3971 21.8688C36.3724 21.7647 36.345 21.6605 36.3148 21.559C36.2929 21.4795 36.2709 21.4027 36.2463 21.326C36.2188 21.2382 36.1887 21.1478 36.1585 21.06C36.0927 20.8708 36.0214 20.6844 35.9419 20.5007C35.9118 20.4294 35.8789 20.3581 35.846 20.2869C35.8076 20.2046 35.7692 20.1223 35.7281 20.0401C35.687 19.9551 35.6458 19.8729 35.5992 19.7933C35.5636 19.7275 35.5279 19.6617 35.4895 19.5959C35.4813 19.5822 35.4731 19.5658 35.4649 19.5521C35.4183 19.4726 35.3717 19.3958 35.3223 19.319C35.2757 19.245 35.2291 19.1737 35.1825 19.1024C35.0947 18.9708 35.0015 18.842 34.9056 18.7158C34.8699 18.6665 34.8315 18.6171 34.7904 18.5678C34.763 18.5321 34.7356 18.4938 34.7027 18.4581C34.6423 18.3841 34.5793 18.3101 34.5162 18.236C34.4422 18.1538 34.3682 18.0688 34.2914 17.9893C34.2311 17.9235 34.1653 17.8604 34.1022 17.7946C34.0666 17.7562 34.0282 17.7206 33.9898 17.6849C33.9487 17.6438 33.9076 17.6054 33.8637 17.567C33.8335 17.5396 33.8061 17.5149 33.776 17.4875C33.7293 17.4464 33.6855 17.4053 33.6361 17.3669C33.6005 17.334 33.5621 17.3038 33.5265 17.2764C33.4524 17.2134 33.3757 17.153 33.2989 17.0927C33.2166 17.0269 33.1316 16.9639 33.0439 16.9035C33.0247 16.8898 33.0055 16.8761 32.9836 16.8624C32.9233 16.8185 32.863 16.7774 32.7999 16.7363C32.767 16.7144 32.7341 16.6924 32.7012 16.6705C32.6381 16.6294 32.5723 16.5882 32.5065 16.5499C32.4873 16.5361 32.4654 16.5252 32.4462 16.5115C32.3749 16.4703 32.3036 16.4292 32.2324 16.3908C32.2077 16.3744 32.1803 16.3607 32.1528 16.347C32.0624 16.2976 31.9691 16.2483 31.8787 16.2044C31.7992 16.1633 31.7196 16.1276 31.6374 16.092C31.5826 16.0673 31.5305 16.0426 31.4729 16.0207C31.4235 15.9988 31.3742 15.9768 31.3248 15.9576C31.2919 15.9412 31.2563 15.9275 31.2206 15.9165C31.1384 15.8809 31.0534 15.848 30.9657 15.8206C30.9574 15.8151 30.9437 15.8123 30.9328 15.8068C30.8286 15.7712 30.7244 15.7356 30.6175 15.7027C29.8196 15.4559 28.9724 15.3243 28.0923 15.3243C28.0265 15.3243 27.9607 15.3243 27.8949 15.327H27.8894C27.2314 15.3407 26.5953 15.4312 25.9812 15.5875C25.888 15.6122 25.7947 15.6369 25.7015 15.6615C25.5946 15.6917 25.4877 15.7273 25.3807 15.763C21.9892 16.8953 19.5463 20.0977 19.5463 23.8676C19.5463 23.9416 19.5463 24.0156 19.549 24.0897C19.5627 24.6024 19.6203 25.1014 19.719 25.5866C19.741 25.6963 19.7656 25.8005 19.7903 25.9047C19.815 26.0116 19.8451 26.1131 19.8726 26.2172C19.9027 26.3214 19.9329 26.4229 19.9658 26.5271C19.9987 26.6285 20.0343 26.73 20.0727 26.8287C20.1029 26.9082 20.1303 26.9849 20.1632 27.059C20.1769 27.0946 20.1933 27.133 20.2071 27.1686C20.229 27.2235 20.2537 27.281 20.2783 27.3359C20.3003 27.3852 20.3195 27.4291 20.3414 27.4757C20.3798 27.5607 20.4209 27.643 20.462 27.728C20.4977 27.7965 20.5333 27.865 20.569 27.9336C20.5854 27.9637 20.6019 27.9939 20.6183 28.0241C20.6622 28.1008 20.7061 28.1776 20.7499 28.2516C20.8514 28.4216 20.9583 28.5889 21.0707 28.7479C21.0954 28.7835 21.1228 28.8219 21.1475 28.8575C21.2352 28.9782 21.3257 29.0988 21.4189 29.214C21.4463 29.2496 21.4737 29.2853 21.5066 29.3209C21.5505 29.3757 21.5944 29.4278 21.6382 29.4799L21.7205 29.5704C21.7671 29.6225 21.8137 29.6746 21.8603 29.7239C21.8987 29.7651 21.9371 29.8035 21.9782 29.8446C22.0385 29.9104 22.1043 29.9734 22.1701 30.0365C22.2222 30.0859 22.2716 30.1352 22.3264 30.1818C22.3895 30.2421 22.4525 30.297 22.5156 30.3491C22.554 30.3847 22.5951 30.4176 22.6335 30.4478C22.6856 30.4916 22.7349 30.5328 22.787 30.5739C22.8199 30.5986 22.8528 30.626 22.8857 30.6507C22.9461 30.7 23.0091 30.7439 23.0722 30.7905C23.1572 30.8508 23.2422 30.9111 23.3299 30.9687C23.393 31.0098 23.456 31.0509 23.5191 31.0921C23.6452 31.1743 23.7741 31.2511 23.9057 31.3251C23.9852 31.369 24.062 31.4129 24.1415 31.454C24.2347 31.5033 24.3279 31.5499 24.4239 31.5938C24.5308 31.6459 24.6377 31.6925 24.7474 31.7391C24.8214 31.772 24.8954 31.8022 24.9695 31.8296C25.0819 31.8735 25.197 31.9173 25.3122 31.9557C25.4027 31.9859 25.4931 32.016 25.5836 32.0435C25.6083 32.0544 25.6357 32.0599 25.6631 32.0681C25.7426 32.0928 25.8194 32.1147 25.8962 32.1339C25.9209 32.1422 25.9455 32.1476 25.9675 32.1531C26.0579 32.1778 26.1484 32.197 26.2389 32.2189C26.2416 32.2189 26.2444 32.2189 26.2499 32.2189C26.354 32.2409 26.4582 32.2628 26.5624 32.282C27.0559 32.3697 27.5632 32.4163 28.0841 32.4163C28.5502 32.4163 29.0053 32.378 29.4467 32.3067C30.017 32.2162 30.5709 32.0709 31.0973 31.8652C31.2481 31.8104 31.3989 31.7474 31.5469 31.6843C34.4751 30.3847 36.5369 27.4867 36.6219 24.0979C36.6219 24.0485 36.6246 24.0019 36.6246 23.9526C36.6246 23.9251 36.6246 23.8977 36.6246 23.8703C36.6246 23.8018 36.6246 23.7332 36.6219 23.6647L36.6301 23.6784ZM27.0806 28.0295C25.2107 27.5772 23.8207 25.8937 23.8207 23.884C23.8207 23.5989 23.8481 23.322 23.9029 23.0533C23.9084 23.0149 23.9166 22.9765 23.9276 22.9381C23.9358 22.897 23.9441 22.8586 23.9578 22.8202C23.9797 22.7352 24.0016 22.653 24.029 22.5707C24.0455 22.5186 24.062 22.4693 24.0811 22.4199C24.1031 22.3651 24.1223 22.3103 24.1442 22.2554C24.1579 22.2225 24.1716 22.1924 24.1853 22.1595C24.2018 22.1211 24.2182 22.0827 24.2374 22.0443C24.2402 22.0361 24.2456 22.0279 24.2484 22.0196C24.2758 21.9621 24.3032 21.9072 24.3361 21.8496C24.3663 21.7893 24.3992 21.7318 24.4348 21.6742C24.4376 21.6687 24.4403 21.6632 24.4458 21.6605C24.476 21.6111 24.5061 21.5618 24.539 21.5152C24.55 21.4987 24.5609 21.4823 24.5719 21.4685C24.5993 21.4274 24.6268 21.3863 24.6597 21.3479C24.6679 21.3342 24.6761 21.3232 24.6871 21.3123C24.7145 21.2739 24.7419 21.2355 24.7775 21.1999C24.7913 21.1779 24.8104 21.156 24.8296 21.1368C24.8598 21.1012 24.89 21.0655 24.9229 21.0299C24.9283 21.0216 24.9338 21.0162 24.9393 21.0079C24.9777 20.9641 25.0188 20.9229 25.0572 20.8818C25.0682 20.8708 25.0737 20.8654 25.0846 20.8571C25.1285 20.8133 25.1751 20.7667 25.2217 20.7255C25.2574 20.6899 25.2957 20.657 25.3341 20.6268C25.3588 20.6049 25.3835 20.583 25.4081 20.5638C25.4273 20.5473 25.4493 20.5309 25.4685 20.5144C25.5014 20.487 25.537 20.4623 25.5699 20.4376C25.5864 20.4239 25.6056 20.4102 25.6247 20.3993C25.6576 20.3746 25.6905 20.3499 25.7262 20.328C25.7563 20.3088 25.7865 20.2869 25.8167 20.2704C25.9538 20.1827 26.0936 20.1059 26.2416 20.0346C26.2828 20.0127 26.3239 19.9935 26.3678 19.977C26.5761 19.8838 26.7955 19.807 27.023 19.7495C27.0779 19.7358 27.1327 19.7221 27.1875 19.7111C27.2698 19.6919 27.3548 19.6782 27.4398 19.6645C27.5714 19.6425 27.7057 19.6288 27.8456 19.6206C27.8593 19.6206 27.8757 19.6206 27.8894 19.6206C27.958 19.6179 28.0238 19.6151 28.0923 19.6151C28.6818 19.6151 29.2438 19.7358 29.7566 19.9524C31.2864 20.6022 32.3585 22.1183 32.3585 23.884C32.3585 24.1966 32.3256 24.5009 32.2598 24.7943C32.2186 24.9807 32.1666 25.1617 32.1035 25.3371C32.0925 25.3701 32.0788 25.4057 32.0678 25.4359C32.0541 25.4715 32.0404 25.5044 32.0267 25.5373C32.0103 25.5812 31.9883 25.6278 31.9664 25.6689C31.9445 25.7183 31.9225 25.7676 31.8951 25.8142C31.8704 25.8663 31.843 25.9157 31.8156 25.965C31.8129 25.9732 31.8074 25.9815 31.8019 25.9897C31.7772 26.0363 31.7498 26.0802 31.7224 26.1268C31.6593 26.2282 31.5935 26.3269 31.5222 26.4201C31.4866 26.4695 31.451 26.5134 31.4126 26.56C31.3769 26.6038 31.3413 26.6477 31.3002 26.6916C31.3002 26.6943 31.3002 26.6971 31.2947 26.6971C31.259 26.7409 31.2179 26.7848 31.1768 26.8259C31.1439 26.8616 31.111 26.8945 31.0753 26.9274C31.037 26.9657 30.9958 27.0014 30.9574 27.0398C30.9328 27.0644 30.9053 27.0891 30.8779 27.1111C30.7655 27.2098 30.6504 27.3002 30.527 27.3852C30.5242 27.388 30.5188 27.3907 30.5133 27.3935C30.4776 27.4181 30.4393 27.4456 30.4009 27.4675C30.3625 27.4922 30.3214 27.5168 30.283 27.5415C30.2418 27.5662 30.2035 27.5909 30.1623 27.6128C29.9841 27.7115 29.7977 27.7992 29.603 27.8705C29.5729 27.8842 29.5427 27.8925 29.5125 27.9034C29.3672 27.9555 29.2192 27.9966 29.0684 28.0323C29.0382 28.0405 29.0081 28.046 28.9806 28.0542C28.934 28.0652 28.8874 28.0734 28.8408 28.0816C28.8079 28.0871 28.7723 28.0926 28.7394 28.0981C28.6681 28.1091 28.5968 28.1173 28.5255 28.1255C28.5091 28.1255 28.4926 28.1282 28.4762 28.1282C28.4433 28.131 28.4076 28.1337 28.3747 28.1365C28.3637 28.1365 28.3583 28.1392 28.3473 28.1392C28.3062 28.142 28.265 28.142 28.2239 28.1447C28.1801 28.1447 28.1334 28.1474 28.0896 28.1474C27.7414 28.1474 27.4041 28.1063 27.0806 28.0268V28.0295Z" fill="#131313"/>
<path d="M13.2153 7.76804V16.4786C11.9596 15.752 10.5038 15.338 8.94919 15.338C4.23064 15.338 0.403168 19.1655 0.403168 23.884C0.403168 28.6026 4.23064 32.43 8.94919 32.43C9.02322 32.43 9.09724 32.43 9.17127 32.4273C9.27546 32.4273 9.37964 32.4218 9.48383 32.4136C9.5277 32.4136 9.57157 32.4081 9.61269 32.4026C9.71962 32.3971 9.82655 32.3862 9.93348 32.3725C10.013 32.3615 10.0925 32.3533 10.1693 32.3423C10.2186 32.3341 10.2652 32.3286 10.3146 32.3204C11 32.2134 11.6553 32.0215 12.2777 31.7611C12.3407 31.7336 12.4065 31.7062 12.4668 31.6788C15.4334 30.3381 17.4952 27.3551 17.4952 23.8868V7.76804H13.2181H13.2153ZM9.20691 28.1419C9.18772 28.1419 9.16579 28.1447 9.1466 28.1447C9.08079 28.1474 9.01499 28.1502 8.94919 28.1502C6.59403 28.1502 4.68303 26.2419 4.68303 23.884C4.68303 21.5261 6.59403 19.6179 8.94919 19.6179C11.3043 19.6179 13.2153 21.5289 13.2153 23.884C13.2153 25.3344 12.4915 26.6175 11.3839 27.388C11.3839 27.388 11.3784 27.3907 11.3756 27.3934C10.7533 27.8266 10.0102 28.0953 9.20691 28.1419Z" fill="#131313"/>
<path d="M52.4313 17.1065L50.2297 20.8544C49.4593 20.0867 48.4009 19.6179 47.2275 19.6179C47.1589 19.6179 47.0931 19.6179 47.0246 19.6234C47.0109 19.6234 46.9999 19.6234 46.9862 19.6234C44.7435 19.7495 42.9586 21.6084 42.9586 23.884V32.4301H38.6815V23.884C38.6815 19.9771 41.3053 16.6787 44.8888 15.6643C44.9025 15.6588 44.9189 15.6561 44.9326 15.6506C45.6016 15.4641 46.3035 15.3572 47.0273 15.3408C47.0959 15.338 47.1589 15.338 47.2275 15.338C49.1878 15.338 50.9892 15.9988 52.4313 17.1065Z" fill="#131313"/>
<path d="M27.0806 28.0296L26.5679 32.2957C22.6445 31.5911 19.6505 28.2078 19.5463 24.1061L23.5931 19.16L28.0868 19.6206C25.7317 19.6206 23.8207 21.5316 23.8207 23.8868C23.8207 25.8965 25.2107 27.5799 27.0806 28.0323V28.0296Z" fill="#131313"/>
<path d="M28.0893 19.6179V15.3408C19.5433 15.3408 14.4491 28.153 8.94919 28.153V32.4301C17.4952 32.4301 21.7202 19.6179 28.0893 19.6179Z" fill="#131313"/>
<path d="M36.6324 23.884C36.6324 23.9114 36.6324 23.9388 36.6324 23.9662C36.6324 24.0156 36.6324 24.0622 36.6296 24.1115L30.4799 30.5491L28.0891 28.1528C30.1345 28.1528 31.8426 26.7162 32.2593 24.7942C32.3224 24.5008 32.358 24.1965 32.358 23.884C32.358 22.1183 31.286 20.6021 29.7561 19.9523L30.6143 15.7163C34.1018 16.7938 36.6351 20.0428 36.6351 23.8812L36.6324 23.884Z" fill="#131313"/>
<path d="M47.226 19.6179V15.3408C38.68 15.3408 33.5858 28.153 28.0859 28.153V32.4301C36.6319 32.4301 40.857 19.6179 47.226 19.6179Z" fill="#131313"/>
</g>
<path d="M53.2481 11.3061V7.09381H73.101V11.3061H65.6778V31.7805H60.6714V11.3061H53.2481ZM82.6296 31.7805L74.3087 7.09381H79.5567L83.9071 21.3879L84.9774 25.324H85.0465C85.4378 23.7587 85.7946 22.4467 86.1168 21.3879L90.4327 7.09381H95.5081L87.1872 31.7805H82.6296Z" fill="#131313"/>
<defs>
<clipPath id="clip0_10_34607">
<rect width="52.0274" height="24.662" fill="white" transform="translate(0.403137 7.76801)"/>
</clipPath>
</defs>
</svg>
