<svg width="68" height="32" viewBox="0 0 68 32" fill="none" xmlns="http://www.w3.org/2000/svg">
<g clip-path="url(#clip0_2_35146)">
<path d="M47.0057 20.6442C47.0057 20.5802 47.0057 20.5233 46.9986 20.4593C46.9986 20.4557 46.9986 20.4486 46.9986 20.445C46.9915 20.2636 46.9808 20.0893 46.963 19.9078C46.9417 19.673 46.9168 19.4418 46.8812 19.2106C46.867 19.1181 46.8492 19.022 46.835 18.9331C46.7958 18.7267 46.7567 18.5204 46.7069 18.3176C46.7069 18.3105 46.7069 18.3034 46.7033 18.2963C46.6713 18.1611 46.6357 18.0259 46.5966 17.8943C46.5681 17.7911 46.5397 17.6915 46.5077 17.5919C46.4721 17.478 46.433 17.3606 46.3938 17.2468C46.3085 17.0013 46.216 16.7594 46.1128 16.5211C46.0737 16.4286 46.031 16.3361 45.9883 16.2436C45.9385 16.1369 45.8887 16.0301 45.8353 15.9234C45.7819 15.8131 45.7286 15.7064 45.6681 15.6032C45.6218 15.5178 45.5756 15.4325 45.5258 15.3471C45.5151 15.3293 45.5044 15.3079 45.4938 15.2902C45.4333 15.187 45.3728 15.0874 45.3088 14.9878C45.2483 14.8917 45.1878 14.7992 45.1273 14.7067C45.0135 14.536 44.8926 14.3688 44.768 14.2051C44.7218 14.1411 44.672 14.077 44.6186 14.013C44.583 13.9668 44.5475 13.917 44.5048 13.8707C44.4265 13.7747 44.3447 13.6786 44.2629 13.5825C44.1668 13.4758 44.0708 13.3655 43.9712 13.2624C43.8929 13.177 43.8075 13.0952 43.7257 13.0098C43.6794 12.96 43.6296 12.9137 43.5798 12.8675C43.5265 12.8141 43.4731 12.7643 43.4162 12.7145C43.377 12.6789 43.3415 12.6469 43.3023 12.6113C43.2419 12.558 43.1849 12.5046 43.1209 12.4548C43.0747 12.4121 43.0248 12.373 42.9786 12.3374C42.8825 12.2556 42.7829 12.1773 42.6833 12.0991C42.5766 12.0137 42.4663 11.9318 42.3525 11.8536C42.3276 11.8358 42.3027 11.818 42.2742 11.8002C42.1959 11.7433 42.1177 11.6899 42.0359 11.6366C41.9932 11.6081 41.9505 11.5797 41.9078 11.5512C41.826 11.4978 41.7406 11.4445 41.6552 11.3947C41.6303 11.3769 41.6018 11.3626 41.5769 11.3449C41.4844 11.2915 41.3919 11.2381 41.2994 11.1883C41.2674 11.167 41.2319 11.1492 41.1963 11.1314C41.0789 11.0674 40.9579 11.0033 40.8405 10.9464C40.7374 10.893 40.6342 10.8468 40.5275 10.8006C40.4563 10.7685 40.3887 10.7365 40.314 10.7081C40.25 10.6796 40.1859 10.6511 40.1219 10.6262C40.0792 10.6049 40.033 10.5871 39.9867 10.5729C39.88 10.5266 39.7697 10.4839 39.6559 10.4484C39.6452 10.4412 39.6274 10.4377 39.6132 10.4306C39.478 10.3843 39.3428 10.3381 39.2041 10.2954C38.1688 9.97521 37.0695 9.80444 35.9276 9.80444C35.8422 9.80444 35.7568 9.80444 35.6714 9.808H35.6643C34.8105 9.82579 33.9852 9.94319 33.1883 10.146C33.0673 10.178 32.9464 10.21 32.8254 10.242C32.6867 10.2812 32.5479 10.3274 32.4092 10.3736C28.0085 11.8429 24.8387 15.9981 24.8387 20.8897C24.8387 20.9858 24.8387 21.0818 24.8423 21.1779C24.8601 21.8431 24.9348 22.4906 25.0629 23.1203C25.0913 23.2626 25.1233 23.3978 25.1554 23.533C25.1874 23.6717 25.2265 23.8033 25.2621 23.9385C25.3012 24.0737 25.3404 24.2053 25.383 24.3405C25.4257 24.4721 25.472 24.6038 25.5218 24.7318C25.5609 24.835 25.5965 24.9346 25.6392 25.0307C25.657 25.0769 25.6783 25.1267 25.6961 25.173C25.7246 25.2441 25.7566 25.3188 25.7886 25.39C25.8171 25.454 25.842 25.5109 25.8704 25.5714C25.9202 25.6817 25.9736 25.7884 26.027 25.8987C26.0732 25.9877 26.1195 26.0766 26.1657 26.1655C26.1871 26.2047 26.2084 26.2438 26.2297 26.2829C26.2867 26.3825 26.3436 26.4822 26.4005 26.5782C26.5321 26.7988 26.6709 27.0158 26.8167 27.2221C26.8487 27.2684 26.8843 27.3182 26.9163 27.3644C27.0302 27.521 27.1476 27.6775 27.2685 27.8269C27.3041 27.8731 27.3397 27.9194 27.3824 27.9656C27.4393 28.0368 27.4962 28.1044 27.5531 28.172L27.6599 28.2894C27.7203 28.357 27.7808 28.4246 27.8413 28.4886C27.8911 28.542 27.9409 28.5918 27.9943 28.6451C28.0725 28.7305 28.1579 28.8123 28.2433 28.8942C28.3109 28.9582 28.3749 29.0222 28.4461 29.0827C28.5279 29.161 28.6097 29.2321 28.6916 29.2997C28.7414 29.346 28.7947 29.3887 28.8445 29.4278C28.9121 29.4847 28.9762 29.5381 29.0437 29.5914C29.0864 29.6235 29.1291 29.659 29.1718 29.691C29.2501 29.7551 29.3319 29.812 29.4137 29.8725C29.524 29.9507 29.6343 30.029 29.7481 30.1037C29.83 30.1571 29.9118 30.2104 29.9936 30.2638C30.1573 30.3705 30.3245 30.4701 30.4952 30.5662C30.5984 30.6231 30.698 30.68 30.8012 30.7334C30.9221 30.7974 31.0431 30.8579 31.1676 30.9148C31.3063 30.9824 31.4451 31.0429 31.5874 31.1034C31.6834 31.1461 31.7795 31.1852 31.8755 31.2208C32.0214 31.2777 32.1708 31.3346 32.3202 31.3844C32.4376 31.4236 32.555 31.4627 32.6724 31.4983C32.7044 31.5125 32.74 31.5196 32.7756 31.5303C32.8788 31.5623 32.9784 31.5908 33.078 31.6157C33.11 31.6263 33.142 31.6335 33.1705 31.6406C33.2879 31.6726 33.4053 31.6975 33.5227 31.726C33.5262 31.726 33.5298 31.726 33.5369 31.726C33.6721 31.7544 33.8073 31.7829 33.9425 31.8078C34.5828 31.9216 35.241 31.9821 35.9169 31.9821C36.5217 31.9821 37.1122 31.9323 37.685 31.8398C38.425 31.7224 39.1436 31.5338 39.8266 31.267C40.0223 31.1959 40.218 31.1141 40.4101 31.0322C44.2095 29.346 46.8848 25.5857 46.9951 21.1885C46.9951 21.1245 46.9986 21.064 46.9986 21C46.9986 20.9644 46.9986 20.9288 46.9986 20.8933C46.9986 20.8043 46.9986 20.7154 46.9951 20.6265L47.0057 20.6442ZM34.6148 26.29C32.1886 25.7031 30.3849 23.5187 30.3849 20.9111C30.3849 20.5411 30.4205 20.1818 30.4917 19.8331C30.4988 19.7833 30.5095 19.7335 30.5237 19.6837C30.5344 19.6303 30.545 19.5805 30.5628 19.5307C30.5913 19.4205 30.6197 19.3137 30.6553 19.207C30.6767 19.1394 30.698 19.0754 30.7229 19.0113C30.7514 18.9402 30.7763 18.869 30.8047 18.7979C30.8225 18.7552 30.8403 18.7161 30.8581 18.6734C30.8794 18.6236 30.9008 18.5738 30.9257 18.524C30.9292 18.5133 30.9364 18.5026 30.9399 18.4919C30.9755 18.4172 31.0111 18.3461 31.0538 18.2714C31.0929 18.1931 31.1356 18.1184 31.1818 18.0437C31.1854 18.0366 31.1889 18.0295 31.1961 18.0259C31.2352 17.9619 31.2743 17.8978 31.317 17.8374C31.3312 17.816 31.3455 17.7947 31.3597 17.7769C31.3953 17.7235 31.4309 17.6701 31.4735 17.6203C31.4842 17.6026 31.4949 17.5883 31.5091 17.5741C31.5447 17.5243 31.5803 17.4745 31.6265 17.4282C31.6443 17.3998 31.6692 17.3713 31.6941 17.3464C31.7332 17.3002 31.7724 17.2539 31.8151 17.2077C31.8222 17.197 31.8293 17.1899 31.8364 17.1792C31.8862 17.1223 31.9396 17.0689 31.9894 17.0156C32.0036 17.0013 32.0107 16.9942 32.025 16.9835C32.0819 16.9266 32.1424 16.8661 32.2028 16.8128C32.2491 16.7665 32.2989 16.7238 32.3487 16.6847C32.3807 16.6563 32.4127 16.6278 32.4447 16.6029C32.4697 16.5815 32.4981 16.5602 32.523 16.5389C32.5657 16.5033 32.612 16.4713 32.6546 16.4392C32.676 16.4215 32.7009 16.4037 32.7258 16.3894C32.7685 16.3574 32.8112 16.3254 32.8574 16.2969C32.8966 16.272 32.9357 16.2436 32.9748 16.2222C33.1527 16.1084 33.3341 16.0088 33.5262 15.9163C33.5796 15.8878 33.633 15.8629 33.6899 15.8416C33.9603 15.7206 34.2449 15.621 34.5401 15.5463C34.6113 15.5285 34.6824 15.5107 34.7536 15.4965C34.8603 15.4716 34.9706 15.4538 35.0809 15.436C35.2516 15.4076 35.426 15.3898 35.6074 15.3791C35.6252 15.3791 35.6465 15.3791 35.6643 15.3791C35.7533 15.3755 35.8386 15.372 35.9276 15.372C36.6924 15.372 37.4217 15.5285 38.087 15.8096C40.0721 16.6527 41.4631 18.62 41.4631 20.9111C41.4631 21.3166 41.4204 21.7115 41.335 22.0922C41.2817 22.3341 41.2141 22.5689 41.1322 22.7966C41.118 22.8392 41.1002 22.8855 41.086 22.9246C41.0682 22.9709 41.0504 23.0136 41.0326 23.0563C41.0113 23.1132 40.9828 23.1737 40.9544 23.227C40.9259 23.291 40.8974 23.3551 40.8619 23.4156C40.8299 23.4832 40.7943 23.5472 40.7587 23.6112C40.7551 23.6219 40.748 23.6326 40.7409 23.6432C40.7089 23.7037 40.6733 23.7606 40.6377 23.8211C40.5559 23.9527 40.4705 24.0808 40.378 24.2018C40.3318 24.2658 40.2855 24.3227 40.2357 24.3832C40.1895 24.4401 40.1432 24.4971 40.0899 24.554C40.0899 24.5575 40.0899 24.5611 40.0828 24.5611C40.0365 24.618 39.9832 24.6749 39.9298 24.7283C39.8871 24.7745 39.8444 24.8172 39.7982 24.8599C39.7484 24.9097 39.695 24.956 39.6452 25.0058C39.6132 25.0378 39.5776 25.0698 39.542 25.0983C39.3962 25.2263 39.2468 25.3437 39.0867 25.454C39.0831 25.4576 39.076 25.4611 39.0689 25.4647C39.0226 25.4967 38.9728 25.5323 38.923 25.5608C38.8732 25.5928 38.8198 25.6248 38.77 25.6568C38.7167 25.6888 38.6669 25.7208 38.6135 25.7493C38.3823 25.8774 38.1404 25.9912 37.8878 26.0837C37.8486 26.1015 37.8095 26.1122 37.7704 26.1264C37.5818 26.194 37.3897 26.2474 37.1941 26.2936C37.1549 26.3043 37.1158 26.3114 37.0802 26.3221C37.0197 26.3363 36.9593 26.347 36.8988 26.3576C36.8561 26.3648 36.8098 26.3719 36.7671 26.379C36.6747 26.3932 36.5822 26.4039 36.4897 26.4146C36.4683 26.4146 36.447 26.4181 36.4256 26.4181C36.3829 26.4217 36.3367 26.4252 36.294 26.4288C36.2798 26.4288 36.2727 26.4324 36.2584 26.4324C36.2051 26.4359 36.1517 26.4359 36.0983 26.4395C36.0414 26.4395 35.9809 26.443 35.924 26.443C35.4722 26.443 35.0346 26.3897 34.6148 26.2865V26.29Z" fill="#DA0C15"/>
<path d="M16.6243 0V11.3023C14.995 10.3595 13.1059 9.82235 11.0888 9.82235C4.96632 9.82235 0 14.7887 0 20.9112C0 27.0337 4.96632 32 11.0888 32C11.1849 32 11.2809 32 11.377 31.9964C11.5122 31.9964 11.6474 31.9893 11.7825 31.9787C11.8395 31.9787 11.8964 31.9715 11.9498 31.9644C12.0885 31.9573 12.2272 31.9431 12.366 31.9253C12.4691 31.9111 12.5723 31.9004 12.6719 31.8862C12.736 31.8755 12.7964 31.8684 12.8605 31.8577C13.7499 31.719 14.6001 31.4699 15.4077 31.132C15.4895 31.0964 15.5749 31.0608 15.6531 31.0252C19.5024 29.2856 22.1777 25.415 22.1777 20.9147V0H16.6279H16.6243ZM11.4232 26.436C11.3983 26.436 11.3699 26.4396 11.345 26.4396C11.2596 26.4431 11.1742 26.4467 11.0888 26.4467C8.03291 26.4467 5.55331 23.9707 5.55331 20.9112C5.55331 17.8517 8.03291 15.3757 11.0888 15.3757C14.1447 15.3757 16.6243 17.8553 16.6243 20.9112C16.6243 22.7931 15.6852 24.458 14.2479 25.4577C14.2479 25.4577 14.2408 25.4613 14.2372 25.4648C13.4297 26.0269 12.4656 26.3755 11.4232 26.436Z" fill="#DA0C15"/>
<path d="M67.5078 12.1169L64.6511 16.98C63.6514 15.9839 62.2782 15.3756 60.7556 15.3756C60.6666 15.3756 60.5813 15.3756 60.4923 15.3827C60.4745 15.3827 60.4603 15.3827 60.4425 15.3827C57.5324 15.5463 55.2165 17.9583 55.2165 20.9111V31.9999H49.6667V20.9111C49.6667 15.8416 53.0713 11.5619 57.721 10.2456C57.7388 10.2385 57.7601 10.2349 57.7779 10.2278C58.646 9.98591 59.5567 9.84717 60.4959 9.82582C60.5848 9.82227 60.6666 9.82227 60.7556 9.82227C63.2992 9.82227 65.6365 10.6796 67.5078 12.1169Z" fill="#DA0C15"/>
<path d="M34.6148 26.2901L33.9496 31.8256C28.8588 30.9113 24.9739 26.5214 24.8387 21.1993L30.0897 14.7815L35.9205 15.3792C32.8645 15.3792 30.3849 17.8588 30.3849 20.9147C30.3849 23.5224 32.1886 25.7067 34.6148 26.2937V26.2901Z" fill="url(#paint0_linear_2_35146)"/>
<path d="M35.924 15.3757V9.82593C24.8352 9.82593 18.2253 26.4503 11.0889 26.4503V32C22.1777 32 27.6599 15.3757 35.924 15.3757Z" fill="#DA0C15"/>
<path d="M47.0092 20.9111C47.0092 20.9467 47.0092 20.9823 47.0092 21.0178C47.0092 21.0819 47.0092 21.1424 47.0057 21.2064L39.0261 29.5595L35.924 26.4502C38.5779 26.4502 40.7942 24.5861 41.335 22.0922C41.4168 21.7116 41.463 21.3167 41.463 20.9111C41.463 18.6201 40.072 16.6528 38.0869 15.8096L39.2004 10.3132C43.7256 11.7113 47.0128 15.927 47.0128 20.9076L47.0092 20.9111Z" fill="url(#paint1_linear_2_35146)"/>
<path d="M60.7555 15.3757V9.82593C49.6667 9.82593 43.0568 26.4503 35.9204 26.4503V32C47.0092 32 52.4914 15.3757 60.7555 15.3757Z" fill="#DA0C15"/>
</g>
<defs>
<linearGradient id="paint0_linear_2_35146" x1="28.9939" y1="18.7659" x2="34.5864" y2="24.9133" gradientUnits="userSpaceOnUse">
<stop offset="0.08" stop-color="#8A1812"/>
<stop offset="0.24" stop-color="#921612"/>
<stop offset="0.5" stop-color="#AA1313"/>
<stop offset="0.82" stop-color="#D10D14"/>
<stop offset="0.89" stop-color="#DA0C15"/>
</linearGradient>
<linearGradient id="paint1_linear_2_35146" x1="42.7473" y1="22.448" x2="37.0837" y2="17.6168" gradientUnits="userSpaceOnUse">
<stop offset="0.08" stop-color="#8A1812"/>
<stop offset="0.24" stop-color="#921612"/>
<stop offset="0.5" stop-color="#AA1313"/>
<stop offset="0.82" stop-color="#D10D14"/>
<stop offset="0.89" stop-color="#DA0C15"/>
</linearGradient>
<clipPath id="clip0_2_35146">
<rect width="67.5077" height="32" fill="white"/>
</clipPath>
</defs>
</svg>
