<svg width="11" height="17" viewBox="0 0 11 17" fill="none" xmlns="http://www.w3.org/2000/svg">
<path d="M1.52057 3.16097L0.587238 2.22764C1.24279 1.53875 2.01224 1.00542 2.89557 0.627641C3.7789 0.249863 4.73168 0.0609741 5.7539 0.0609741C6.77613 0.0609741 7.7289 0.249863 8.61224 0.627641C9.49557 1.00542 10.265 1.53875 10.9206 2.22764L9.98724 3.16097C9.45391 2.60542 8.82335 2.17209 8.09557 1.86097C7.36779 1.54986 6.58724 1.39431 5.7539 1.39431C4.92057 1.39431 4.14002 1.54986 3.41224 1.86097C2.68446 2.17209 2.0539 2.60542 1.52057 3.16097ZM3.38724 5.02764L2.4539 4.09431C2.87613 3.67209 3.36779 3.33875 3.92891 3.09431C4.49002 2.84986 5.09835 2.72764 5.7539 2.72764C6.40946 2.72764 7.01779 2.84986 7.5789 3.09431C8.14002 3.33875 8.63168 3.67209 9.0539 4.09431L8.12057 5.02764C7.82057 4.72764 7.46779 4.49153 7.06224 4.31931C6.65668 4.14709 6.22057 4.06097 5.7539 4.06097C5.28724 4.06097 4.85113 4.14709 4.44557 4.31931C4.04002 4.49153 3.68724 4.72764 3.38724 5.02764ZM5.7539 16.061C5.12057 16.061 4.57335 15.8304 4.11224 15.3693C3.65113 14.9082 3.42057 14.361 3.42057 13.7276V8.36097C3.42057 7.72764 3.65113 7.18042 4.11224 6.71931C4.57335 6.2582 5.12057 6.02764 5.7539 6.02764C6.38724 6.02764 6.93446 6.2582 7.39557 6.71931C7.85668 7.18042 8.08724 7.72764 8.08724 8.36097V13.7276C8.08724 14.361 7.85668 14.9082 7.39557 15.3693C6.93446 15.8304 6.38724 16.061 5.7539 16.061ZM5.7539 9.72764C6.12057 9.72764 6.43446 9.59709 6.69557 9.33597C6.95668 9.07486 7.08724 8.76097 7.08724 8.39431C7.08724 8.02764 6.95668 7.71375 6.69557 7.45264C6.43446 7.19153 6.12057 7.06097 5.7539 7.06097C5.38724 7.06097 5.07335 7.19153 4.81224 7.45264C4.55113 7.71375 4.42057 8.02764 4.42057 8.39431C4.42057 8.76097 4.55113 9.07486 4.81224 9.33597C5.07335 9.59709 5.38724 9.72764 5.7539 9.72764Z" fill="#F7F7F7"/>
</svg>
