<svg width="14" height="14" viewBox="0 0 14 14" fill="none" xmlns="http://www.w3.org/2000/svg">
<path d="M7.00004 13.7267C6.07782 13.7267 5.21115 13.5517 4.40004 13.2017C3.58893 12.8517 2.88337 12.3767 2.28337 11.7767C1.68337 11.1767 1.20837 10.4711 0.858374 9.66001C0.508374 8.8489 0.333374 7.98223 0.333374 7.06001C0.333374 6.13778 0.508374 5.27112 0.858374 4.46001C1.20837 3.6489 1.68337 2.94334 2.28337 2.34334C2.88337 1.74334 3.58893 1.26834 4.40004 0.918341C5.21115 0.568341 6.07782 0.393341 7.00004 0.393341C7.92226 0.393341 8.78893 0.568341 9.60004 0.918341C10.4112 1.26834 11.1167 1.74334 11.7167 2.34334C12.3167 2.94334 12.7917 3.6489 13.1417 4.46001C13.4917 5.27112 13.6667 6.13778 13.6667 7.06001C13.6667 7.98223 13.4917 8.8489 13.1417 9.66001C12.7917 10.4711 12.3167 11.1767 11.7167 11.7767C11.1167 12.3767 10.4112 12.8517 9.60004 13.2017C8.78893 13.5517 7.92226 13.7267 7.00004 13.7267ZM7.00004 12.3933C8.48893 12.3933 9.75004 11.8767 10.7834 10.8433C11.8167 9.81001 12.3334 8.5489 12.3334 7.06001C12.3334 5.57112 11.8167 4.31001 10.7834 3.27667C9.75004 2.24334 8.48893 1.72667 7.00004 1.72667C5.51115 1.72667 4.25004 2.24334 3.21671 3.27667C2.18337 4.31001 1.66671 5.57112 1.66671 7.06001C1.66671 8.5489 2.18337 9.81001 3.21671 10.8433C4.25004 11.8767 5.51115 12.3933 7.00004 12.3933ZM7.00004 11.06C5.88893 11.06 4.94448 10.6711 4.16671 9.89334C3.38893 9.11556 3.00004 8.17112 3.00004 7.06001C3.00004 5.9489 3.38893 5.00445 4.16671 4.22667C4.94448 3.4489 5.88893 3.06001 7.00004 3.06001C8.11115 3.06001 9.0556 3.4489 9.83337 4.22667C10.6112 5.00445 11 5.9489 11 7.06001C11 8.17112 10.6112 9.11556 9.83337 9.89334C9.0556 10.6711 8.11115 11.06 7.00004 11.06ZM7.00004 9.72667C7.73337 9.72667 8.36115 9.46556 8.88337 8.94334C9.4056 8.42112 9.66671 7.79334 9.66671 7.06001C9.66671 6.32667 9.4056 5.6989 8.88337 5.17667C8.36115 4.65445 7.73337 4.39334 7.00004 4.39334C6.26671 4.39334 5.63893 4.65445 5.11671 5.17667C4.59448 5.6989 4.33337 6.32667 4.33337 7.06001C4.33337 7.79334 4.59448 8.42112 5.11671 8.94334C5.63893 9.46556 6.26671 9.72667 7.00004 9.72667ZM7.00004 8.39334C6.63337 8.39334 6.31949 8.26279 6.05837 8.00167C5.79726 7.74056 5.66671 7.42667 5.66671 7.06001C5.66671 6.69334 5.79726 6.37945 6.05837 6.11834C6.31949 5.85723 6.63337 5.72667 7.00004 5.72667C7.36671 5.72667 7.6806 5.85723 7.94171 6.11834C8.20282 6.37945 8.33337 6.69334 8.33337 7.06001C8.33337 7.42667 8.20282 7.74056 7.94171 8.00167C7.6806 8.26279 7.36671 8.39334 7.00004 8.39334Z" fill="#F7F7F7"/>
</svg>
