<svg width="12" height="13" viewBox="0 0 12 13" fill="none" xmlns="http://www.w3.org/2000/svg">
<path d="M1.33724 12.061C0.970573 12.061 0.656684 11.9304 0.395573 11.6693C0.134462 11.4082 0.00390625 11.0943 0.00390625 10.7276V2.72764H9.33724V12.061H1.33724ZM1.33724 10.061H8.00391L5.73724 7.06097L4.00391 9.39431L2.93724 7.96097L1.33724 10.061ZM1.33724 1.39431H0.00390625C0.00390625 1.02764 0.134462 0.713752 0.395573 0.452641C0.656684 0.19153 0.970573 0.0609741 1.33724 0.0609741V1.39431ZM2.67057 1.39431V0.0609741H4.00391V1.39431H2.67057ZM5.33724 1.39431V0.0609741H6.67057V1.39431H5.33724ZM8.00391 1.39431V0.0609741H9.33724V1.39431H8.00391ZM10.6706 1.39431V0.0609741C11.0372 0.0609741 11.3511 0.19153 11.6122 0.452641C11.8734 0.713752 12.0039 1.02764 12.0039 1.39431H10.6706ZM10.6706 10.7276H12.0039C12.0039 11.0943 11.8734 11.4082 11.6122 11.6693C11.3511 11.9304 11.0372 12.061 10.6706 12.061V10.7276ZM10.6706 9.39431V8.06097H12.0039V9.39431H10.6706ZM10.6706 6.72764V5.39431H12.0039V6.72764H10.6706ZM10.6706 4.06097V2.72764H12.0039V4.06097H10.6706Z" fill="#E4F3FC"/>
</svg>
