<svg width="14" height="14" viewBox="0 0 14 14" fill="none" xmlns="http://www.w3.org/2000/svg">
<path d="M1.92055 8.39431C1.55389 8.39431 1.24 8.26375 0.978886 8.00264C0.717775 7.74153 0.587219 7.42764 0.587219 7.06097C0.587219 6.69431 0.717775 6.38042 0.978886 6.11931C1.24 5.8582 1.55389 5.72764 1.92055 5.72764C2.28722 5.72764 2.60111 5.8582 2.86222 6.11931C3.12333 6.38042 3.25389 6.69431 3.25389 7.06097C3.25389 7.42764 3.12333 7.74153 2.86222 8.00264C2.60111 8.26375 2.28722 8.39431 1.92055 8.39431ZM3.02055 12.1943L2.08722 11.261L4.98722 8.36097L5.92055 9.29431L3.02055 12.1943ZM5.02055 5.72764L2.12055 2.82764L3.05389 1.89431L5.95389 4.79431L5.02055 5.72764ZM7.25389 13.7276C6.88722 13.7276 6.57333 13.5971 6.31222 13.336C6.05111 13.0749 5.92055 12.761 5.92055 12.3943C5.92055 12.0276 6.05111 11.7137 6.31222 11.4526C6.57333 11.1915 6.88722 11.061 7.25389 11.061C7.62055 11.061 7.93444 11.1915 8.19555 11.4526C8.45666 11.7137 8.58722 12.0276 8.58722 12.3943C8.58722 12.761 8.45666 13.0749 8.19555 13.336C7.93444 13.5971 7.62055 13.7276 7.25389 13.7276ZM7.25389 3.06097C6.88722 3.06097 6.57333 2.93042 6.31222 2.66931C6.05111 2.4082 5.92055 2.09431 5.92055 1.72764C5.92055 1.36097 6.05111 1.04708 6.31222 0.785973C6.57333 0.524862 6.88722 0.394306 7.25389 0.394306C7.62055 0.394306 7.93444 0.524862 8.19555 0.785973C8.45666 1.04708 8.58722 1.36097 8.58722 1.72764C8.58722 2.09431 8.45666 2.4082 8.19555 2.66931C7.93444 2.93042 7.62055 3.06097 7.25389 3.06097ZM9.48722 5.76097L8.55389 4.79431L11.4872 1.89431L12.4206 2.82764L9.48722 5.76097ZM11.4872 12.1943L8.58722 9.29431L9.52055 8.36097L12.4206 11.261L11.4872 12.1943ZM12.5872 8.39431C12.2206 8.39431 11.9067 8.26375 11.6456 8.00264C11.3844 7.74153 11.2539 7.42764 11.2539 7.06097C11.2539 6.69431 11.3844 6.38042 11.6456 6.11931C11.9067 5.8582 12.2206 5.72764 12.5872 5.72764C12.9539 5.72764 13.2678 5.8582 13.5289 6.11931C13.79 6.38042 13.9206 6.69431 13.9206 7.06097C13.9206 7.42764 13.79 7.74153 13.5289 8.00264C13.2678 8.26375 12.9539 8.39431 12.5872 8.39431Z" fill="#E4F3FC"/>
</svg>
