<svg width="11" height="14" viewBox="0 0 11 14" fill="none" xmlns="http://www.w3.org/2000/svg">
<path d="M5.5039 8.72764C6.61057 8.72764 7.5039 7.83431 7.5039 6.72764V2.72764C7.5039 1.62097 6.61057 0.72764 5.5039 0.72764C4.39723 0.72764 3.5039 1.62097 3.5039 2.72764V6.72764C3.5039 7.83431 4.39723 8.72764 5.5039 8.72764Z" fill="#F7F7F7"/>
<path d="M8.83723 6.72764C8.83723 8.56764 7.3439 10.061 5.5039 10.061C3.6639 10.061 2.17057 8.56764 2.17057 6.72764H0.837234C0.837234 9.08097 2.57723 11.0143 4.83723 11.341V13.3943H6.17057V11.341C8.43057 11.0143 10.1706 9.08097 10.1706 6.72764H8.83723Z" fill="#F7F7F7"/>
</svg>
